SplineFontDB: 3.0
FontName: HiOl
FullName: Hi. Outline
FamilyName: Hi.
Weight: Regular
Copyright: Copyright (c) 2015, Mew Too/Cannot Into Space Fonts, All Rights Reserved.
Version: 1.996
ItalicAngle: 0
UnderlinePosition: -100
UnderlineWidth: 50
Ascent: 800
Descent: 200
InvalidEm: 0
sfntRevision: 0x0001fefa
LayerCount: 2
Layer: 0 0 "Back" 1
Layer: 1 0 "Fore" 0
PreferredKerning: 4
XUID: [1021 604 120746000 794]
StyleMap: 0x0000
FSType: 0
OS2Version: 4
OS2_WeightWidthSlopeOnly: 0
OS2_UseTypoMetrics: 1
CreationTime: 1421008990
ModificationTime: 1428970308
PfmFamily: 17
TTFWeight: 400
TTFWidth: 5
LineGap: 90
VLineGap: 0
Panose: 2 0 5 3 0 0 0 0 0 0
OS2TypoAscent: 800
OS2TypoAOffset: 0
OS2TypoDescent: -200
OS2TypoDOffset: 0
OS2TypoLinegap: 90
OS2WinAscent: 813
OS2WinAOffset: 0
OS2WinDescent: 184
OS2WinDOffset: 0
HheadAscent: 813
HheadAOffset: 0
HheadDescent: -184
HheadDOffset: 0
OS2SubXSize: 650
OS2SubYSize: 699
OS2SubXOff: 0
OS2SubYOff: 140
OS2SupXSize: 650
OS2SupYSize: 699
OS2SupXOff: 0
OS2SupYOff: 479
OS2StrikeYSize: 49
OS2StrikeYPos: 258
OS2CapHeight: 590
OS2XHeight: 590
OS2FamilyClass: 2063
OS2Vendor: 'CiSf'
OS2CodePages: 00000001.00000000
OS2UnicodeRanges: 0000002f.10000000.00000000.00000000
Lookup: 3 0 0 "'salt' Stylistic Alternatives in Latin lookup 0" { "'salt' Stylistic Alternatives in Latin lookup 0 subtable"  } ['salt' ('DFLT' <'dflt' > 'latn' <'dflt' > ) ]
Lookup: 4 0 1 "'liga' Standard Ligatures lookup 1" { "'liga' Standard Ligatures lookup 1 subtable"  } ['liga' ('DFLT' <'dflt' > ) ]
Lookup: 258 0 0 "'kern' Horizontal Kerning lookup 0" { "'kern' Horizontal Kerning lookup 0 subtable"  } ['kern' ('DFLT' <'dflt' > 'arab' <'dflt' > 'latn' <'dflt' > ) ]
MarkAttachClasses: 1
DEI: 91125

StartChar: .notdef
Encoding: 65536 -1 0
GlifName: _notdef
Width: 523
Flags: W
HStem: -25 100<136.5 386.5> 458 50<136.5 386.5> 538 20G<56.1353 469.066>
VStem: 86.5 50<75 458> 386.5 50<75 458>
LayerCount: 2
Back
Fore
SplineSet
86.5 25 m 1
 436.5 25 l 1
 436.5 508 l 1
 86.5 508 l 1
 86.5 25 l 1
36.5 0 m 2
 36.5 533 l 2
 36.5 548.1328125 50.7705078125 558 61.5 558 c 2
 461.5 558 l 2
 476.6328125 558 486.5 543.729492188 486.5 533 c 2
 486.5 0 l 2
 486.5 -15.1328125 472.229492188 -25 461.5 -25 c 2
 61.5 -25 l 2
 46.3671875 -25 36.5 -10.7294921875 36.5 0 c 2
111.5 25 m 2
 100.770507812 25 86.5 34.8671875 86.5 50 c 2
 86.5 483 l 2
 86.5 493.729492188 96.3671875 508 111.5 508 c 2
 411.5 508 l 2
 422.229492188 508 436.5 498.1328125 436.5 483 c 2
 436.5 50 l 2
 436.5 39.2705078125 426.6328125 25 411.5 25 c 2
 111.5 25 l 2
136.5 75 m 1
 386.5 75 l 1
 386.5 458 l 1
 136.5 458 l 1
 136.5 75 l 1
EndSplineSet
EndChar

StartChar: space
Encoding: 32 32 1
GlifName: space
Width: 141
GlyphClass: 2
Flags: W
LayerCount: 2
Back
Fore
SplineSet
905.5 402 m 1024,0,-1
EndSplineSet
EndChar

StartChar: exclam
Encoding: 33 33 2
GlifName: exclam
Width: 198
GlyphClass: 2
Flags: W
HStem: -25.25 50<80.0194 118.13> 103 14.25<69.7764 128.145> 555 50<87.6109 110.626>
VStem: 29.625 50<25.1955 66.8045> 36.9961 50.001<153.002 554.998> 111.097 50<153.002 553.909> 118.375 50<25.0177 66.9823>
LayerCount: 2
Back
Fore
SplineSet
79.625 46 m 0xf2
 79.625 33.1357421875 88.7001953125 24.75 98.375 24.75 c 0
 108.712890625 24.75 118.375 34.0947265625 118.375 46 c 0
 118.375 57.9052734375 108.711914062 67.25 98.375 67.25 c 0
 88.7001953125 67.25 79.625 58.8642578125 79.625 46 c 0xf2
29.625 46 m 0
 29.625 83.1357421875 58.0498046875 117.25 98.375 117.25 c 0
 138.038085938 117.25 168.375 84.0947265625 168.375 46 c 0
 168.375 7.9052734375 138.037109375 -25.25 98.375 -25.25 c 0
 58.0498046875 -25.25 29.625 8.8642578125 29.625 46 c 0
161.095703125 552.354492188 m 2
 161.096679688 156 l 2
 161.096679688 121.623046875 128.14453125 103 99.046875 103 c 0
 69.7763671875 103 36.994140625 121.84375 36.99609375 155.987304688 c 0xec
 36.9951171875 158.375976562 36.681640625 542.951171875 37.1083984375 555.857421875 c 0
 38.19921875 585.290039062 70.333984375 605 99.0458984375 605 c 0
 128.697265625 605 160.1484375 585.727539062 161.095703125 552.354492188 c 2
111.096679688 550.727539062 m 2
 110.497070312 551.528320312 106.52734375 555 99.046875 555 c 0
 92.3447265625 555 88.1171875 552.21484375 86.98046875 550.939453125 c 0
 86.826171875 533.018554688 86.984375 180.9453125 86.9970703125 157.1328125 c 0
 87.9404296875 156.073242188 92.2646484375 153 99.046875 153 c 0
 105.741210938 153 109.9921875 155.803710938 111.096679688 157.041992188 c 2
 111.096679688 550.727539062 l 2
EndSplineSet
EndChar

StartChar: quotedbl
Encoding: 34 34 3
GlifName: quotedbl
Width: 319
GlyphClass: 2
Flags: W
HStem: 675.002 50.002<74.6455 112.603 195.647 233.605>
VStem: 24.252 50<632.719 674.557>
LayerCount: 2
Back
Fore
SplineSet
237.095703125 638.390625 m 2
 236.26953125 641.629882812 235.461914062 644.778320312 234.720703125 647.806640625 c 0
 234.353515625 649.305664062 234.00390625 651.8046875 234.00390625 653.75 c 0
 234.00390625 665.655273438 224.340820312 675 214.00390625 675 c 0
 204.329101562 675 195.25390625 666.614257812 195.25390625 653.75 c 0
 195.25390625 640.885742188 204.329101562 632.5 214.00390625 632.5 c 0
 217.3203125 632.5 220.310546875 633.329101562 223.090820312 634.884765625 c 0
 223.963867188 635.373046875 237.095703125 638.390625 237.095703125 638.390625 c 2
145.25390625 653.75 m 0
 145.25390625 690.885742188 173.676757812 725.001953125 214.001953125 725.001953125 c 0
 253.194335938 725.001953125 281.828125 693.053710938 283.928710938 657.100585938 c 1
 289.274414062 635.904296875 301.546875 604.840820312 291.12890625 574.826171875 c 0
 278.865234375 545.252929688 247.622070312 544.501953125 227.309570312 539.962890625 c 0
 213.58203125 536.89453125 199.134765625 534.43359375 185.999023438 532.712890625 c 1
 185.999023438 532.712890625 146.71484375 567.94140625 171.940429688 580.041992188 c 0
 177.810546875 582.857421875 185.030273438 586.061523438 188.30078125 587.573242188 c 1
 161.275390625 598.958007812 145.25390625 625.107421875 145.25390625 653.75 c 0
116.09375 638.392578125 m 2
 115.267578125 641.631835938 114.459960938 644.780273438 113.71875 647.80859375 c 0
 113.3515625 649.307617188 113.001953125 651.806640625 113.001953125 653.751953125 c 0
 113.001953125 665.657226562 103.338867188 675.001953125 93.001953125 675.001953125 c 0
 83.3271484375 675.001953125 74.251953125 666.616210938 74.251953125 653.751953125 c 0
 74.251953125 640.887695312 83.3271484375 632.501953125 93.001953125 632.501953125 c 0
 96.318359375 632.501953125 99.30859375 633.331054688 102.088867188 634.88671875 c 0
 102.961914062 635.375 116.09375 638.392578125 116.09375 638.392578125 c 2
24.251953125 653.751953125 m 0
 24.251953125 690.887695312 52.6748046875 725.00390625 93 725.00390625 c 0
 132.192382812 725.00390625 160.826171875 693.055664062 162.926757812 657.102539062 c 1
 168.272460938 635.90625 180.544921875 604.842773438 170.126953125 574.828125 c 0
 157.86328125 545.254882812 126.620117188 544.50390625 106.307617188 539.96484375 c 0
 92.580078125 536.896484375 78.1328125 534.435546875 64.9970703125 532.71484375 c 1
 64.9970703125 532.71484375 25.712890625 567.943359375 50.9384765625 580.043945312 c 0
 56.80859375 582.859375 64.0283203125 586.063476562 67.298828125 587.575195312 c 1
 40.2734375 598.959960938 24.251953125 625.109375 24.251953125 653.751953125 c 0
EndSplineSet
EndChar

StartChar: numbersign
Encoding: 35 35 4
GlifName: numbersign
Width: 791
GlyphClass: 2
Flags: W
HStem: -24.999 49.998<175.87 202.563 393.869 420.563> 145.862 50.0576<66.7618 167.34 294.583 385.054 512.308 678.489> 216.469 50.0645<66.1846 211.277 338.556 428.99 556.264 678.198> 318.621 50.0586<113.081 230.88 358.169 448.597 575.892 724.812> 389.87 50.0244<112.508 282.559 402.139 500.3 619.846 724.52> 592.998 50.0029<378.959 405.491 596.96 623.49>
LayerCount: 2
Back
Fore
SplineSet
672.708007812 581.661132812 m 2
 619.845703125 438.046875 l 1
 705.505859375 437.73828125 l 2
 735.624023438 437.629882812 761.327148438 414.087890625 771.416015625 386.368164062 c 0
 773.677734375 380.153320312 775.057617188 373.813476562 775.395507812 367.435546875 c 0
 776.708007812 342.673828125 758.864257812 318.004882812 730.677734375 318.107421875 c 2
 575.891601562 318.62109375 l 1
 556.263671875 265.291992188 l 1
 659.18359375 264.921875 l 2
 689.301757812 264.813476562 715.004882812 241.271484375 725.09375 213.551757812 c 0
 727.35546875 207.336914062 728.735351562 200.997070312 729.073242188 194.619140625 c 0
 730.385742188 169.857421875 712.541992188 145.188476562 684.35546875 145.291015625 c 2
 512.307617188 145.862304688 l 1
 465.750976562 19.365234375 l 2
 455.348632812 -8.900390625 424.434570312 -25 394.935546875 -25 c 0
 388.322265625 -25 381.893554688 -24.1279296875 375.784179688 -22.263671875 c 0
 352.067382812 -15.02734375 334.990234375 10.1767578125 344.7265625 36.6279296875 c 2
 385.053710938 146.294921875 l 1
 294.583007812 146.609375 l 1
 247.751953125 19.3662109375 l 2
 237.349609375 -8.8994140625 206.435546875 -24.9990234375 176.936523438 -24.9990234375 c 0
 170.323242188 -24.9990234375 163.89453125 -24.126953125 157.78515625 -22.2626953125 c 0
 134.068359375 -15.0263671875 116.991210938 10.1787109375 126.727539062 36.62890625 c 2
 167.33984375 147.072265625 l 1
 116.036132812 147.268554688 88.14453125 147.333984375 84.3583984375 147.467773438 c 0
 54.25 148.486328125 29.5810546875 171.366210938 19.5888671875 198.818359375 c 0
 17.15234375 205.512695312 15.7236328125 212.359375 15.5390625 219.259765625 c 0
 15.2568359375 229.825195312 18.017578125 240.795898438 24.8525390625 249.80859375 c 0
 33.2451171875 260.875 46.1669921875 266.778320312 60.01953125 267.078125 c 2
 211.27734375 266.533203125 l 1
 230.879882812 319.822265625 l 1
 170.063476562 320.049804688 134.405273438 320.143554688 130.654296875 320.284179688 c 0
 100.59765625 321.30078125 75.9033203125 344.184570312 65.912109375 371.633789062 c 0
 63.4755859375 378.328125 62.046875 385.174804688 61.8623046875 392.075195312 c 0
 61.580078125 402.640625 64.3408203125 413.611328125 71.17578125 422.624023438 c 0
 79.568359375 433.690429688 92.490234375 439.594726562 106.342773438 439.89453125 c 2
 274.8359375 439.288085938 l 1
 308.684570312 531.262695312 331.2421875 592.798828125 334.735351562 601.57421875 c 0
 344.580078125 626.018554688 375.424804688 643.000976562 404.393554688 643.000976562 c 0
 411.517578125 643.000976562 418.439453125 642.001953125 424.986328125 639.815429688 c 0
 435.010742188 636.466796875 444.375 630.120117188 450.506835938 620.614257812 c 0
 458.03515625 608.942382812 459.1640625 594.780273438 454.708007812 581.661132812 c 2
 402.138671875 438.829101562 l 1
 492.547851562 438.50390625 l 1
 526.517578125 530.807617188 549.251953125 592.821289062 552.737304688 601.578125 c 0
 562.578125 626.012695312 593.42578125 642.999023438 622.393554688 642.999023438 c 0
 629.517578125 642.999023438 636.439453125 642 642.986328125 639.813476562 c 0
 666.3125 632.022460938 681.293945312 606.938476562 672.708007812 581.661132812 c 2
623.586914062 592.971679688 m 1
 623.586914062 592.971679688 622.958984375 592.998046875 622.392578125 592.998046875 c 0
 610.091796875 592.998046875 599.137695312 583.09765625 598.499023438 581.36328125 c 0
 598.153320312 580.424804688 598.580078125 581.556640625 598.21484375 580.625976562 c 0
 596.052734375 574.904296875 567.954101562 498.640625 533.423828125 404.805664062 c 0
 529.836914062 395.059570312 520.270507812 388.40234375 509.87109375 388.439453125 c 2
 366.252929688 388.956054688 l 2
 326.96875 389.09765625 342.881835938 422.590820312 342.881835938 422.590820312 c 1
 405.588867188 592.96875 l 1
 405.588867188 592.96875 404.956054688 592.998046875 404.389648438 592.998046875 c 0
 392.088867188 592.998046875 381.134765625 583.09765625 380.49609375 581.36328125 c 0
 380.150390625 580.424804688 380.576171875 581.5546875 380.2109375 580.624023438 c 0
 378.049804688 574.905273438 350.1015625 499.049804688 315.708984375 405.58984375 c 0
 312.122070312 395.84375 302.555664062 389.186523438 292.15625 389.223632812 c 2
 112.5078125 389.870117188 l 1
 112.5078125 389.870117188 112.696289062 389.265625 112.889648438 388.733398438 c 0
 117.096679688 377.17578125 130.146484375 370.267578125 131.995117188 370.260742188 c 0
 132.995117188 370.256835938 131.783203125 370.271484375 132.783203125 370.247070312 c 0
 137.7265625 370.1875 192.768554688 369.958007812 266.750976562 369.689453125 c 0
 306.029296875 369.546875 290.123046875 336.057617188 290.123046875 336.057617188 c 1
 252.153320312 232.837890625 l 2
 248.56640625 223.087890625 238.999023438 216.431640625 228.599609375 216.46875 c 2
 66.1845703125 217.053710938 l 1
 66.1845703125 217.053710938 66.373046875 216.44921875 66.56640625 215.916992188 c 0
 70.7734375 204.359375 83.8232421875 197.451171875 85.671875 197.444335938 c 0
 86.671875 197.440429688 85.4560546875 197.455078125 86.4560546875 197.430664062 c 0
 90.4091796875 197.380859375 137.76171875 197.176757812 203.208007812 196.935546875 c 0
 242.48046875 196.791015625 226.580078125 163.306640625 226.580078125 163.306640625 c 1
 175.731445312 25.029296875 l 1
 175.731445312 25.029296875 176.39453125 24.9990234375 176.932617188 24.9990234375 c 0
 189.232421875 24.9990234375 200.1875 34.8994140625 200.826171875 36.6337890625 c 2
 253.703125 180.303710938 l 2
 257.2890625 190.046875 266.853515625 196.706054688 277.252929688 196.668945312 c 0
 322.98046875 196.506835938 372.583007812 196.3359375 420.920898438 196.170898438 c 0
 460.203125 196.037109375 444.298828125 162.541992188 444.298828125 162.541992188 c 1
 393.731445312 25.029296875 l 1
 393.731445312 25.029296875 394.39453125 24.9990234375 394.932617188 24.9990234375 c 0
 407.232421875 24.9990234375 418.1875 34.8994140625 418.826171875 36.6337890625 c 2
 471.427734375 179.5546875 l 2
 475.01171875 189.29296875 484.57421875 195.955078125 494.973632812 195.919921875 c 2
 678.489257812 195.309570312 l 1
 678.489257812 195.309570312 678.291015625 195.943359375 678.107421875 196.448242188 c 0
 673.901367188 208.005859375 660.850585938 214.915039062 659.001953125 214.921875 c 2
 520.37890625 215.420898438 l 2
 481.094726562 215.5625 497.0078125 249.055664062 497.0078125 249.055664062 c 1
 535.012695312 352.314453125 l 2
 538.596679688 362.052734375 548.159179688 368.71484375 558.55859375 368.6796875 c 2
 724.8125 368.126953125 l 1
 724.8125 368.126953125 724.614257812 368.760742188 724.430664062 369.265625 c 0
 720.224609375 380.823242188 707.173828125 387.732421875 705.325195312 387.739257812 c 2
 583.961914062 388.17578125 l 2
 544.677734375 388.317382812 560.590820312 421.810546875 560.590820312 421.810546875 c 1
 623.586914062 592.971679688 l 1
317.29296875 353.05859375 m 2
 320.87890625 362.80078125 330.442382812 369.459960938 340.841796875 369.423828125 c 0
 387.205078125 369.260742188 436.766601562 369.08984375 484.47265625 368.927734375 c 0
 523.759765625 368.793945312 507.850585938 335.295898438 507.850585938 335.295898438 c 1
 469.874023438 232.0546875 l 2
 466.287109375 222.303710938 456.719726562 215.647460938 446.3203125 215.684570312 c 2
 302.673828125 216.202148438 l 2
 263.389648438 216.34375 279.302734375 249.836914062 279.302734375 249.836914062 c 1
 317.29296875 353.05859375 l 2
358.168945312 319.362304688 m 1
 338.555664062 266.07421875 l 1
 428.990234375 265.748046875 l 1
 448.596679688 319.049804688 l 1
 358.168945312 319.362304688 l 1
EndSplineSet
AlternateSubs2: "'salt' Stylistic Alternatives in Latin lookup 0 subtable" uniE008
EndChar

StartChar: dollar
Encoding: 36 36 5
GlifName: dollar
Width: 540
GlyphClass: 2
Flags: W
HStem: -25 50.002<254.462 277.508> 52.4688 49.9766<74.4991 203.939 328.049 415.435> 108.045 49.998<74.4991 203.905> 240.496 50.002<81.5448 203.883 328.049 370.503 370.503 405.355> 297.08 50.0322<134.358 168.633 168.643 168.915 168.931 203.862 328.049 458.454> 429.605 50.002<328.049 465.499> 485.689 49.9707<124.19 203.885 328.049 465.499> 565.003 49.999<254.562 277.579>
VStem: 24.499 50<102.742 107.761 296.977 442.469> 82.9766 50.002<347.477 406.468> 203.905 50.0078<26.4007 51.9854 158.026 240.515 346.781 425.009 530.787 565.001> 278.05 49.999<26.4001 55.4286 161.38 240.864 347.112 429.605 535.66 563.91> 405.596 49.9678<180.006 239.369> 467.449 50<147.93 290.293 479.873 484.891>
LayerCount: 2
Back
Fore
SplineSet
226.887695312 478.122070312 m 0
 246.833984375 479.700195312 253.858398438 464.13671875 253.858398438 453.202148438 c 0
 253.858398438 414.439453125 253.858398438 368.71875 253.866210938 321.885742188 c 0
 253.868164062 309.521484375 243.19140625 296.93359375 228.958007812 296.881835938 c 0
 190.842773438 296.7421875 168.915039062 296.595703125 168.915039062 296.595703125 c 2
 105.241210938 296.424804688 82.8623046875 332.985351562 82.9765625 361.102539062 c 0
 83.0009765625 367.189453125 83.6591796875 371.177734375 84.435546875 375.10546875 c 0
 86.8427734375 449.805664062 160.485351562 472.869140625 226.887695312 478.122070312 c 0
203.858398438 425.008789062 m 1
 153.810546875 416.428710938 134.40234375 399.634765625 134.40234375 372.352539062 c 0
 134.40234375 359.1640625 133.076171875 366.970703125 132.978515625 361.134765625 c 0
 132.943359375 359.064453125 125.66796875 346.481445312 168.6328125 346.596679688 c 2
 168.6328125 346.596679688 182.259765625 346.684570312 203.862304688 346.78125 c 1
 203.859375 375.51953125 203.858398438 400.87109375 203.858398438 425.008789062 c 1
304.534179688 108.91796875 m 0
 288.220703125 107.948242188 278.049804688 120.936523438 278.049804688 133.874023438 c 2
 278.049804688 265.760742188 l 2
 278.049804688 278.106445312 288.71484375 290.705078125 302.952148438 290.760742188 c 0
 344.614257812 290.922851562 369.356445312 291.106445312 371.239257812 291.052734375 c 0
 435.560546875 290.403320312 457.491210938 254.029296875 457.013671875 225.645507812 c 0
 456.91796875 219.966796875 456.307617188 216.284179688 455.563476562 212.5234375 c 0
 453.08984375 134.6875 373.994140625 113.048828125 304.534179688 108.91796875 c 0
328.048828125 161.379882812 m 1
 383.408203125 169.090820312 405.595703125 186.58203125 405.595703125 215.282226562 c 0
 405.595703125 228.564453125 406.998046875 220.749023438 407.022460938 226.716796875 c 0
 407.030273438 228.590820312 414.006835938 241.099609375 371.28515625 241.038085938 c 0
 370.904296875 241.037109375 370.502929688 241.048828125 370.502929688 241.048828125 c 2
 368.169921875 241.059570312 351.287109375 240.969726562 328.048828125 240.864257812 c 1
 328.048828125 161.379882812 l 1
328.048828125 562.356445312 m 2
 328.048828125 535.66015625 l 1
 417.383789062 535.521484375 468.693359375 535.168945312 469.58203125 535.163085938 c 0
 500.046875 535.163085938 515.499023438 506.278320312 515.499023438 482.375976562 c 0
 515.499023438 458.46484375 500.123046875 429.588867188 469.495117188 429.588867188 c 2
 328.048828125 429.60546875 l 1
 328.048828125 347.112304688 l 1
 343.318359375 347.127929688 355.984375 347.134765625 371.249023438 347.134765625 c 0
 380.129882812 347.134765625 390.000976562 347.5078125 400.413085938 347.508789062 c 0
 453.995117188 347.515625 517.44921875 327.743164062 517.44921875 215.280273438 c 0
 517.44921875 96.9697265625 426.123046875 60.986328125 328.048828125 53.7158203125 c 1
 328.048828125 28 l 2
 328.048828125 -6.376953125 295.096679688 -25 265.999023438 -25 c 0
 236.728515625 -25 203.946289062 -6.16015625 203.948242188 27.990234375 c 2
 203.939453125 51.9853515625 l 1
 119.212890625 52.1337890625 71.29296875 52.462890625 70.416015625 52.46875 c 0
 39.951171875 52.46875 24.4990234375 81.353515625 24.4990234375 105.255859375 c 0
 24.4990234375 129.166992188 39.875 158.04296875 70.5029296875 158.04296875 c 2
 203.905273438 158.026367188 l 1
 203.8828125 240.514648438 l 1
 192.5390625 240.502929688 180.884765625 240.49609375 168.749023438 240.49609375 c 0
 159.868164062 240.49609375 149.997070312 240.123046875 139.584960938 240.122070312 c 0
 86.0029296875 240.115234375 22.548828125 259.887695312 22.548828125 372.350585938 c 0
 22.548828125 487.536132812 110.227539062 525.061523438 203.884765625 533.271484375 c 1
 203.90234375 554.041015625 203.85546875 558.649414062 203.984375 563.784179688 c 0
 205.216796875 597.029296875 237.264648438 615.001953125 265.999023438 615.001953125 c 0
 295.650390625 615.001953125 327.1015625 595.729492188 328.048828125 562.356445312 c 2
278.048828125 560.728515625 m 2
 277.44921875 561.529296875 273.479492188 565.002929688 265.999023438 565.002929688 c 0
 259.297851562 565.002929688 255.067382812 562.21484375 253.934570312 560.944335938 c 0
 253.91015625 557.370117188 253.8828125 538.216796875 253.87109375 509.869140625 c 0
 253.866210938 497.626953125 243.678710938 485.548828125 230.045898438 484.908203125 c 0
 128.65234375 480.141601562 72.5498046875 456.6953125 72.5498046875 372.352539062 c 0
 72.5498046875 287.374023438 99.51171875 290.119140625 139.579101562 290.124023438 c 0
 148.735351562 290.125 158.57421875 290.498046875 168.749023438 290.498046875 c 0
 190.098632812 290.498046875 210.201171875 290.518554688 228.833984375 290.55078125 c 0
 242.51953125 290.57421875 253.874023438 279.158203125 253.876953125 265.556640625 c 2
 253.913085938 133.034179688 l 2
 253.916992188 119.400390625 242.524414062 108.026367188 228.911132812 108.02734375 c 2
 74.837890625 108.044921875 l 2
 74.6640625 107.3125 74.4990234375 106.37109375 74.4990234375 105.258789062 c 0
 74.4990234375 104.13671875 74.638671875 103.229492188 74.849609375 102.4453125 c 0
 90.25390625 102.353515625 147.26953125 102.04296875 228.958984375 101.954101562 c 0
 241.416992188 101.940429688 253.926757812 91.177734375 253.931640625 76.962890625 c 2
 253.94921875 29.134765625 l 2
 254.892578125 28.0751953125 259.217773438 25.001953125 266 25.001953125 c 0
 272.694335938 25.001953125 276.9453125 27.8056640625 278.049804688 29.0439453125 c 2
 278.049804688 77.4248046875 l 2
 278.049804688 90.19921875 288.627929688 101.93359375 302.170898438 102.41015625 c 0
 408.193359375 106.137695312 467.44921875 128.946289062 467.44921875 215.283203125 c 0
 467.44921875 300.26171875 440.487304688 297.516601562 400.419921875 297.51171875 c 0
 391.263671875 297.510742188 381.424804688 297.137695312 371.25 297.137695312 c 0
 346.795898438 297.137695312 323.9609375 297.115234375 303.091796875 297.080078125 c 0
 289.397460938 297.056640625 278.049804688 308.479492188 278.049804688 322.079101562 c 2
 278.049804688 454.608398438 l 2
 278.049804688 468.227539062 289.434570312 479.608398438 303.05078125 479.607421875 c 0
 370.767578125 479.604492188 446.124023438 479.592773438 465.16015625 479.58984375 c 0
 465.333984375 480.322265625 465.499023438 481.263671875 465.499023438 482.375976562 c 0
 465.499023438 483.498046875 465.359375 484.405273438 465.1484375 485.189453125 c 0
 449.944335938 485.280273438 389.204101562 485.612304688 303.026367188 485.689453125 c 0
 290.54296875 485.700195312 278.048828125 496.479492188 278.048828125 510.689453125 c 2
 278.048828125 560.728515625 l 2
EndSplineSet
EndChar

StartChar: percent
Encoding: 37 37 6
GlifName: percent
Width: 610
GlyphClass: 2
Flags: W
HStem: -25.4404 50<387.03 509.427> 32.7637 50<413.411 483.047> 150.436 50<413.41 483.046> 208.64 50<387.03 509.427> 358.92 50<100.573 222.97> 417.124 50<126.954 196.59> 534.796 50<126.953 196.589> 593 50<100.573 222.97>
VStem: 14.4678 50<444.056 557.864> 73.2041 50<471.477 530.443> 200.339 50<471.477 530.443> 259.075 50<444.056 557.864> 300.925 50<59.6959 173.503> 359.661 50<87.1166 146.083> 486.796 50<87.1166 146.083> 545.532 50<59.6959 173.503>
LayerCount: 2
Back
Fore
SplineSet
250.338867188 500.959960938 m 0xffe7
 250.338867188 454.337890625 209.420898438 417.124023438 161.771484375 417.124023438 c 0
 114.130859375 417.124023438 73.2041015625 454.337890625 73.2041015625 500.959960938 c 0
 73.2041015625 547.58203125 114.122070312 584.795898438 161.771484375 584.795898438 c 0
 209.412109375 584.795898438 250.338867188 547.58203125 250.338867188 500.959960938 c 0xffe7
200.338867188 500.959960938 m 0
 200.338867188 516.7890625 184.21875 534.795898438 161.771484375 534.795898438 c 0
 139.333007812 534.795898438 123.204101562 516.7890625 123.204101562 500.959960938 c 0
 123.204101562 485.130859375 139.32421875 467.124023438 161.771484375 467.124023438 c 0
 184.209960938 467.124023438 200.338867188 485.130859375 200.338867188 500.959960938 c 0
259.075195312 500.959960938 m 0xfff7
 259.075195312 550.795898438 216.330078125 593 161.771484375 593 c 0
 107.212890625 593 64.4677734375 550.796875 64.4677734375 500.959960938 c 0
 64.4677734375 451.124023438 107.212890625 408.919921875 161.771484375 408.919921875 c 0
 216.330078125 408.919921875 259.075195312 451.123046875 259.075195312 500.959960938 c 0xfff7
309.075195312 500.959960938 m 0
 309.075195312 421.59765625 242.060546875 358.919921875 161.771484375 358.919921875 c 0
 81.482421875 358.919921875 14.4677734375 421.596679688 14.4677734375 500.959960938 c 0
 14.4677734375 580.322265625 81.482421875 643 161.771484375 643 c 0
 242.060546875 643 309.075195312 580.323242188 309.075195312 500.959960938 c 0
359.661132812 116.599609375 m 0
 359.661132812 163.221679688 400.579101562 200.435546875 448.228515625 200.435546875 c 0
 495.869140625 200.435546875 536.795898438 163.221679688 536.795898438 116.599609375 c 0
 536.795898438 69.9775390625 495.877929688 32.763671875 448.228515625 32.763671875 c 0
 400.587890625 32.763671875 359.661132812 69.9775390625 359.661132812 116.599609375 c 0
409.661132812 116.599609375 m 0
 409.661132812 100.770507812 425.78125 82.763671875 448.228515625 82.763671875 c 0
 470.666992188 82.763671875 486.795898438 100.770507812 486.795898438 116.599609375 c 0
 486.795898438 132.428710938 470.67578125 150.435546875 448.228515625 150.435546875 c 0
 425.790039062 150.435546875 409.661132812 132.428710938 409.661132812 116.599609375 c 0
350.924804688 116.599609375 m 0xffef
 350.924804688 66.763671875 393.669921875 24.5595703125 448.228515625 24.5595703125 c 0
 502.787109375 24.5595703125 545.532226562 66.7626953125 545.532226562 116.599609375 c 0
 545.532226562 166.435546875 502.787109375 208.639648438 448.228515625 208.639648438 c 0
 393.669921875 208.639648438 350.924804688 166.436523438 350.924804688 116.599609375 c 0xffef
300.924804688 116.599609375 m 0
 300.924804688 195.961914062 367.939453125 258.639648438 448.228515625 258.639648438 c 0
 528.517578125 258.639648438 595.532226562 195.962890625 595.532226562 116.599609375 c 0
 595.532226562 37.2373046875 528.517578125 -25.4404296875 448.228515625 -25.4404296875 c 0
 367.939453125 -25.4404296875 300.924804688 37.236328125 300.924804688 116.599609375 c 0
538.270507812 576.994140625 m 2
 187.783203125 14.7734375 l 2
 172.66015625 -9.4833984375 141.743164062 -25 112.063476562 -25 c 0
 102.546875 -25 93.1494140625 -23.2685546875 84.560546875 -18.509765625 c 0
 61.544921875 -5.7578125 59.6181640625 22.5654296875 71.2490234375 41.2197265625 c 0
 71.599609375 41.7822265625 418.478515625 598.538085938 422.15234375 604.083007812 c 0
 437.930664062 628.134765625 467.907226562 643 497.32421875 643 c 0
 506.78515625 643 516.151367188 641.315429688 524.75 636.560546875 c 0
 547.908203125 623.754882812 549.231445312 595.415039062 538.270507812 576.994140625 c 2
488.58203125 591.799804688 m 1
 477.65234375 588.91796875 466.453125 580.650390625 464.03515625 576.772460938 c 0
 463.919921875 576.587890625 463.8125 576.419921875 463.68359375 576.224609375 c 0
 455.149414062 562.786132812 170.83984375 106.509765625 120.801757812 26.1982421875 c 1
 131.740234375 29.08203125 142.935546875 37.3466796875 145.353515625 41.2255859375 c 2
 488.58203125 591.799804688 l 1
EndSplineSet
EndChar

StartChar: ampersand
Encoding: 38 38 7
GlifName: ampersand
Width: 790
GlyphClass: 2
Flags: W
HStem: -25 50.002<67.4374 605.766> 49.0996 50<165.51 531.888> 227.633 50.001<192.235 410.359> 301.802 49.999<221.229 335.931> 338.912 50.001<440.109 531.84 656.025 722.582> 413.102 49.999<367.064 722.573> 480.427 50<309.993 524.182 524.201 525.803> 555.224 49.999<284.453 527.183>
VStem: 16.0254 49.998<25.5242 194.162> 68.625 49.9971<249.491 391.888> 315.973 50.001<388.993 412.631> 410.622 50.0029<278.117 301.844> 531.888 50.0137<99.0996 338.91 530.934 554.396> 606.023 50.002<25.8076 338.95> 723.974 50<389.515 412.559>
LayerCount: 2
Back
Fore
SplineSet
440.109375 338.912109375 m 1xeffe
 453.1875 326.581054688 460.625 308.48828125 460.625 289.75 c 0
 460.625 259.706054688 441.084960938 228.915039062 408.857421875 227.719726562 c 0
 403.001953125 227.51953125 316.592773438 227.598632812 239.23046875 227.6328125 c 0
 178.911132812 225.262695312 187.138671875 191.873046875 165.509765625 99.099609375 c 1
 531.887695312 99.099609375 l 1
 531.854492188 160.7890625 531.81640625 257.928710938 531.83984375 338.91015625 c 1
 498.073242188 338.90625 466.486328125 338.90625 440.109375 338.912109375 c 1xeffe
335.930664062 352.416015625 m 1
 323.024414062 364.583984375 315.97265625 382.3125 315.97265625 401.05078125 c 0
 315.97265625 430.702148438 335.245117188 462.153320312 368.618164062 463.100585938 c 2
 577.10546875 463.100585938 l 2
 583.836914062 464.627929688 588.005859375 465.05078125 593.97265625 465.05078125 c 0
 599.604492188 465.05078125 607.083984375 463.94921875 610.803710938 463.100585938 c 2
 720.97265625 463.100585938 l 2
 755.349609375 463.100585938 773.973632812 430.1484375 773.973632812 401.05078125 c 0
 773.973632812 371.780273438 755.125976562 338.998046875 720.993164062 339 c 2
 656.025390625 338.950195312 l 1
 656.025390625 37.0498046875 l 2
 656.025390625 7.005859375 636.481445312 -23.7841796875 604.264648438 -24.978515625 c 0
 595.220703125 -25.279296875 69.828125 -25 69.02734375 -25 c 0
 34.8681640625 -25.001953125 16.025390625 7.80859375 16.025390625 37.0498046875 c 0
 16.025390625 126.819335938 28.82421875 211.44921875 71.056640625 271.065429688 c 1
 69.46484375 277.006835938 68.625 283.274414062 68.625 289.750976562 c 0
 68.625 463.845703125 211.056640625 605.22265625 386.224609375 605.22265625 c 0
 510.3359375 605.22265625 520.529296875 606.188476562 530.657226562 604.048828125 c 0
 561.568359375 599.469726562 577.224609375 570.046875 577.224609375 542.451171875 c 0
 577.224609375 513.32421875 558.631835938 480.401367188 524.201171875 480.401367188 c 2
 524.201171875 480.401367188 497.751953125 480.426757812 386.225585938 480.426757812 c 0
 311.638671875 480.426757812 254.416015625 428.923828125 221.229492188 351.80078125 c 1
 224.356445312 351.80078125 l 2xf7fe
 227.30078125 351.80078125 238.262695312 352.522460938 244.625976562 352.522460938 c 0
 283.28515625 352.522460938 313.25390625 352.479492188 335.930664062 352.416015625 c 1
370.245117188 413.1015625 m 2
 369.444335938 412.501953125 365.973632812 408.529296875 365.973632812 401.048828125 c 0
 365.973632812 394.34765625 368.759765625 390.118164062 370.033203125 388.983398438 c 0
 378.305664062 388.916015625 463.456054688 388.897460938 556.844726562 388.913085938 c 0xeffe
 570.491210938 388.915039062 581.85546875 377.51171875 581.848632812 363.901367188 c 0
 581.801757812 264.657226562 581.864257812 136.309570312 581.901367188 74.1142578125 c 0
 581.909179688 60.4697265625 570.51171875 49.099609375 556.900390625 49.099609375 c 2
 132.90234375 49.099609375 l 2
 97.73046875 49.099609375 108.392578125 79.4599609375 109.01171875 81.4677734375 c 0
 134.37109375 163.690429688 120.76171875 273.772460938 238.424804688 277.633789062 c 0
 313.498046875 277.600585938 396.725585938 277.5859375 406.55859375 277.681640625 c 0
 407.559570312 278.57421875 410.622070312 282.840820312 410.622070312 289.750976562 c 0
 410.622070312 296.462890625 407.866210938 300.654296875 406.530273438 301.845703125 c 0
 401.485351562 302.037109375 378.713867188 302.522460938 244.622070312 302.522460938 c 0
 238.2265625 302.522460938 232.079101562 302.299804688 226.177734375 301.868164062 c 0
 225.747070312 301.836914062 224.93359375 301.801757812 224.352539062 301.801757812 c 2
 185.500976562 301.801757812 l 2
 150.329101562 301.801757812 160.991210938 332.161132812 161.610351562 334.168945312 c 0
 194.076171875 439.43359375 271.520507812 530.426757812 386.220703125 530.426757812 c 0
 484.879882812 530.426757812 516.810546875 530.407226562 523.1796875 530.40234375 c 0
 524.13671875 531.254882812 527.220703125 535.548828125 527.220703125 542.451171875 c 0
 527.220703125 549.237304688 524.673828125 553.16796875 522.912109375 554.739257812 c 0
 507.73046875 555.03125 480.823242188 555.223632812 386.221679688 555.223632812 c 0
 238.389648438 555.223632812 118.622070312 435.920898438 118.622070312 289.751953125 c 0
 118.622070312 285.474609375 119.774414062 282.022460938 121.045898438 279.874023438 c 0
 125.559570312 272.248046875 125.833984375 259.681640625 118.766601562 251.169921875 c 0
 81.076171875 205.775390625 66.0234375 128.743164062 66.0234375 37.0517578125 c 0
 66.0234375 30.4716796875 68.8095703125 26.2001953125 70.15625 25.001953125 c 0
 95.8876953125 24.9921875 578.002929688 24.8115234375 601.965820312 24.98828125 c 0
 602.956054688 25.87109375 606.0234375 30.14453125 606.0234375 37.052734375 c 2
 606.0234375 363.934570312 l 2
 606.0234375 376.423828125 616.795898438 388.923828125 631.004882812 388.934570312 c 2
 719.83984375 389.001953125 l 2
 720.900390625 389.9453125 723.973632812 394.26953125 723.973632812 401.051757812 c 0
 723.973632812 407.74609375 721.169921875 411.997070312 719.931640625 413.1015625 c 2
 607.520507812 413.1015625 l 2
 605.556640625 413.1015625 602.586914062 413.4765625 600.293945312 414.168945312 c 0
 598.530273438 414.701171875 596.408203125 415.051757812 593.97265625 415.051757812 c 0
 591.536132812 415.051757812 589.3671875 414.698242188 587.557617188 414.155273438 c 0
 585.69140625 413.595703125 582.754882812 413.1015625 580.375 413.1015625 c 2
 370.245117188 413.1015625 l 2
EndSplineSet
EndChar

StartChar: quotesingle
Encoding: 39 39 8
GlifName: quotesingle
Width: 198
GlyphClass: 2
Flags: W
HStem: 675 50.002<74.6474 112.605>
VStem: 24.2539 50<632.717 674.555>
LayerCount: 2
Back
Fore
SplineSet
116.095703125 638.390625 m 2
 115.26953125 641.629882812 114.461914062 644.778320312 113.720703125 647.806640625 c 0
 113.353515625 649.305664062 113.00390625 651.8046875 113.00390625 653.75 c 0
 113.00390625 665.655273438 103.340820312 675 93.00390625 675 c 0
 83.3291015625 675 74.25390625 666.614257812 74.25390625 653.75 c 0
 74.25390625 640.885742188 83.3291015625 632.5 93.00390625 632.5 c 0
 96.3203125 632.5 99.310546875 633.329101562 102.090820312 634.884765625 c 0
 102.963867188 635.373046875 116.095703125 638.390625 116.095703125 638.390625 c 2
24.25390625 653.75 m 0
 24.25390625 690.885742188 52.6767578125 725.001953125 93.001953125 725.001953125 c 0
 132.194335938 725.001953125 160.828125 693.053710938 162.928710938 657.100585938 c 1
 168.274414062 635.904296875 180.546875 604.840820312 170.12890625 574.826171875 c 0
 157.865234375 545.252929688 126.622070312 544.501953125 106.309570312 539.962890625 c 0
 92.58203125 536.89453125 78.134765625 534.43359375 64.9990234375 532.712890625 c 1
 64.9990234375 532.712890625 25.71484375 567.94140625 50.9404296875 580.041992188 c 0
 56.810546875 582.857421875 64.0302734375 586.061523438 67.30078125 587.573242188 c 1
 40.275390625 598.958007812 24.25390625 625.107421875 24.25390625 653.75 c 0
EndSplineSet
EndChar

StartChar: parenleft
Encoding: 40 40 9
GlifName: parenleft
Width: 395
GlyphClass: 2
Flags: W
HStem: -25.1709 50.416<189.808 283.909 332.891 338.656> 49.6289 49.9971<210.318 282.511> 480.978 49.9971<210.312 282.512> 555.801 49.9717<189.808 283.909>
VStem: 17.3105 50.001<162.982 417.62> 99.7822 50<170.996 409.419> 283.911 50<25.3177 49.7765 530.817 555.404>
LayerCount: 2
Back
Fore
SplineSet
279.055664062 555.80078125 m 0
 139.188476562 552.584960938 67.3115234375 441.431640625 67.3115234375 290.301757812 c 0
 67.3115234375 139.171875 139.188476562 28.017578125 279.055664062 24.8017578125 c 0
 280.370117188 25.9736328125 283.911132812 30.884765625 283.911132812 37.576171875 c 0
 283.911132812 44.2724609375 281.110351562 48.51953125 279.866210938 49.62890625 c 0
 149.391601562 50.2734375 99.7822265625 167.295898438 99.7822265625 290.301757812 c 0
 99.7822265625 412.455078125 148.204101562 530.32421875 279.8671875 530.974609375 c 0
 280.831054688 531.833984375 283.911132812 536.123046875 283.911132812 543.026367188 c 0
 283.911132812 549.717773438 280.370117188 554.62890625 279.055664062 555.80078125 c 0
332.890625 555.357421875 m 2
 333.850585938 549.043945312 333.911132812 547.491210938 333.911132812 543.02734375 c 0
 333.911132812 513.900390625 315.30078125 480.977539062 280.911132812 480.977539062 c 0
 190.221679688 480.977539062 149.782226562 405.58203125 149.782226562 290.301757812 c 0
 149.782226562 175.026367188 190.235351562 99.6259765625 280.911132812 99.6259765625 c 0
 315.287109375 99.6259765625 333.911132812 66.6748046875 333.911132812 37.576171875 c 0
 333.911132812 33.4267578125 333.413085938 28.6806640625 332.890625 25.2451171875 c 1
 335.45703125 25.2265625 336.7421875 25.216796875 338.65625 25.201171875 c 2
 338.65625 25.201171875 377.688476562 42.4638671875 377.688476562 0.009765625 c 0
 377.688476562 -45.974609375 305.515625 -25.1708984375 280.91015625 -25.1708984375 c 0
 101.084960938 -25.1708984375 17.310546875 123.256835938 17.310546875 290.30078125 c 0
 17.310546875 457.344726562 101.084960938 605.772460938 280.91015625 605.772460938 c 0
 335.900390625 605.772460938 347.133789062 608.875976562 360.71484375 604.26953125 c 0
 383.798828125 596.440429688 332.890625 555.357421875 332.890625 555.357421875 c 2
EndSplineSet
EndChar

StartChar: parenright
Encoding: 41 41 10
GlifName: parenright
Width: 397
GlyphClass: 2
Flags: W
HStem: -25.1729 50.415<56.9746 63.1094 112.091 206.193> 49.627 49.9961<113.488 185.688> 480.975 49.998<113.489 185.682> 555.801 49.9697<112.091 206.193>
VStem: 62.0889 50<25.1966 49.7842 530.825 555.239> 246.218 50<171.182 409.605> 328.688 50.002<162.981 417.619>
LayerCount: 2
Back
Fore
SplineSet
116.944335938 555.80078125 m 0
 115.629882812 554.62890625 112.088867188 549.716796875 112.088867188 543.025390625 c 0
 112.088867188 536.329101562 114.889648438 532.08203125 116.133789062 530.97265625 c 0
 246.608398438 530.328125 296.217773438 413.305664062 296.217773438 290.299804688 c 0
 296.217773438 168.146484375 247.795898438 50.27734375 116.1328125 49.626953125 c 0
 115.168945312 48.767578125 112.088867188 44.478515625 112.088867188 37.5751953125 c 0
 112.088867188 30.8837890625 115.629882812 25.97265625 116.944335938 24.80078125 c 0
 256.811523438 28.0166015625 328.688476562 139.170898438 328.688476562 290.30078125 c 0
 328.688476562 441.430664062 256.811523438 552.584960938 116.944335938 555.80078125 c 0
63.109375 555.35546875 m 2
 63.109375 555.35546875 18.3125 534.5546875 18.3125 580.58984375 c 0
 18.3125 626.57421875 90.4853515625 605.770507812 115.090820312 605.770507812 c 0
 294.916015625 605.770507812 378.690429688 457.342773438 378.690429688 290.298828125 c 0
 378.690429688 123.254882812 294.916015625 -25.1728515625 115.090820312 -25.1728515625 c 0
 60.1005859375 -25.1728515625 48.8671875 -28.2763671875 35.2861328125 -23.669921875 c 0
 14.0595703125 -16.470703125 56.974609375 25.1962890625 56.974609375 25.1962890625 c 2
 58.8544921875 25.2109375 61.2041015625 25.228515625 63.109375 25.2421875 c 1
 62.1494140625 31.5556640625 62.0888671875 33.109375 62.0888671875 37.5732421875 c 0
 62.0888671875 66.7001953125 80.69921875 99.623046875 115.088867188 99.623046875 c 0
 205.778320312 99.623046875 246.217773438 175.018554688 246.217773438 290.298828125 c 0
 246.217773438 405.57421875 205.764648438 480.974609375 115.088867188 480.974609375 c 0
 80.712890625 480.974609375 62.0888671875 513.92578125 62.0888671875 543.024414062 c 0
 62.0888671875 547.173828125 62.5869140625 551.919921875 63.109375 555.35546875 c 2
EndSplineSet
EndChar

StartChar: asterisk
Encoding: 42 42 11
GlifName: asterisk
Width: 331
GlyphClass: 2
Flags: W
HStem: 582.58 79.6709<20.9087 69.3555 261.674 310.101>
VStem: 125.649 79.6699<477.812 526.262 718.578 766.843>
LayerCount: 2
Back
Fore
SplineSet
205.3203125 735.157226562 m 2
 205.319335938 718.578125 l 1
 214.313476562 727.561523438 214.732421875 728.11328125 218.3125 731.451171875 c 0
 238.383789062 748.814453125 259.904296875 736.66015625 268.415039062 728.971679688 c 0
 277.51171875 720.75390625 294.328125 696.139648438 273.384765625 673.974609375 c 2
 261.661132812 662.250976562 l 1
 274.470703125 662.243164062 274.866210938 662.340820312 280.08984375 662.163085938 c 0
 305.1328125 659.82421875 314.099609375 638.594726562 314.099609375 622.401367188 c 0
 314.099609375 605.288085938 303.169921875 583.290039062 278.255859375 582.580078125 c 2
 261.673828125 582.580078125 l 1
 270.657226562 573.5859375 271.208984375 573.166992188 274.546875 569.586914062 c 0
 291.91015625 549.515625 279.755859375 527.995117188 272.067382812 519.484375 c 0
 263.849609375 510.387695312 239.235351562 493.571289062 217.0703125 514.514648438 c 2
 205.318359375 526.266601562 l 1
 205.318359375 510 l 2
 205.318359375 484.620117188 182.080078125 473.80078125 165.498046875 473.80078125 c 0
 148.76953125 473.80078125 125.677734375 484.724609375 125.677734375 509.991210938 c 2
 125.671875 526.26171875 l 1
 114.176757812 514.767578125 l 2
 95.6513671875 496.239257812 72.4931640625 507.431640625 63.6728515625 514.896484375 c 0
 54.474609375 522.682617188 35.4775390625 548.701171875 57.8544921875 571.072265625 c 2
 69.35546875 582.581054688 l 1
 53.0966796875 582.581054688 l 2
 27.716796875 582.581054688 16.8974609375 605.819335938 16.8974609375 622.401367188 c 0
 16.8974609375 639.129882812 27.8212890625 662.221679688 53.087890625 662.221679688 c 2
 69.3583984375 662.227539062 l 1
 57.8642578125 673.72265625 l 2
 39.3359375 692.248046875 50.5283203125 715.40625 57.9931640625 724.2265625 c 0
 65.779296875 733.424804688 91.7978515625 752.421875 114.168945312 730.044921875 c 2
 125.649414062 718.572265625 l 1
 125.657226562 731.375976562 125.559570312 731.768554688 125.737304688 736.9921875 c 0
 128.076171875 762.034179688 149.305664062 771.000976562 165.499023438 771.000976562 c 0
 182.609375 771.000976562 204.625976562 759.532226562 205.3203125 735.157226562 c 2
EndSplineSet
AlternateSubs2: "'salt' Stylistic Alternatives in Latin lookup 0 subtable" uniE006
EndChar

StartChar: plus
Encoding: 43 43 12
GlifName: plus
Width: 572
GlyphClass: 2
Flags: W
HStem: 44.9551 50.002<274.418 297.435> 246.905 50.002<73.3982 223.948 348.138 498.909> 321.007 49.999<73.396 74.9854 75.036 223.948 348.108 499.997> 522.956 49.999<274.49 297.535>
VStem: 21.9971 50.001<297.448 320.493> 223.948 50<96.0227 246.905 371.065 521.555> 298.134 50.0039<94.9591 246.906 371.094 519.916 519.967 521.556> 499.999 50.001<297.375 320.391>
LayerCount: 2
Back
Fore
SplineSet
497.354492188 246.904296875 m 2
 348.137695312 246.90625 l 1
 348.147460938 165.116210938 348.211914062 102.833007812 347.977539062 95.2021484375 c 0
 346.810546875 63.740234375 314.721679688 44.955078125 285.998046875 44.955078125 c 0
 256.34375 44.955078125 224.91015625 63.701171875 223.948242188 97.6005859375 c 2
 223.948242188 246.905273438 l 1
 74.998046875 246.905273438 l 2
 40.62109375 246.905273438 21.9970703125 279.857421875 21.9970703125 308.955078125 c 0
 21.9970703125 338.225585938 40.83984375 371.0078125 74.9853515625 371.005859375 c 2
 74.9853515625 371.005859375 144.4609375 371.0390625 223.948242188 371.065429688 c 1
 223.948242188 519.955078125 l 2
 223.948242188 554.33203125 256.900390625 572.955078125 285.998046875 572.955078125 c 0
 315.268554688 572.955078125 348.05078125 554.112304688 348.048828125 519.966796875 c 2
 348.048828125 519.966796875 348.08203125 450.524414062 348.108398438 371.09375 c 1
 429.874023438 371.103515625 492.1171875 371.16796875 499.756835938 370.932617188 c 0
 531.2109375 369.766601562 550 337.677734375 550 308.954101562 c 0
 550 279.302734375 530.727539062 247.8515625 497.354492188 246.904296875 c 2
495.725585938 296.90625 m 2
 496.526367188 297.505859375 499.999023438 301.475585938 499.999023438 308.956054688 c 0
 499.999023438 315.657226562 497.212890625 319.885742188 495.938476562 321.021484375 c 0
 487.615234375 321.087890625 409.453125 321.106445312 323.120117188 321.090820312 c 0
 310.600585938 321.088867188 298.119140625 331.880859375 298.115234375 346.083984375 c 0
 298.08984375 431.513671875 298.053710938 508.456054688 298.048828125 518.823242188 c 0
 297.10546875 519.8828125 292.78125 522.956054688 285.999023438 522.956054688 c 0
 279.3046875 522.956054688 275.053710938 520.15234375 273.94921875 518.9140625 c 2
 273.94921875 346.07421875 l 2
 273.94921875 333.563476562 263.161132812 321.078125 248.95703125 321.07421875 c 0
 163.494140625 321.047851562 86.5068359375 321.01171875 76.130859375 321.006835938 c 0
 75.0712890625 320.063476562 71.998046875 315.739257812 71.998046875 308.95703125 c 0
 71.998046875 302.262695312 74.8017578125 298.01171875 76.0400390625 296.907226562 c 2
 248.948242188 296.907226562 l 2
 259.677734375 296.907226562 273.948242188 287.040039062 273.948242188 271.907226562 c 2
 273.948242188 99.2294921875 l 2
 274.547851562 98.4287109375 278.518554688 94.95703125 285.999023438 94.95703125 c 0
 292.700195312 94.95703125 296.928710938 97.7431640625 298.064453125 99.017578125 c 0
 298.130859375 107.345703125 298.149414062 185.543945312 298.133789062 271.90234375 c 0
 298.130859375 285.52734375 309.518554688 296.90625 323.133789062 296.90625 c 2
 495.725585938 296.90625 l 2
EndSplineSet
AlternateSubs2: "'salt' Stylistic Alternatives in Latin lookup 0 subtable" uniE005
EndChar

StartChar: comma
Encoding: 44 44 13
GlifName: comma
Width: 205
GlyphClass: 2
Flags: W
HStem: 67.25 50.002<78.1474 116.105>
VStem: 27.7539 50<24.9667 66.8046>
LayerCount: 2
Back
Fore
SplineSet
119.595703125 30.640625 m 2
 118.76953125 33.8798828125 117.961914062 37.0283203125 117.220703125 40.056640625 c 0
 116.853515625 41.5556640625 116.50390625 44.0546875 116.50390625 46 c 0
 116.50390625 57.9052734375 106.840820312 67.25 96.50390625 67.25 c 0
 86.8291015625 67.25 77.75390625 58.8642578125 77.75390625 46 c 0
 77.75390625 33.1357421875 86.8291015625 24.75 96.50390625 24.75 c 0
 99.8203125 24.75 102.810546875 25.5791015625 105.590820312 27.134765625 c 0
 106.463867188 27.623046875 119.595703125 30.640625 119.595703125 30.640625 c 2
27.75390625 46 m 0
 27.75390625 83.1357421875 56.1767578125 117.251953125 96.501953125 117.251953125 c 0
 135.694335938 117.251953125 164.328125 85.3037109375 166.428710938 49.3505859375 c 1
 171.774414062 28.154296875 184.046875 -2.9091796875 173.62890625 -32.923828125 c 0
 161.365234375 -62.4970703125 130.122070312 -63.248046875 109.809570312 -67.787109375 c 0
 96.08203125 -70.85546875 81.634765625 -73.31640625 68.4990234375 -75.037109375 c 1
 68.4990234375 -75.037109375 29.21484375 -39.80859375 54.4404296875 -27.7080078125 c 0
 60.310546875 -24.892578125 67.5302734375 -21.6884765625 70.80078125 -20.1767578125 c 1
 43.775390625 -8.7919921875 27.75390625 17.357421875 27.75390625 46 c 0
EndSplineSet
EndChar

StartChar: hyphen
Encoding: 45 45 14
GlifName: hyphen
Width: 592
GlyphClass: 2
Flags: W
HStem: 246.904 50<83.4021 508.909> 321.004 50.001<83.399 510.001>
VStem: 32.001 50.001<297.446 320.491> 510.003 49.9971<297.374 320.389>
LayerCount: 2
Back
Fore
SplineSet
507.354492188 246.904296875 m 2
 85.001953125 246.904296875 l 2
 50.625 246.904296875 32.0009765625 279.856445312 32.0009765625 308.954101562 c 0
 32.0009765625 338.224609375 50.84375 371.006835938 84.98828125 371.004882812 c 0
 87.5263671875 371.005859375 497.716796875 371.327148438 510.927734375 370.889648438 c 0
 540.231445312 369.802734375 560 337.665039062 560 308.954101562 c 0
 560 279.302734375 540.727539062 247.8515625 507.354492188 246.904296875 c 2
505.729492188 296.904296875 m 2
 506.530273438 297.50390625 510.002929688 301.473632812 510.002929688 308.954101562 c 0
 510.002929688 315.655273438 507.216796875 319.883789062 505.943359375 321.01953125 c 0
 488.059570312 321.174804688 109.893554688 321.015625 86.134765625 321.00390625 c 0
 85.0751953125 320.060546875 82.001953125 315.736328125 82.001953125 308.954101562 c 0
 82.001953125 302.259765625 84.8056640625 298.008789062 86.0439453125 296.904296875 c 2
 505.729492188 296.904296875 l 2
EndSplineSet
EndChar

StartChar: period
Encoding: 46 46 15
GlifName: period
Width: 196
GlyphClass: 2
Flags: W
HStem: -25.25 50<79.0194 117.13> 67.25 50<79.0194 117.131>
VStem: 28.625 50<25.1955 66.8045> 117.375 50<25.0177 66.9823>
LayerCount: 2
Back
Fore
SplineSet
78.625 46 m 0
 78.625 33.1357421875 87.7001953125 24.75 97.375 24.75 c 0
 107.712890625 24.75 117.375 34.0947265625 117.375 46 c 0
 117.375 57.9052734375 107.711914062 67.25 97.375 67.25 c 0
 87.7001953125 67.25 78.625 58.8642578125 78.625 46 c 0
28.625 46 m 0
 28.625 83.1357421875 57.0498046875 117.25 97.375 117.25 c 0
 137.038085938 117.25 167.375 84.0947265625 167.375 46 c 0
 167.375 7.9052734375 137.037109375 -25.25 97.375 -25.25 c 0
 57.0498046875 -25.25 28.625 8.8642578125 28.625 46 c 0
EndSplineSet
EndChar

StartChar: slash
Encoding: 47 47 16
GlifName: slash
Width: 363
GlyphClass: 2
Flags: W
HStem: -25.001 50<66.7688 93.4619> 592.999 50<269.855 296.387>
LayerCount: 2
Back
Fore
SplineSet
345.602539062 581.661132812 m 2
 138.649414062 19.3642578125 l 2
 128.247070312 -8.9013671875 97.3330078125 -25.0009765625 67.833984375 -25.0009765625 c 0
 61.220703125 -25.0009765625 54.7919921875 -24.12890625 48.6826171875 -22.2646484375 c 0
 24.9658203125 -15.0283203125 7.888671875 10.17578125 17.625 36.626953125 c 0
 17.8701171875 37.2939453125 222.323242188 593.361328125 224.875976562 599.686523438 c 0
 236.139648438 627.654296875 266.072265625 642.999023438 295.288085938 642.999023438 c 0
 302.412109375 642.999023438 309.333984375 642 315.880859375 639.813476562 c 0
 339.20703125 632.022460938 354.188476562 606.938476562 345.602539062 581.661132812 c 2
296.485351562 592.969726562 m 1
 296.485351562 592.969726562 295.853515625 592.999023438 295.287109375 592.999023438 c 0
 282.986328125 592.999023438 272.032226562 583.098632812 271.393554688 581.364257812 c 0
 271.047851562 580.42578125 271.47265625 581.552734375 271.108398438 580.622070312 c 0
 265.469726562 565.7265625 88.34765625 84.0888671875 66.6318359375 25.029296875 c 1
 66.6318359375 25.029296875 67.294921875 24.9990234375 67.8330078125 24.9990234375 c 0
 80.1328125 24.9990234375 91.087890625 34.8994140625 91.7265625 36.6337890625 c 2
 296.485351562 592.969726562 l 1
EndSplineSet
EndChar

StartChar: zero
Encoding: 48 48 17
GlifName: zero
Width: 708
GlyphClass: 2
Flags: W
HStem: -25 50<246.423 461.577> 57.4707 50<261.888 446.112> 477.729 50<261.888 446.112> 560.199 50<246.423 461.577>
VStem: 23.2402 50<189.643 395.556> 101.973 50<211.973 373.226> 556.027 50<211.973 373.226> 634.76 50<189.643 395.556>
LayerCount: 2
Back
Fore
SplineSet
101.97265625 292.599609375 m 0
 101.97265625 419.515625 216.239257812 527.728515625 354 527.728515625 c 0
 491.759765625 527.728515625 606.02734375 419.515625 606.02734375 292.599609375 c 0
 606.02734375 165.682617188 491.760742188 57.470703125 354 57.470703125 c 0
 216.240234375 57.470703125 101.97265625 165.682617188 101.97265625 292.599609375 c 0
151.97265625 292.599609375 m 0
 151.97265625 196.475585938 241.44921875 107.470703125 354 107.470703125 c 0
 466.549804688 107.470703125 556.02734375 196.475585938 556.02734375 292.599609375 c 0
 556.02734375 388.72265625 466.55078125 477.728515625 354 477.728515625 c 0
 241.450195312 477.728515625 151.97265625 388.72265625 151.97265625 292.599609375 c 0
73.240234375 292.599609375 m 0
 73.240234375 145.86328125 198.305664062 25 354 25 c 0
 509.694335938 25 634.759765625 145.86328125 634.759765625 292.599609375 c 0
 634.759765625 439.3359375 509.694335938 560.19921875 354 560.19921875 c 0
 198.305664062 560.19921875 73.240234375 439.3359375 73.240234375 292.599609375 c 0
23.240234375 292.599609375 m 0
 23.240234375 468.86328125 172.575195312 610.19921875 354 610.19921875 c 0
 535.424804688 610.19921875 684.759765625 468.86328125 684.759765625 292.599609375 c 0
 684.759765625 116.3359375 535.424804688 -25 354 -25 c 0
 172.575195312 -25 23.240234375 116.3359375 23.240234375 292.599609375 c 0
EndSplineSet
AlternateSubs2: "'salt' Stylistic Alternatives in Latin lookup 0 subtable" uniE019
EndChar

StartChar: one
Encoding: 49 49 18
GlifName: one
Width: 298
GlyphClass: 2
Flags: W
HStem: -24.9971 49.999<199.884 222.929> 565.002 49.9951<209.498 222.321>
VStem: 149.371 49.999<26.4027 27.9922 28.1506 404.762> 223.471 50.001<26.404 563.91>
LayerCount: 2
Back
Fore
SplineSet
156.604492188 482.795898438 m 2
 190.99609375 517.1875 199.282226562 465.1171875 199.282226562 465.1171875 c 1
 199.259765625 310.5546875 199.362304688 49.482421875 199.370117188 29.134765625 c 0
 200.313476562 28.0751953125 204.638671875 25.001953125 211.420898438 25.001953125 c 0
 218.115234375 25.001953125 222.366210938 27.8056640625 223.470703125 29.0439453125 c 2
 223.470703125 560.729492188 l 2
 222.87109375 561.530273438 218.900390625 565.001953125 211.419921875 565.001953125 c 0
 210.958007812 565.001953125 210.087890625 565.029296875 209.46875 565.078125 c 0
 199.47265625 565.860351562 201.62109375 561.897460938 184.047851562 544.32421875 c 0
 183.872070312 544.1484375 184.086914062 544.359375 183.654296875 543.9375 c 0
 178.72265625 539.0546875 84.4423828125 444.725585938 74.5400390625 434.815429688 c 0
 74.4580078125 433.399414062 75.3427734375 428.168945312 80.138671875 423.373046875 c 0
 84.8740234375 418.637695312 89.861328125 417.614257812 91.517578125 417.708984375 c 2
 156.604492188 482.795898438 l 2
149.279296875 404.76171875 m 1
 126.135742188 381.620117188 l 2
 101.828125 357.3125 65.3583984375 367.4453125 44.7841796875 388.01953125 c 0
 24.0859375 408.716796875 14.228515625 445.21875 38.3779296875 469.366210938 c 0
 38.4814453125 469.469726562 145.456054688 576.502929688 148.846679688 579.834960938 c 0
 153.697265625 584.842773438 173.064453125 617.024414062 212.526367188 614.997070312 c 0
 242.484375 614.353515625 272.525390625 595.678710938 273.471679688 562.358398438 c 2
 273.471679688 28.00390625 l 2
 273.471679688 -6.373046875 240.51953125 -24.9970703125 211.421875 -24.9970703125 c 0
 182.151367188 -24.9970703125 149.369140625 -6.15625 149.37109375 27.9921875 c 2
 149.37109375 27.9921875 149.283203125 245.741210938 149.279296875 404.76171875 c 1
EndSplineSet
EndChar

StartChar: two
Encoding: 50 50 19
GlifName: two
Width: 691
GlyphClass: 2
Flags: W
HStem: -25.292 50<113.476 612.004 612.083 613.683> 50.1982 50<165.891 613.6> 184.828 50<150.954 210.917 210.996 571.055> 260.346 50<99.4796 481.003 481.082 520.894> 478.976 50<77.3992 509.385> 553.771 50<77.3222 78.916 78.9952 525.669>
VStem: 24.4004 50<61.8781 235.607 529.492 552.521> 534.128 50.001<320.726 455.664> 615.001 49.999<26.6533 49.6821 280.371 480.446>
LayerCount: 2
Back
Fore
SplineSet
612.083007812 -23.8759765625 m 2
 612.083007812 -23.8759765625 503.634765625 -24.59765625 342.000976562 -24.59765625 c 0
 311.3515625 -24.59765625 281.49609375 -25.2861328125 253.033203125 -25.2919921875 c 0
 136.509765625 -25.3173828125 24.400390625 -9.947265625 24.400390625 137.874023438 c 0
 24.400390625 316.659179688 139.881835938 310.345703125 211 310.345703125 c 0
 372.6328125 310.345703125 481.08203125 309.624023438 481.08203125 309.624023438 c 2
 515.35546875 309.624023438 534.127929688 333.522460938 534.127929688 393.299804688 c 0
 534.127929688 485.596679688 469.231445312 478.975585938 348.999023438 478.975585938 c 0
 237.479492188 478.975585938 79.0078125 478.950195312 78.9990234375 478.950195312 c 0
 44.623046875 478.950195312 25.9990234375 511.901367188 25.9990234375 541 c 0
 25.9990234375 570.125976562 44.671875 603.049804688 78.916015625 603.049804688 c 2
 78.916015625 603.049804688 187.365234375 603.771484375 348.999023438 603.771484375 c 0
 508.674804688 603.771484375 666.598632812 576.787109375 666.598632812 393.299804688 c 0
 666.598632812 235.56640625 587.0859375 184.828125 480.999023438 184.828125 c 0
 319.366210938 184.828125 210.916992188 185.549804688 210.916992188 185.549804688 c 2
 122.969726562 185.549804688 156.87109375 156.448242188 156.87109375 137.874023438 c 0
 156.87109375 109.989257812 216.576171875 100.198242188 342 100.198242188 c 0
 453.51953125 100.198242188 611.991210938 100.223632812 612 100.223632812 c 0
 646.375976562 100.223632812 665 67.2724609375 665 38.173828125 c 0
 665 9.0478515625 646.47265625 -23.8759765625 612.083007812 -23.8759765625 c 2
610.952148438 26.1181640625 m 0
 611.924804688 26.9853515625 615.000976562 31.2705078125 615.000976562 38.173828125 c 0
 615.000976562 44.869140625 612.197265625 49.1201171875 610.958984375 50.2236328125 c 0
 598.171875 50.2216796875 448.487304688 50.1982421875 342.000976562 50.1982421875 c 0
 245.500976562 50.1982421875 112.639648438 41.125 106.978515625 133.631835938 c 0
 102.920898438 146.451171875 90.0419921875 207.7109375 157 228.573242188 c 0
 171.870117188 233.206054688 189.370117188 235.549804688 211.083007812 235.549804688 c 0
 211.23046875 235.548828125 319.522460938 234.828125 481 234.828125 c 0
 565.913085938 234.828125 616.599609375 258.76953125 616.599609375 393.299804688 c 0
 616.599609375 530.076171875 512.32421875 553.771484375 349 553.771484375 c 0
 196.471679688 553.771484375 91.478515625 553.12890625 80.048828125 553.055664062 c 0
 79.076171875 552.188476562 76 547.903320312 76 541 c 0
 76 534.3046875 78.8037109375 530.053710938 80.0419921875 528.950195312 c 0
 92.8291015625 528.952148438 242.513671875 528.975585938 349 528.975585938 c 0
 451.806640625 528.975585938 584.12890625 538.797851562 584.12890625 393.299804688 c 0
 584.12890625 325.282226562 555.682617188 259.624023438 480.916992188 259.624023438 c 0
 480.76953125 259.625 372.477539062 260.345703125 211 260.345703125 c 0
 135.118164062 260.345703125 74.400390625 277.352539062 74.400390625 137.874023438 c 0
 74.400390625 33.4033203125 133.44921875 24.681640625 253.022460938 24.7080078125 c 0
 280.681640625 24.7138671875 310.6171875 25.40234375 342.000976562 25.40234375 c 0
 494.529296875 25.40234375 599.522460938 26.044921875 610.952148438 26.1181640625 c 0
EndSplineSet
EndChar

StartChar: three
Encoding: 51 51 20
GlifName: three
Width: 768
GlyphClass: 2
Flags: W
HStem: -25.1709 50<157.352 158.945 159.025 530.799> 49.625 50<157.43 159.031 159.147 508.252> 228.062 49.8721<71.3751 469.932> 302.051 49.999<72.4645 470.014> 480.977 50<157.428 508.252> 555.772 50<157.344 158.944 159.024 530.799>
VStem: 21.373 50<278.565 301.58> 106.027 50<26.0894 49.1186 531.493 554.522> 471.373 50<278.578 301.608> 614.156 49.999<202.864 377.737> 696.627 50<188.164 392.438>
LayerCount: 2
Back
Fore
SplineSet
74.0185546875 352.049804688 m 2
 468.373046875 352.05078125 l 2
 503.645507812 352.05078125 521.373046875 317.399414062 521.373046875 289.000976562 c 0
 521.373046875 259.041992188 501.584960938 227.948242188 468.385742188 227.950195312 c 0
 465.970703125 227.94921875 83.4560546875 227.634765625 70.521484375 228.061523438 c 0
 41.078125 229.153320312 21.373046875 261.288085938 21.373046875 290 c 0
 21.373046875 319.651367188 40.6455078125 351.102539062 74.0185546875 352.049804688 c 2
75.6455078125 302.05078125 m 2
 74.8447265625 301.451171875 71.373046875 297.48046875 71.373046875 290 c 0
 71.373046875 283.297851562 74.158203125 279.0703125 75.43359375 277.93359375 c 0
 93.466796875 277.778320312 447.1875 277.939453125 467.607421875 277.950195312 c 0
 468.408203125 278.607421875 471.373046875 282.134765625 471.373046875 289.000976562 c 0
 471.373046875 295.612304688 468.5625 300.5234375 466.9765625 302.05078125 c 2
 75.6455078125 302.05078125 l 2
158.944335938 605.05078125 m 2
 158.944335938 605.05078125 267.393554688 605.772460938 429.02734375 605.772460938 c 0
 604.1953125 605.772460938 746.626953125 464.395507812 746.626953125 290.30078125 c 0
 746.626953125 116.206054688 604.1953125 -25.1708984375 429.02734375 -25.1708984375 c 0
 267.39453125 -25.1708984375 158.9453125 -24.44921875 158.9453125 -24.44921875 c 2
 124.720703125 -24.44921875 106.02734375 8.5029296875 106.02734375 37.6005859375 c 0
 106.02734375 66.7275390625 124.634765625 99.650390625 159.03125 99.650390625 c 2
 159.03125 99.650390625 317.509765625 99.625 429.02734375 99.625 c 0
 526.252929688 99.625 614.15625 185.116210938 614.15625 290.30078125 c 0
 614.15625 395.485351562 526.252929688 480.9765625 429.02734375 480.9765625 c 0
 317.5078125 480.9765625 159.036132812 480.951171875 159.02734375 480.951171875 c 0
 124.651367188 480.951171875 106.02734375 513.90234375 106.02734375 543.000976562 c 0
 106.02734375 572.126953125 124.5546875 605.05078125 158.944335938 605.05078125 c 2
160.076171875 555.056640625 m 0
 159.103515625 554.189453125 156.026367188 549.904296875 156.026367188 543.000976562 c 0
 156.026367188 536.305664062 158.830078125 532.0546875 160.068359375 530.951171875 c 0
 172.85546875 530.953125 322.540039062 530.9765625 429.026367188 530.9765625 c 0
 554.83984375 530.9765625 664.155273438 422.911132812 664.155273438 290.30078125 c 0
 664.155273438 157.690429688 554.83984375 49.625 429.026367188 49.625 c 0
 322.849609375 49.625 174.220703125 49.6484375 160.068359375 49.650390625 c 0
 159.110351562 48.7958984375 156.02734375 44.5029296875 156.02734375 37.6005859375 c 0
 156.02734375 30.9033203125 158.82421875 26.6611328125 160.076171875 25.5439453125 c 0
 170.512695312 25.4775390625 275.986328125 24.8291015625 429.02734375 24.8291015625 c 0
 576.859375 24.8291015625 696.626953125 144.131835938 696.626953125 290.30078125 c 0
 696.626953125 436.469726562 576.859375 555.772460938 429.02734375 555.772460938 c 0
 276.499023438 555.772460938 171.505859375 555.129882812 160.076171875 555.056640625 c 0
EndSplineSet
EndChar

StartChar: four
Encoding: 52 52 21
GlifName: four
Width: 645
GlyphClass: 2
Flags: W
HStem: -25.001 50.002<441.727 464.771> 214.228 50.002<69.3155 352.478 352.975 391.15 515.314 574.337 574.354 575.944> 289.025 50.6279<206.812 354.32 354.325 354.38 354.385 391.128 515.34 575.94> 490.379 49.9961<315.313 391.147> 565.198 49.9482<299.408 463.236>
VStem: 391.214 49.998<26.3979 27.9873 28.046 214.14 339.039 490.777> 465.338 50.002<26.4001 214.176 338.329 560.651> 577.338 50.002<264.742 287.787>
LayerCount: 2
Back
Fore
SplineSet
465.337890625 553.938476562 m 1
 458.689453125 558.077148438 429.831054688 568.525390625 355.456054688 565.198242188 c 0
 285.091796875 562.049804688 197.219726562 453.444335938 92.35546875 300.560546875 c 0
 81.8642578125 285.264648438 72.984375 272.373046875 69.3154296875 264.279296875 c 1
 69.3154296875 264.279296875 69.3818359375 264.254882812 70.2978515625 264.00390625 c 0
 216.3828125 263.420898438 263.779296875 264.229492188 354.337890625 264.229492188 c 0
 355.337890625 264.229492188 351.521484375 264.25 352.521484375 264.243164062 c 0
 362.018554688 264.12890625 382.29296875 264.13671875 416.14453125 264.13671875 c 0
 428.658203125 264.13671875 441.140625 253.346679688 441.143554688 239.142578125 c 0
 441.168945312 128.7890625 441.20703125 40.5810546875 441.211914062 29.1337890625 c 0
 442.155273438 28.07421875 446.479492188 25.0009765625 453.26171875 25.0009765625 c 0
 459.956054688 25.0009765625 464.20703125 27.8046875 465.311523438 29.04296875 c 2
 465.311523438 239.161132812 l 2
 465.311523438 251.661132812 476.091796875 264.153320312 490.298828125 264.161132812 c 0
 535.912109375 264.185546875 567.026367188 264.220703125 573.204101562 264.227539062 c 0
 574.265625 265.171875 577.337890625 269.495117188 577.337890625 276.278320312 c 0
 577.337890625 282.97265625 574.534179688 287.223632812 573.295898438 288.328125 c 2
 490.337890625 288.328125 l 2
 479.608398438 288.328125 465.337890625 298.1953125 465.337890625 313.328125 c 2
 465.337890625 553.938476562 l 1
515.338867188 555.935546875 m 2
 515.33984375 338.329101562 l 1
 574.33984375 338.329101562 l 2
 608.716796875 338.329101562 627.33984375 305.376953125 627.33984375 276.279296875 c 0
 627.33984375 247.008789062 608.495117188 214.2265625 574.354492188 214.228515625 c 2
 574.354492188 214.228515625 550.831054688 214.200195312 515.314453125 214.17578125 c 1
 515.314453125 28 l 2
 515.314453125 -6.376953125 482.362304688 -25.0009765625 453.264648438 -25.0009765625 c 0
 423.994140625 -25.0009765625 391.211914062 -6.1591796875 391.213867188 27.9873046875 c 2
 391.213867188 27.9873046875 391.177734375 108.388671875 391.150390625 214.139648438 c 1
 368.795898438 214.150390625 356.444335938 214.162109375 353.823242188 214.227539062 c 0
 262.072265625 214.221679688 217.696289062 213.399414062 67.1611328125 214.014648438 c 0
 65.4248046875 214.021484375 63.1552734375 214.31640625 61.828125 214.612304688 c 0
 52.6328125 216.66015625 44.291015625 219.547851562 36.69140625 224.681640625 c 0
 -9.89453125 256.15234375 37.6181640625 309.153320312 51.1220703125 328.840820312 c 0
 152.177734375 476.171875 244.217773438 610.26953125 353.220703125 615.146484375 c 0
 379.079101562 616.303710938 400.477539062 616.071289062 418.369140625 614.81640625 c 0
 493.959960938 609.513671875 517.147460938 580.891601562 515.338867188 555.935546875 c 2
416.102539062 540.916015625 m 0
 429.868164062 540.94921875 441.174804688 529.479492188 441.1640625 515.895507812 c 0
 441.12890625 471.982421875 441.119140625 394.0703125 441.131835938 314.047851562 c 0
 441.133789062 300.4296875 429.751953125 289.045898438 416.134765625 289.043945312 c 0
 360.754882812 289.036132812 354.379882812 289.025390625 354.379882812 289.025390625 c 2
 247.034179688 289.025390625 141.150390625 269.080078125 143.094726562 326.266601562 c 0
 143.389648438 334.950195312 146.818359375 340.791015625 149.58984375 344.834960938 c 0
 244.134765625 482.772460938 293.5078125 539.572265625 354.008789062 540.375 c 0
 380.541992188 540.7265625 400.7421875 540.87890625 416.102539062 540.916015625 c 0
391.147460938 490.77734375 m 1
 378.548828125 490.671875 368.728515625 490.565429688 354.670898438 490.37890625 c 0
 332.197265625 490.081054688 293.298828125 463.096679688 206.8125 339.653320312 c 1
 234.991210938 338.301757812 283.776367188 339.024414062 354.3203125 339.024414062 c 2
 354.3203125 339.024414062 360.098632812 339.032226562 391.127929688 339.0390625 c 1
 391.122070312 396.493164062 391.12890625 451.399414062 391.147460938 490.77734375 c 1
EndSplineSet
AlternateSubs2: "'salt' Stylistic Alternatives in Latin lookup 0 subtable" uniE012
EndChar

StartChar: five
Encoding: 53 53 22
GlifName: five
Width: 690
GlyphClass: 2
Flags: W
HStem: -25.291 50<76.827 78.4199 78.4991 525.173> 49.5303 50<76.9051 78.5059 78.6211 509.162> 268.856 50.001<98.2846 480.505 480.584 520.397> 343.652 50<152.862 210.419 210.498 570.557> 478.283 49.999<165.056 611.383 611.498 613.099> 553.079 49.998<127.072 613.176>
VStem: 25.502 50<25.9693 48.9985 340.602 518.317> 102.001 50.0029<397.244 460.872> 533.63 50.001<121.714 257.755> 616.102 50<98.0341 294.286 528.789 551.818>
LayerCount: 2
Back
Fore
SplineSet
611.583007812 602.35546875 m 0
 645.807617188 602.35546875 664.501953125 569.405273438 664.501953125 540.307617188 c 0
 664.501953125 511.180664062 645.89453125 478.2578125 611.498046875 478.2578125 c 2
 611.498046875 478.2578125 453.01953125 478.283203125 341.501953125 478.283203125 c 0
 216.099609375 478.283203125 156.373046875 468.483398438 156.373046875 440.607421875 c 0
 156.373046875 421.21484375 152.189453125 429.352539062 152.00390625 418.001953125 c 0
 151.911132812 412.34765625 146.997070312 392.930664062 210.418945312 392.930664062 c 2
 210.418945312 392.930664062 318.868164062 393.65234375 480.501953125 393.65234375 c 0
 586.586914062 393.65234375 666.1015625 342.916992188 666.1015625 185.180664062 c 0
 666.1015625 1.70703125 508.171875 -25.291015625 348.501953125 -25.291015625 c 0
 186.869140625 -25.291015625 78.419921875 -24.5693359375 78.419921875 -24.5693359375 c 2
 44.1953125 -24.5693359375 25.501953125 8.3828125 25.501953125 37.48046875 c 0
 25.501953125 66.607421875 44.109375 99.5302734375 78.505859375 99.5302734375 c 2
 78.505859375 99.5302734375 236.984375 99.5048828125 348.501953125 99.5048828125 c 0
 362.044921875 99.5048828125 375.26171875 99.3857421875 387.986328125 99.3828125 c 0
 485.405273438 99.3623046875 533.629882812 103.568359375 533.629882812 185.180664062 c 0
 533.629882812 244.95703125 514.854492188 268.856445312 480.583984375 268.856445312 c 2
 480.583984375 268.856445312 372.134765625 268.134765625 210.500976562 268.134765625 c 0
 201.560546875 268.134765625 192.05078125 267.94921875 182.205078125 267.944335938 c 0
 111.032226562 267.908203125 23.900390625 286.524414062 23.900390625 440.60546875 c 0
 23.900390625 624.438476562 190.865234375 603.077148438 341.5 603.077148438 c 0
 503.07421875 603.077148438 611.54296875 602.35546875 611.583007812 602.35546875 c 0
610.452148438 552.36328125 m 0
 600.015625 552.4296875 494.54296875 553.079101562 341.501953125 553.079101562 c 0
 169.13671875 553.079101562 73.90234375 569.038085938 73.90234375 440.607421875 c 0
 73.90234375 316.575195312 121.317382812 317.9140625 182.181640625 317.9453125 c 0
 191.397460938 317.950195312 200.897460938 318.135742188 210.501953125 318.135742188 c 0
 371.983398438 318.135742188 480.265625 318.856445312 480.418945312 318.857421875 c 0
 555.1875 318.857421875 583.630859375 253.200195312 583.630859375 185.181640625 c 0
 583.630859375 57.5625 479.170898438 49.365234375 387.9765625 49.3837890625 c 0
 374.952148438 49.38671875 361.75 49.5048828125 348.500976562 49.5048828125 c 0
 242.32421875 49.5048828125 93.6953125 49.5283203125 79.54296875 49.5302734375 c 0
 78.5849609375 48.67578125 75.501953125 44.3828125 75.501953125 37.48046875 c 0
 75.501953125 30.783203125 78.298828125 26.541015625 79.55078125 25.423828125 c 0
 89.9873046875 25.357421875 195.4609375 24.708984375 348.501953125 24.708984375 c 0
 511.83203125 24.708984375 616.1015625 48.390625 616.1015625 185.180664062 c 0
 616.1015625 319.708007812 565.416992188 343.65234375 480.501953125 343.65234375 c 0
 319.020507812 343.65234375 210.73828125 342.931640625 210.584960938 342.930664062 c 0
 131.870117188 342.930664062 101.805664062 380.83203125 102.000976562 417.951171875 c 0
 102.064453125 430.005859375 104.602539062 438.916015625 106.48046875 444.848632812 c 0
 112.090820312 536.534179688 243.93359375 528.282226562 341.501953125 528.282226562 c 0
 447.678710938 528.282226562 596.307617188 528.258789062 610.459960938 528.256835938 c 0
 611.41796875 529.111328125 614.500976562 533.404296875 614.500976562 540.306640625 c 0
 614.500976562 547.00390625 611.704101562 551.24609375 610.452148438 552.36328125 c 0
EndSplineSet
EndChar

StartChar: six
Encoding: 54 54 23
GlifName: six
Width: 692
GlyphClass: 2
Flags: W
HStem: -25 50.3213<172.573 522.025> 49.7969 50.002<208.275 486.742> 226.744 49.998<158.916 502.409 502.457 538.945> 301.777 50.001<156.86 595.845> 478.573 50<203.279 611.882 611.997 613.598> 553.369 50<171.23 612.004>
VStem: 27.001 49.999<100.758 286.693 289.744 481.197> 109.501 49.9736<140.398 223.167 383.234 442.01> 535.133 49.9717<137.307 224.629> 617.604 49.9951<100.757 280.819 529.08 552.109>
LayerCount: 2
Back
Fore
SplineSet
263.850585938 -22.0302734375 m 0
 135.2109375 -12.1259765625 27.0009765625 34.55859375 27.0009765625 184.47265625 c 0
 27.0009765625 227.948242188 33.630859375 262.041992188 45.2626953125 286.599609375 c 1
 31.23828125 313.0390625 24.4013671875 347.619140625 24.4013671875 393.897460938 c 0
 24.4013671875 573.44921875 182.073242188 603.369140625 342.000976562 603.369140625 c 0
 503.633789062 603.369140625 612.083007812 602.647460938 612.083007812 602.647460938 c 2
 646.307617188 602.647460938 665.000976562 569.6953125 665.000976562 540.59765625 c 0
 665.000976562 511.470703125 646.393554688 478.547851562 611.997070312 478.547851562 c 2
 611.997070312 478.547851562 453.518554688 478.573242188 342.000976562 478.573242188 c 0
 226.772460938 478.573242188 156.872070312 452.821289062 156.872070312 393.897460938 c 0
 156.872070312 381.704101562 155.915039062 388.1640625 155.259765625 383 c 0
 154.170898438 374.416992188 149.2109375 357.467773438 191.58984375 352.249023438 c 0
 200.978515625 352.071289062 206.284179688 351.944335938 213.599609375 351.944335938 c 0
 263.838867188 351.944335938 309.10546875 351.874023438 347.298828125 351.778320312 c 0
 385.490234375 351.874023438 430.760742188 351.944335938 480.999023438 351.944335938 c 0
 493.055664062 351.944335938 506.2109375 352.442382812 519.884765625 352.444335938 c 0
 589.075195312 352.453125 667.598632812 329.852539062 667.598632812 184.47265625 c 0
 667.598632812 34.5595703125 559.38671875 -12.1259765625 430.748046875 -22.0302734375 c 0
 418.202148438 -24.6640625 402.419921875 -24.9931640625 351.048828125 -25 c 2
 343.547851562 -25 l 2
 293.231445312 -24.9931640625 274.892578125 -24.34765625 263.850585938 -22.0302734375 c 0
385.940429688 25.3212890625 m 0
 529.172851562 30.2197265625 617.603515625 62.138671875 617.603515625 184.471679688 c 0
 617.603515625 302.34765625 575.572265625 302.450195312 519.896484375 302.443359375 c 0
 507.478515625 302.44140625 494.354492188 301.943359375 481.00390625 301.943359375 c 0
 430.728515625 301.943359375 385.750976562 301.873046875 347.303710938 301.77734375 c 0
 308.858398438 301.873046875 263.876953125 301.943359375 213.602539062 301.943359375 c 0
 205.439453125 301.943359375 197.3671875 302.134765625 189.481445312 302.278320312 c 0
 188.934570312 302.288085938 187.9140625 302.344726562 187.185546875 302.42578125 c 0
 112.896484375 310.651367188 102.658203125 364.052734375 105.571289062 388.590820312 c 0
 105.969726562 391.94921875 106.448242188 394.483398438 106.8984375 396.630859375 c 0
 109.408203125 506.671875 234.21875 528.573242188 342 528.573242188 c 0
 448.176757812 528.573242188 596.805664062 528.549804688 610.958007812 528.547851562 c 0
 611.916015625 529.40234375 614.999023438 533.6953125 614.999023438 540.59765625 c 0
 614.999023438 547.294921875 612.202148438 551.537109375 610.950195312 552.654296875 c 0
 600.513671875 552.720703125 495.040039062 553.369140625 341.999023438 553.369140625 c 0
 178.926757812 553.369140625 74.3994140625 526.609375 74.3994140625 393.897460938 c 0
 74.3994140625 344.4140625 83.6513671875 316.848632812 94.439453125 301.9453125 c 0
 100.190429688 294.000976562 100.80859375 282.397460938 95.171875 273.6953125 c 0
 85.2197265625 258.330078125 77 231.021484375 77 184.471679688 c 0
 77 62.142578125 165.428710938 30.2197265625 308.66015625 25.3212890625 c 0
 317.8828125 25.3046875 330.326171875 25.0029296875 343.5546875 25.0009765625 c 2
 351.049804688 25.0009765625 l 2
 364.270507812 25.0029296875 376.719726562 25.3046875 385.940429688 25.3212890625 c 0
480.64453125 276.790039062 m 0
 561.783203125 275.991210938 587.391601562 231.311523438 587.029296875 198.893554688 c 0
 586.944335938 191.30859375 585.946289062 185.768554688 585.104492188 181.732421875 c 0
 582.61328125 72.8232421875 460.18359375 50.2763671875 353.505859375 49.802734375 c 0
 351.3828125 49.802734375 349.4296875 49.796875 347.302734375 49.796875 c 0
 345.17578125 49.796875 343.22265625 49.802734375 341.099609375 49.802734375 c 0
 235.376953125 50.2724609375 112.016601562 71.751953125 109.500976562 181.733398438 c 0
 106.444335938 196.2421875 101.821289062 266.89453125 191.375976562 276.086914062 c 0
 191.868164062 276.137695312 192.793945312 276.201171875 193.45703125 276.213867188 c 0
 199.232421875 276.323242188 205.092773438 276.424804688 211.00390625 276.424804688 c 0
 278.559570312 276.424804688 336.540039062 276.575195312 381.588867188 276.7421875 c 0
 424.669921875 276.612304688 465.66015625 276.837890625 480.64453125 276.790039062 c 0
502.45703125 226.366210938 m 2
 502.45703125 226.366210938 436.479492188 226.578125 381.603515625 226.744140625 c 0
 336.900390625 226.579101562 278.51953125 226.426757812 211.002929688 226.426757812 c 0
 206.029296875 226.426757812 200.677734375 226.340820312 195.477539062 226.24609375 c 0
 141 219.998046875 159.474609375 198.428710938 159.474609375 184.47265625 c 0
 159.474609375 126.166015625 227.735351562 100.30859375 341.211914062 99.8046875 c 0
 343.188476562 99.8046875 345.333007812 99.798828125 347.303710938 99.798828125 c 0
 349.274414062 99.798828125 351.418945312 99.8046875 353.395507812 99.8046875 c 0
 466.872070312 100.30859375 535.1328125 126.165039062 535.1328125 184.471679688 c 0
 535.1328125 197.583984375 536.649414062 191.022460938 536.99609375 198.205078125 c 0
 537.359375 205.723632812 554.782226562 223.916992188 502.45703125 226.366210938 c 2
EndSplineSet
EndChar

StartChar: seven
Encoding: 55 55 24
GlifName: seven
Width: 686
GlyphClass: 2
Flags: W
HStem: -25 50.001<580.981 604.714> 480.976 50<74.0994 424.925> 555.771 50<74.0224 75.6162 75.6954 446.773>
VStem: 22.6992 50.001<531.492 554.521> 530.828 50.001<26.2542 377.051> 604.572 49.9756<25.9797 237.386> 613.271 50.0137<80.0312 381.541>
LayerCount: 2
Back
Fore
SplineSet
530.450195312 27.8486328125 m 0xfc
 530.525390625 37.6298828125 530.828125 174.647460938 530.828125 290.299804688 c 0
 530.828125 395.484375 442.924804688 480.975585938 345.69921875 480.975585938 c 0
 234.1796875 480.975585938 75.7080078125 480.950195312 75.69921875 480.950195312 c 0
 41.3232421875 480.950195312 22.69921875 513.901367188 22.69921875 543 c 0
 22.69921875 572.125976562 41.3720703125 605.049804688 75.6162109375 605.049804688 c 2
 75.6162109375 605.049804688 184.065429688 605.771484375 345.69921875 605.771484375 c 0
 521.9375 605.771484375 652.025390625 463.009765625 663.245117188 291.935546875 c 0
 663.296875 291.150390625 663.3046875 290.0546875 663.28515625 289.466796875 c 2xfa
 654.547851562 27.5419921875 l 2
 654.436523438 -6.015625 621.66015625 -25 592.499023438 -25 c 0
 563.309570312 -25 530.563476562 -6.4111328125 530.450195312 27.8486328125 c 0xfc
580.459960938 29.0546875 m 0
 581.352539062 28.0537109375 585.59765625 25.0009765625 592.5 25.0009765625 c 0
 599.208007812 25.0009765625 603.3671875 27.740234375 604.572265625 29.091796875 c 2xfc
 613.271484375 289.877929688 l 1
 602.802734375 437.325195312 492.473632812 555.771484375 345.700195312 555.771484375 c 0
 193.171875 555.771484375 88.1787109375 555.12890625 76.7490234375 555.055664062 c 0
 75.7763671875 554.188476562 72.7001953125 549.903320312 72.7001953125 543 c 0
 72.7001953125 536.3046875 75.50390625 532.053710938 76.7421875 530.950195312 c 0
 89.529296875 530.952148438 239.213867188 530.975585938 345.700195312 530.975585938 c 0
 471.513671875 530.975585938 580.829101562 422.91015625 580.829101562 290.299804688 c 0
 580.829101562 177.672851562 580.53515625 43.294921875 580.459960938 29.0546875 c 0
EndSplineSet
EndChar

StartChar: eight
Encoding: 56 56 25
GlifName: eight
Width: 693
GlyphClass: 2
Flags: W
HStem: -25.0029 49.999<178.022 523.701> 49.7979 49.999<205.942 487.457> 226.623 50.002<156.386 537.331> 301.771 50.001<155.465 536.811> 478.568 50<205.539 487.055> 553.367 50.001<178.022 514.973>
VStem: 24.8975 50.001<104.887 284.949 293.615 473.476> 107.399 49.9707<140.449 223.052 382.985 441.004> 535.626 49.9717<137.361 195.382 355.359 437.916> 618.097 50.001<100.529 284.749 293.415 473.478>
LayerCount: 2
Back
Fore
SplineSet
502.231445312 276.154296875 m 0
 502.747070312 276.14453125 503.712890625 276.090820312 504.401367188 276.017578125 c 0
 578.61328125 268.118164062 589.803710938 215.478515625 587 190.380859375 c 0
 586.594726562 186.75 586.0625 183.923828125 585.6015625 181.733398438 c 0
 583.109375 72.978515625 461.009765625 50.34375 354.485351562 49.8046875 c 0
 351.748046875 49.8046875 349.220703125 49.7978515625 346.500976562 49.7978515625 c 0
 343.78125 49.7978515625 341.25390625 49.8046875 338.516601562 49.8046875 c 0
 232.946289062 50.33984375 109.916992188 71.904296875 107.399414062 181.734375 c 0
 104.34765625 196.241210938 99.720703125 266.557617188 188.598632812 276.017578125 c 0
 189.111328125 276.072265625 190.076171875 276.140625 190.768554688 276.154296875 c 0
 197.5703125 276.284179688 204.5 276.42578125 211.5 276.42578125 c 0
 262.392578125 276.42578125 307.783203125 276.51171875 346.5 276.625 c 0
 385.215820312 276.51171875 430.608398438 276.42578125 481.5 276.42578125 c 0
 488.5 276.42578125 495.4296875 276.284179688 502.231445312 276.154296875 c 0
500.15234375 226.18359375 m 0
 491.915039062 226.340820312 487.780273438 226.423828125 481.498046875 226.423828125 c 0
 430.647460938 226.423828125 384.915039062 226.509765625 346.498046875 226.623046875 c 0
 308.083007812 226.509765625 262.348632812 226.423828125 211.499023438 226.423828125 c 0
 205.565429688 226.423828125 199.083984375 226.301757812 192.846679688 226.182617188 c 0
 139.096679688 219.805664062 157.370117188 198.44921875 157.370117188 184.46875 c 0
 157.370117188 126.249023438 225.399414062 100.376953125 338.640625 99.8037109375 c 0
 341.184570312 99.8037109375 343.938476562 99.796875 346.5 99.796875 c 0
 349.061523438 99.796875 351.815429688 99.8037109375 354.359375 99.8037109375 c 0
 467.592773438 100.376953125 535.62890625 126.255859375 535.62890625 184.469726562 c 0
 535.62890625 196.787109375 536.630859375 190.262695312 537.274414062 195.625 c 0
 538.294921875 204.134765625 543.21875 221.07421875 500.15234375 226.18359375 c 0
322.168945312 553.361328125 m 0
 172.190429688 548.2734375 74.8984375 516.298828125 74.8984375 393.895507812 c 0
 74.8984375 345.901367188 83.6181640625 318.44921875 93.984375 303.30078125 c 0
 99.5048828125 295.233398438 99.8388671875 283.619140625 93.984375 275.063476562 c 0
 83.6240234375 259.922851562 74.8984375 232.450195312 74.8984375 184.46875 c 0
 74.8984375 62.064453125 172.190429688 30.08984375 322.168945312 25.001953125 c 0
 330.431640625 24.986328125 328.178710938 25 340.931640625 24.9970703125 c 0
 341.474609375 24.9970703125 342.0078125 24.99609375 342.497070312 24.99609375 c 2
 350.497070312 24.99609375 l 2
 350.989257812 24.99609375 351.513671875 24.9970703125 352.067382812 24.9970703125 c 0
 367.986328125 25 371.302734375 25.56640625 388.526367188 25.6015625 c 0
 530.83203125 30.4296875 618.096679688 62.064453125 618.096679688 184.467773438 c 0
 618.096679688 232.461914062 609.376953125 259.9140625 599.010742188 275.0625 c 0
 593.490234375 283.129882812 593.15625 294.744140625 599.010742188 303.299804688 c 0
 609.37109375 318.440429688 618.096679688 345.913085938 618.096679688 393.89453125 c 0
 618.096679688 516.298828125 520.8046875 548.2734375 370.826171875 553.361328125 c 0
 362.563476562 553.376953125 364.81640625 553.36328125 352.063476562 553.366210938 c 0
 351.520507812 553.366210938 350.987304688 553.3671875 350.498046875 553.3671875 c 2
 342.498046875 553.3671875 l 2
 342.005859375 553.3671875 341.481445312 553.366210938 340.927734375 553.366210938 c 0
 328.185546875 553.36328125 330.428710938 553.376953125 322.168945312 553.361328125 c 0
266.155273438 -22.376953125 m 0
 136.502929688 -12.810546875 24.8974609375 33.59765625 24.8974609375 184.46875 c 0
 24.8974609375 229.426757812 32.05078125 264.522460938 44.423828125 289.181640625 c 1
 31.28515625 315.366210938 24.896484375 349.098632812 24.896484375 393.895507812 c 0
 24.896484375 544.76171875 136.502929688 591.17578125 266.154296875 600.7421875 c 0
 278.86328125 603.596679688 291.583984375 603.357421875 340.926757812 603.3671875 c 0
 341.41796875 603.3671875 341.942382812 603.368164062 342.497070312 603.368164062 c 2
 350.497070312 603.368164062 l 2
 351.0546875 603.368164062 351.5703125 603.3671875 352.072265625 603.3671875 c 0
 400.892578125 603.357421875 414.865234375 603.431640625 426.83984375 600.7421875 c 0
 556.4921875 591.17578125 668.096679688 544.767578125 668.096679688 393.896484375 c 0
 668.096679688 348.938476562 660.943359375 313.842773438 648.5703125 289.18359375 c 1
 661.708984375 262.999023438 668.09765625 229.266601562 668.09765625 184.469726562 c 0
 668.09765625 33.603515625 556.491210938 -12.810546875 426.83984375 -22.376953125 c 0
 414.130859375 -25.2314453125 401.411132812 -24.9921875 352.068359375 -25.001953125 c 0
 351.577148438 -25.001953125 351.052734375 -25.0029296875 350.498046875 -25.0029296875 c 2
 342.498046875 -25.0029296875 l 2
 341.940429688 -25.0029296875 341.424804688 -25.001953125 340.922851562 -25.001953125 c 0
 292.102539062 -24.9921875 278.129882812 -25.06640625 266.155273438 -22.376953125 c 0
346.49609375 301.770507812 m 0
 307.899414062 301.869140625 262.297851562 301.94140625 211.495117188 301.94140625 c 0
 204.403320312 301.94140625 197.3828125 302.086914062 190.493164062 302.21875 c 0
 189.973632812 302.228515625 189.000976562 302.282226562 188.307617188 302.356445312 c 0
 114.274414062 310.288085938 103.201171875 362.97265625 105.998046875 387.991210938 c 0
 106.403320312 391.618164062 106.934570312 394.438476562 107.39453125 396.627929688 c 0
 109.887695312 505.389648438 231.987304688 528.021484375 338.51171875 528.561523438 c 0
 341.249023438 528.561523438 343.776367188 528.568359375 346.49609375 528.568359375 c 0
 349.215820312 528.568359375 351.743164062 528.561523438 354.48046875 528.561523438 c 0
 460.05078125 528.026367188 583.080078125 506.465820312 585.59765625 396.627929688 c 0
 588.629882812 382.196289062 593.338867188 311.854492188 504.684570312 302.356445312 c 0
 504.166992188 302.30078125 503.1953125 302.231445312 502.498046875 302.217773438 c 0
 495.608398438 302.0859375 488.587890625 301.940429688 481.49609375 301.940429688 c 0
 430.650390625 301.940429688 385.223632812 301.869140625 346.49609375 301.770507812 c 0
346.495117188 351.771484375 m 0
 384.962890625 351.870117188 430.69140625 351.942382812 481.498046875 351.942382812 c 0
 487.51171875 351.942382812 494.0703125 352.067382812 500.409179688 352.188476562 c 0
 553.7890625 358.561523438 535.625976562 379.879882812 535.625976562 393.896484375 c 0
 535.625976562 452.116210938 467.596679688 477.98828125 354.35546875 478.561523438 c 0
 351.811523438 478.561523438 349.057617188 478.568359375 346.49609375 478.568359375 c 0
 343.934570312 478.568359375 341.180664062 478.561523438 338.63671875 478.561523438 c 0
 225.403320312 477.98828125 157.3671875 452.109375 157.3671875 393.895507812 c 0
 157.3671875 381.59765625 156.3671875 388.10546875 155.723632812 382.7421875 c 0
 154.694335938 374.168945312 149.8359375 357.291015625 192.583984375 352.1875 c 0
 200.951171875 352.02734375 205.126953125 351.94140625 211.495117188 351.94140625 c 0
 262.344726562 351.94140625 307.877929688 351.870117188 346.495117188 351.771484375 c 0
EndSplineSet
EndChar

StartChar: nine
Encoding: 57 57 26
GlifName: nine
Width: 695
GlyphClass: 2
Flags: W
HStem: -25 50<79.7186 81.3115 81.3907 522.165> 49.7959 50<79.7967 81.3975 81.5128 490.115> 226.591 50.001<97.551 536.536> 301.627 49.998<154.451 190.939 190.987 534.48> 478.57 50.002<206.654 485.122> 553.369 50<171.369 520.822>
VStem: 28.3936 50.0029<26.2603 49.2895 294.759 481.876> 106.367 50.0332<353.74 437.638> 533.922 49.9736<136.359 195.135 355.202 437.971> 619.24 49.9639<104.543 292.385 292.423 473.03>
LayerCount: 2
Back
Fore
SplineSet
429.543945312 600.399414062 m 0
 558.18359375 590.495117188 666.39453125 543.811523438 666.39453125 393.897460938 c 0
 666.39453125 345.471679688 669.170898438 292.384765625 669.170898438 292.384765625 c 2
 669.193359375 291.956054688 669.205078125 291.3515625 669.204101562 291.033203125 c 0
 668.993164062 184.342773438 668.993164062 236.596679688 668.993164062 184.471679688 c 0
 668.993164062 4.919921875 511.321289062 -25 351.393554688 -25 c 0
 189.760742188 -25 81.3115234375 -24.2783203125 81.3115234375 -24.2783203125 c 2
 47.0869140625 -24.2783203125 28.3935546875 8.673828125 28.3935546875 37.771484375 c 0
 28.3935546875 66.8984375 47.0009765625 99.8212890625 81.3974609375 99.8212890625 c 2
 81.3974609375 99.8212890625 239.875976562 99.7958984375 351.393554688 99.7958984375 c 0
 466.622070312 99.7958984375 536.522460938 125.547851562 536.522460938 184.471679688 c 0
 536.522460938 196.665039062 537.479492188 190.205078125 538.134765625 195.369140625 c 0
 539.223632812 203.952148438 544.18359375 220.901367188 501.8046875 226.120117188 c 0
 492.416015625 226.297851562 487.110351562 226.424804688 479.794921875 226.424804688 c 0
 429.555664062 226.424804688 384.2890625 226.495117188 346.095703125 226.590820312 c 0
 307.904296875 226.495117188 262.633789062 226.424804688 212.395507812 226.424804688 c 0
 200.338867188 226.424804688 187.18359375 225.926757812 173.509765625 225.924804688 c 0
 104.319335938 225.916015625 25.7958984375 248.516601562 25.7958984375 393.896484375 c 0
 25.7958984375 543.809570312 134.0078125 590.495117188 262.646484375 600.399414062 c 0
 275.192382812 603.033203125 290.974609375 603.362304688 342.345703125 603.369140625 c 2
 349.846679688 603.369140625 l 2
 400.163085938 603.362304688 418.501953125 602.716796875 429.543945312 600.399414062 c 0
307.455078125 553.048828125 m 0
 164.22265625 548.150390625 75.79296875 516.23046875 75.79296875 393.897460938 c 0
 75.79296875 276.021484375 117.82421875 275.918945312 173.5 275.92578125 c 0
 185.91796875 275.927734375 199.041992188 276.42578125 212.392578125 276.42578125 c 0
 262.66796875 276.42578125 307.645507812 276.49609375 346.092773438 276.591796875 c 0
 384.538085938 276.49609375 429.51953125 276.42578125 479.793945312 276.42578125 c 0
 487.95703125 276.42578125 496.029296875 276.234375 503.9140625 276.090820312 c 0
 504.4609375 276.081054688 505.481445312 276.024414062 506.209960938 275.943359375 c 0
 580.499023438 267.717773438 590.737304688 214.31640625 587.82421875 189.778320312 c 0
 587.42578125 186.419921875 586.947265625 183.885742188 586.497070312 181.73828125 c 0
 583.987304688 71.697265625 459.176757812 49.7958984375 351.395507812 49.7958984375 c 0
 245.21875 49.7958984375 96.58984375 49.8193359375 82.4375 49.8212890625 c 0
 81.4794921875 48.966796875 78.396484375 44.673828125 78.396484375 37.771484375 c 0
 78.396484375 31.07421875 81.193359375 26.83203125 82.4453125 25.71484375 c 0
 92.8818359375 25.6484375 198.35546875 25 351.396484375 25 c 0
 514.46875 25 618.99609375 51.759765625 618.99609375 184.471679688 c 0
 618.99609375 235.775390625 619.036132812 186.415039062 619.240234375 289.782226562 c 0
 619.228515625 289.999023438 616.395507812 343.85546875 616.395507812 393.8984375 c 0
 616.395507812 516.227539062 527.966796875 548.150390625 384.735351562 553.048828125 c 0
 375.512695312 553.065429688 363.069335938 553.3671875 349.840820312 553.369140625 c 2
 342.345703125 553.369140625 l 2
 329.125 553.3671875 316.67578125 553.065429688 307.455078125 553.048828125 c 0
212.751953125 301.579101562 m 0
 131.61328125 302.377929688 106.004882812 347.057617188 106.3671875 379.475585938 c 0
 106.452148438 387.060546875 107.450195312 392.600585938 108.291992188 396.63671875 c 0
 110.783203125 505.545898438 233.212890625 528.092773438 339.890625 528.56640625 c 0
 342.013671875 528.56640625 343.966796875 528.572265625 346.09375 528.572265625 c 0
 348.220703125 528.572265625 350.173828125 528.56640625 352.296875 528.56640625 c 0
 458.01953125 528.096679688 581.379882812 506.6171875 583.895507812 396.635742188 c 0
 586.952148438 382.126953125 591.575195312 311.474609375 502.020507812 302.282226562 c 0
 501.528320312 302.231445312 500.602539062 302.16796875 499.939453125 302.155273438 c 0
 494.1640625 302.045898438 488.303710938 301.944335938 482.392578125 301.944335938 c 0
 414.836914062 301.944335938 356.856445312 301.793945312 311.807617188 301.626953125 c 0
 268.7265625 301.756835938 227.736328125 301.53125 212.751953125 301.579101562 c 0
190.939453125 352.002929688 m 2
 190.939453125 352.002929688 256.916992188 351.791015625 311.79296875 351.625 c 0
 356.49609375 351.790039062 414.876953125 351.942382812 482.393554688 351.942382812 c 0
 487.3671875 351.942382812 492.71875 352.028320312 497.918945312 352.123046875 c 0
 552.396484375 358.37109375 533.921875 379.940429688 533.921875 393.896484375 c 0
 533.921875 452.203125 465.661132812 478.060546875 352.184570312 478.564453125 c 0
 350.208007812 478.564453125 348.063476562 478.5703125 346.092773438 478.5703125 c 0
 344.122070312 478.5703125 341.977539062 478.564453125 340.000976562 478.564453125 c 0
 226.524414062 478.060546875 158.263671875 452.204101562 158.263671875 393.897460938 c 0
 158.263671875 380.78515625 156.747070312 387.346679688 156.400390625 380.1640625 c 0
 156.037109375 372.645507812 138.614257812 354.452148438 190.939453125 352.002929688 c 2
EndSplineSet
EndChar

StartChar: colon
Encoding: 58 58 27
GlifName: colon
Width: 200
GlyphClass: 2
Flags: W
HStem: -25.5 50<81.0194 119.13> 67 50<81.0194 119.131> 157 50<81.0194 119.13> 249.5 50<81.0194 119.131>
VStem: 30.625 50<24.9455 66.5545 207.445 249.055> 119.375 50<24.7677 66.7323 207.268 249.232>
LayerCount: 2
Back
Fore
SplineSet
80.625 228.25 m 0
 80.625 215.385742188 89.7001953125 207 99.375 207 c 0
 109.712890625 207 119.375 216.344726562 119.375 228.25 c 0
 119.375 240.155273438 109.711914062 249.5 99.375 249.5 c 0
 89.7001953125 249.5 80.625 241.114257812 80.625 228.25 c 0
30.625 228.25 m 0
 30.625 265.385742188 59.0498046875 299.5 99.375 299.5 c 0
 139.038085938 299.5 169.375 266.344726562 169.375 228.25 c 0
 169.375 190.155273438 139.037109375 157 99.375 157 c 0
 59.0498046875 157 30.625 191.114257812 30.625 228.25 c 0
80.625 45.75 m 0
 80.625 32.8857421875 89.7001953125 24.5 99.375 24.5 c 0
 109.712890625 24.5 119.375 33.8447265625 119.375 45.75 c 0
 119.375 57.6552734375 109.711914062 67 99.375 67 c 0
 89.7001953125 67 80.625 58.6142578125 80.625 45.75 c 0
30.625 45.75 m 0
 30.625 82.8857421875 59.0498046875 117 99.375 117 c 0
 139.038085938 117 169.375 83.8447265625 169.375 45.75 c 0
 169.375 7.6552734375 139.037109375 -25.5 99.375 -25.5 c 0
 59.0498046875 -25.5 30.625 8.6142578125 30.625 45.75 c 0
EndSplineSet
EndChar

StartChar: semicolon
Encoding: 59 59 28
GlifName: semicolon
Width: 206
GlyphClass: 2
Flags: W
HStem: 67 50.002<78.6474 116.605> 157.002 50<78.6464 116.757> 249.502 50<78.6464 116.757>
VStem: 28.2539 50<24.7167 66.5546 207.447 249.057> 117.002 50<207.27 249.234>
LayerCount: 2
Back
Fore
SplineSet
120.095703125 30.390625 m 2
 119.26953125 33.6298828125 118.461914062 36.7783203125 117.720703125 39.806640625 c 0
 117.353515625 41.3056640625 117.00390625 43.8046875 117.00390625 45.75 c 0
 117.00390625 57.6552734375 107.340820312 67 97.00390625 67 c 0
 87.3291015625 67 78.25390625 58.6142578125 78.25390625 45.75 c 0
 78.25390625 32.8857421875 87.3291015625 24.5 97.00390625 24.5 c 0
 100.3203125 24.5 103.310546875 25.3291015625 106.090820312 26.884765625 c 0
 106.963867188 27.373046875 120.095703125 30.390625 120.095703125 30.390625 c 2
28.25390625 45.75 m 0
 28.25390625 82.8857421875 56.6767578125 117.001953125 97.001953125 117.001953125 c 0
 136.194335938 117.001953125 164.828125 85.0537109375 166.928710938 49.1005859375 c 1
 172.274414062 27.904296875 184.546875 -3.1591796875 174.12890625 -33.173828125 c 0
 161.865234375 -62.7470703125 130.622070312 -63.498046875 110.309570312 -68.037109375 c 0
 96.58203125 -71.10546875 82.134765625 -73.56640625 68.9990234375 -75.287109375 c 1
 68.9990234375 -75.287109375 29.71484375 -40.05859375 54.9404296875 -27.9580078125 c 0
 60.810546875 -25.142578125 68.0302734375 -21.9384765625 71.30078125 -20.4267578125 c 1
 44.275390625 -9.0419921875 28.25390625 17.107421875 28.25390625 45.75 c 0
78.251953125 228.251953125 m 0
 78.251953125 215.387695312 87.3271484375 207.001953125 97.001953125 207.001953125 c 0
 107.33984375 207.001953125 117.001953125 216.346679688 117.001953125 228.251953125 c 0
 117.001953125 240.157226562 107.338867188 249.501953125 97.001953125 249.501953125 c 0
 87.3271484375 249.501953125 78.251953125 241.116210938 78.251953125 228.251953125 c 0
28.251953125 228.251953125 m 0
 28.251953125 265.387695312 56.6767578125 299.501953125 97.001953125 299.501953125 c 0
 136.665039062 299.501953125 167.001953125 266.346679688 167.001953125 228.251953125 c 0
 167.001953125 190.157226562 136.6640625 157.001953125 97.001953125 157.001953125 c 0
 56.6767578125 157.001953125 28.251953125 191.116210938 28.251953125 228.251953125 c 0
EndSplineSet
EndChar

StartChar: less
Encoding: 60 60 29
GlifName: less
Width: 363
GlyphClass: 2
Flags: W
VStem: 21.499 50.001<316.106 369.552>
LayerCount: 2
Back
Fore
SplineSet
71.5 343 m 0
 71.5 330.69921875 81.3994140625 319.748046875 83.1337890625 319.109375 c 0
 84.5458984375 318.58984375 87.3876953125 317.112304688 87.3876953125 317.112304688 c 2
 96.677734375 310.775390625 167.015625 263.708984375 228.715820312 222.42578125 c 1
 97.9091796875 323.197265625 l 2
 71.548828125 343.504882812 95.373046875 360.8515625 97.91015625 362.805664062 c 2
 228.716796875 463.577148438 l 1
 171.002929688 424.9609375 94.7841796875 373.935546875 89.2705078125 370.174804688 c 0
 87.5625 368.991210938 85.3115234375 367.694335938 83.134765625 366.893554688 c 0
 81.3994140625 366.254882812 71.5 355.299804688 71.5 343 c 0
21.4990234375 343.002929688 m 0
 21.4990234375 372.35546875 37.2587890625 400.541015625 62.5849609375 412.494140625 c 1
 85.1298828125 427.709960938 274.528320312 554.38671875 274.599609375 554.434570312 c 0
 276.78125 555.893554688 279.732421875 557.168945312 281.844726562 557.751953125 c 0
 297.206054688 561.993164062 314.624023438 559.28515625 327.130859375 547.690429688 c 0
 336.486328125 539.017578125 341.497070312 526.42578125 341.497070312 513.594726562 c 0
 341.497070312 486.063476562 322.110351562 464.384765625 300.4296875 455.712890625 c 1
 154.12890625 343.00390625 l 1
 300.4296875 230.295898438 l 1
 324.161132812 220.803710938 341.497070312 199.153320312 341.497070312 172.4140625 c 0
 341.497070312 160.212890625 336.987304688 148.184570312 328.419921875 139.5625 c 0
 315.897460938 126.9609375 297.751953125 123.864257812 281.844726562 128.255859375 c 0
 279.314453125 128.954101562 276.420898438 130.35546875 274.599609375 131.57421875 c 2
 274.599609375 131.57421875 83.287109375 259.541992188 62.5849609375 273.513671875 c 0
 35.51953125 286.288085938 21.4990234375 314.446289062 21.4990234375 343.002929688 c 0
EndSplineSet
EndChar

StartChar: equal
Encoding: 61 61 30
GlifName: equal
Width: 515
GlyphClass: 2
Flags: W
HStem: 109.001 49.999<84.9958 417.878> 181 50<84.568 417.882> 253.001 50<84.9977 419.286> 325.003 49.9971<84.5699 418.192>
VStem: 34.4844 50.002<159.359 180.403 303.359 324.404> 429.515 49.9492<159.02 180.394 303.156 324.198>
LayerCount: 2
Back
Fore
SplineSet
417.877929688 159 m 2
 430.109375 160.796875 429.247070312 161.22265625 429.514648438 169.248046875 c 0
 429.939453125 175.622070312 431.708007812 177.130859375 416.602539062 181 c 2
 94.388671875 181 l 1
 85.3759765625 176.741210938 84.486328125 174.413085938 84.486328125 168 c 0
 84.486328125 160.21484375 84.9267578125 159 93.486328125 159 c 2
 417.877929688 159 l 2
419.486328125 109 m 2
 93.484375 109.000976562 l 2
 56.0087890625 109.000976562 34.484375 138.452148438 34.484375 168.000976562 c 0
 34.484375 197.5234375 54.1142578125 219.659179688 80.87890625 229.47265625 c 0
 83.595703125 230.46875 87.013671875 231 89.484375 231 c 2
 419.484375 231 l 2
 421.203125 231 423.454101562 230.719726562 424.767578125 230.435546875 c 0
 456.763671875 223.517578125 481.061523438 200.634765625 479.463867188 166.774414062 c 0
 477.69140625 132.559570312 453.018554688 112.7734375 422.407226562 109.171875 c 0
 421.479492188 109.0625 420.188476562 109 419.486328125 109 c 2
417.568359375 303.000976562 m 2
 431.094726562 305.508789062 430.264648438 306.8125 430.499023438 313.833984375 c 0
 430.779296875 322.504882812 430.50390625 324.662109375 418.743164062 325.01171875 c 0
 311.565429688 328.1953125 203.466796875 325.098632812 94.390625 325.002929688 c 1
 85.3701171875 320.740234375 84.484375 318.415039062 84.484375 312.000976562 c 0
 84.484375 304.215820312 84.9248046875 303.000976562 93.484375 303.000976562 c 2
 417.568359375 303.000976562 l 2
419.485351562 253.000976562 m 2
 93.486328125 253.000976562 l 2
 56.0107421875 253.000976562 34.486328125 282.452148438 34.486328125 312.000976562 c 0
 34.486328125 341.5234375 54.1162109375 363.659179688 80.880859375 373.47265625 c 0
 83.59765625 374.46875 87.015625 375 89.486328125 375 c 0
 198.9921875 375 309.500976562 378.278320312 420.227539062 374.989257812 c 0
 458.326171875 373.858398438 481.525390625 344.830078125 480.471679688 312.166992188 c 0
 479.365234375 279.000976562 454.26953125 257.715820312 423.020507812 253.251953125 c 0
 421.897460938 253.091796875 420.345703125 253.000976562 419.485351562 253.000976562 c 2
EndSplineSet
EndChar

StartChar: greater
Encoding: 62 62 31
GlifName: greater
Width: 365
GlyphClass: 2
Flags: W
VStem: 292.5 50.001<316.448 369.894>
LayerCount: 2
Back
Fore
SplineSet
292.5 343 m 0
 292.5 355.30078125 282.600585938 366.251953125 280.866210938 366.890625 c 0
 279.454101562 367.41015625 276.612304688 368.887695312 276.612304688 368.887695312 c 2
 267.322265625 375.224609375 196.984375 422.291015625 135.284179688 463.57421875 c 1
 266.090820312 362.802734375 l 2
 292.451171875 342.495117188 268.626953125 325.1484375 266.08984375 323.194335938 c 2
 135.283203125 222.422851562 l 1
 192.997070312 261.0390625 269.215820312 312.064453125 274.729492188 315.825195312 c 0
 276.4375 317.008789062 278.688476562 318.305664062 280.865234375 319.106445312 c 0
 282.600585938 319.745117188 292.5 330.700195312 292.5 343 c 0
342.500976562 342.997070312 m 0
 342.500976562 313.64453125 326.741210938 285.458984375 301.415039062 273.505859375 c 1
 278.870117188 258.290039062 89.4716796875 131.61328125 89.400390625 131.565429688 c 0
 87.21875 130.106445312 84.267578125 128.831054688 82.1552734375 128.248046875 c 0
 66.7939453125 124.006835938 49.3759765625 126.71484375 36.869140625 138.309570312 c 0
 27.513671875 146.982421875 22.5029296875 159.57421875 22.5029296875 172.405273438 c 0
 22.5029296875 199.936523438 41.8896484375 221.615234375 63.5703125 230.287109375 c 1
 209.87109375 342.99609375 l 1
 63.5703125 455.704101562 l 1
 39.8388671875 465.196289062 22.5029296875 486.846679688 22.5029296875 513.5859375 c 0
 22.5029296875 525.787109375 27.0126953125 537.815429688 35.580078125 546.4375 c 0
 48.1025390625 559.0390625 66.248046875 562.135742188 82.1552734375 557.744140625 c 0
 84.685546875 557.045898438 87.5791015625 555.64453125 89.400390625 554.42578125 c 2
 89.400390625 554.42578125 280.712890625 426.458007812 301.415039062 412.486328125 c 0
 328.48046875 399.711914062 342.500976562 371.553710938 342.500976562 342.997070312 c 0
EndSplineSet
EndChar

StartChar: question
Encoding: 63 63 32
GlifName: question
Width: 597
GlyphClass: 2
Flags: W
HStem: -25.0059 50<240.778 266.331> 83.8994 20.6445<226.019 278.561> 273.84 50.0059<309.226 527.459> 337.647 49.9971<245.447 437.36> 491.263 50.0029<69.5436 370.086> 555.588 49.999<69.5438 394.116>
VStem: 19.5439 49.999<541.601 554.625> 195.501 49.9951<25.4054 72.3039 133.905 331.578 332.468 336.992> 259.224 50.002<133.905 273.84> 266.622 50<25.2536 71.4413> 527.46 50<324.258 424.177>
LayerCount: 2
Back
Fore
SplineSet
259.223632812 298.848632812 m 2xffa0
 259.223632812 312.484375 270.623046875 323.8515625 284.236328125 323.845703125 c 0
 356.521484375 323.81640625 504.3203125 323.904296875 525.772460938 323.91796875 c 0
 526.407226562 324.963867188 527.459960938 327.51953125 527.459960938 330.782226562 c 0
 527.459960938 454.533203125 426.045898438 555.587890625 300.82421875 555.587890625 c 0
 175.125976562 555.587890625 86.9365234375 555.081054688 71.185546875 554.984375 c 0
 70.6376953125 554.076171875 69.54296875 551.420898438 69.54296875 548.10546875 c 0
 69.54296875 544.896484375 70.4208984375 542.495117188 71.1748046875 541.244140625 c 0
 89.2900390625 541.247070312 212.470703125 541.265625 300.823242188 541.265625 c 0
 401.607421875 541.265625 469.169921875 461.325195312 497.331054688 370.015625 c 0
 507.696289062 336.40625 475.54296875 337.647460938 473.44140625 337.647460938 c 2
 247.204101562 337.647460938 l 2
 246.630859375 336.76171875 245.498046875 334.271484375 245.498046875 330.784179688 c 0
 245.498046875 329.784179688 245.514648438 333.424804688 245.508789062 332.424804688 c 0
 245.330078125 316.521484375 245.473632812 161.124023438 245.49609375 135.592773438 c 0
 246.543945312 134.95703125 249.09765625 133.904296875 252.360351562 133.904296875 c 0
 255.569335938 133.904296875 257.969726562 134.782226562 259.223632812 135.538085938 c 2
 259.223632812 298.848632812 l 2xffa0
309.225585938 273.83984375 m 1
 309.225585938 132.979492188 l 2
 309.225585938 100.704101562 278.560546875 83.8994140625 252.362304688 83.8994140625 c 0
 226.018554688 83.8994140625 195.498046875 100.912109375 195.500976562 132.95703125 c 0
 195.5 133.57421875 195.329101562 325.31640625 195.51171875 331.903320312 c 0
 196.188476562 359.04296875 213.040039062 386.758789062 244.225585938 387.64453125 c 2
 437.360351562 387.64453125 l 1
 408.75390625 450.875976562 361.393554688 491.262695312 300.82421875 491.262695312 c 0
 204.916992188 491.262695312 68.6318359375 491.241210938 68.6240234375 491.241210938 c 0
 36.3486328125 491.241210938 19.5439453125 521.905273438 19.5439453125 548.103515625 c 0
 19.5439453125 574.302734375 36.4130859375 604.966796875 68.541015625 604.966796875 c 2
 68.541015625 604.966796875 161.80078125 605.586914062 300.82421875 605.586914062 c 0
 453.381835938 605.586914062 577.459960938 482.458007812 577.459960938 330.78125 c 0
 577.459960938 304.4375 560.452148438 273.916992188 528.395507812 273.919921875 c 2
 528.395507812 273.919921875 391.47265625 273.833984375 309.225585938 273.83984375 c 1
240.296875 39.7685546875 m 0
 240.296875 30.3837890625 246.74609375 24.994140625 252.921875 24.994140625 c 0
 259.745117188 24.994140625 266.622070312 31.3603515625 266.622070312 39.7685546875 c 0xff60
 266.622070312 48.1962890625 259.758789062 54.5439453125 252.921875 54.5439453125 c 0
 246.796875 54.5439453125 240.296875 49.1337890625 240.296875 39.7685546875 c 0
190.296875 39.7685546875 m 0
 190.296875 73.4033203125 216.046875 104.543945312 252.921875 104.543945312 c 0
 289.084960938 104.543945312 316.622070312 74.3408203125 316.622070312 39.7685546875 c 0
 316.622070312 5.1767578125 289.098632812 -25.005859375 252.921875 -25.005859375 c 0
 216.09765625 -25.005859375 190.296875 6.1533203125 190.296875 39.7685546875 c 0
EndSplineSet
EndChar

StartChar: at
Encoding: 64 64 33
GlifName: at
Width: 680
GlyphClass: 2
Flags: W
HStem: -20.1621 49.999<235.493 466.001> 54.6475 132.604<315.358 382.241> 137.252 0.518555<289.871 428.095> 438.89 0.516602<289.868 445.783> 485.945 49.9834<256.81 339.276> 485.981 57.2324<260.778 339.279> 560.78 50.001<235.531 607.306>
VStem: 19.7031 50<193.285 397.446> 102.174 49.998<211.072 381.694> 169.395 97.2402<217.832 363.353> 216.635 2.7627<206.107 370.553> 610.303 50<531.64 559.52>
LayerCount: 2
Back
Fore
SplineSet
413.356445312 485.981445312 m 2x9790
 423.149414062 484.325195312 434.46484375 481.533203125 442.53515625 479.015625 c 1
 435.7265625 482.171875 431.142578125 483.950195312 425.284179688 485.98046875 c 2
 413.356445312 485.981445312 l 2x9790
339.279296875 485.450195312 m 1
 337.75390625 485.512695312 335.580078125 485.678710938 333.671875 485.9453125 c 0
 237.620117188 483.76171875 152.171875 399.087890625 152.171875 295.30859375 c 0
 152.171875 224.106445312 192.415039062 163.09765625 249.7578125 130.1640625 c 1
 201.263671875 166.7421875 169.39453125 224.02734375 169.39453125 288.33203125 c 0x9bd0
 169.39453125 386.860351562 243.533203125 467.849609375 339.279296875 485.450195312 c 1
559.078125 205.984375 m 1
 584.75390625 222.899414062 613.010742188 208.913085938 629.9375 196.484375 c 0
 657.374023438 176.337890625 652.569335938 144.564453125 649.28515625 132.717773438 c 0
 647.744140625 101.075195312 544.9375 -21.3671875 337.157226562 -20.162109375 c 0
 162.227539062 -19.146484375 19.703125 121.1171875 19.703125 295.309570312 c 0
 19.703125 469.404296875 162.134765625 610.78125 337.302734375 610.78125 c 0
 498.935546875 610.78125 607.384765625 610.059570312 607.384765625 610.059570312 c 2
 641.609375 610.059570312 660.302734375 577.107421875 660.302734375 548.009765625 c 0
 660.302734375 523.904296875 648.44921875 501.693359375 628.749023438 491.203125 c 1
 585.791015625 283.2734375 l 2
 580.252929688 256.469726562 571.26171875 230.083984375 559.078125 205.984375 c 1
598.213867188 138.662109375 m 0
 601.873046875 146.811523438 602.864257812 154.329101562 600.344726562 156.1796875 c 0
 594.883789062 160.189453125 589.764648438 162.40234375 586.161132812 163.151367188 c 0
 575.680664062 150.891601562 531.396484375 102.16015625 456.630859375 74.158203125 c 0
 422.62109375 61.4208984375 382.241210938 53.056640625 336.435546875 54.6474609375 c 0
 212.095703125 58.96484375 102.173828125 162.125 102.173828125 295.30859375 c 0
 102.173828125 426.205078125 208.635742188 533.116210938 332.365234375 535.928710938 c 0xdbb0
 341.758789062 539.375 353.245117188 542.0859375 363.788085938 543.213867188 c 0
 388.83203125 545.893554688 407.733398438 543.54296875 436.427734375 534.961914062 c 2
 436.427734375 534.961914062 435.674804688 535.178710938 436.825195312 534.814453125 c 0
 493.452148438 516.892578125 565.418945312 467.137695312 544.92578125 404.8671875 c 0
 543.155273438 399.48828125 540.630859375 394.299804688 537.458007812 389.45703125 c 0
 519.294921875 361.733398438 500.212890625 383.94921875 498.013671875 386.37890625 c 0
 469.01171875 418.4140625 426.021484375 438.889648438 377.853515625 438.889648438 c 0
 289.58203125 438.889648438 219.397460938 370.467773438 219.397460938 288.330078125 c 0
 219.397460938 206.193359375 289.583007812 137.770507812 377.853515625 137.770507812 c 0xb7b0
 390.639648438 137.770507812 402.513671875 139.252929688 413.600585938 141.985351562 c 0
 477.622070312 157.760742188 521.272460938 218.107421875 536.825195312 293.388671875 c 2
 582.819335938 516.016601562 l 2
 585.068359375 526.903320312 594.622070312 535.3671875 606.235351562 535.936523438 c 0
 607.243164062 536.834960938 610.302734375 541.09765625 610.302734375 548.008789062 c 0
 610.302734375 554.706054688 607.505859375 558.948242188 606.25390625 560.065429688 c 0
 595.817382812 560.131835938 490.34375 560.780273438 337.302734375 560.780273438 c 0
 189.470703125 560.780273438 69.703125 441.477539062 69.703125 295.30859375 c 0
 69.703125 149.237304688 189.383789062 30.6962890625 337.448242188 29.8369140625 c 0
 497.530273438 28.908203125 578.07421875 113.086914062 598.213867188 138.662109375 c 0
216.634765625 288.329101562 m 0
 216.634765625 370.637695312 290.153320312 439.40625 377.8515625 439.40625 c 0
 465.543945312 439.40625 539.068359375 370.637695312 539.068359375 288.329101562 c 0
 539.068359375 206.020507812 465.549804688 137.251953125 377.8515625 137.251953125 c 0xb3b0
 290.159179688 137.251953125 216.634765625 206.020507812 216.634765625 288.329101562 c 0
266.634765625 288.329101562 m 0xd3d0
 266.634765625 236.813476562 315.358398438 187.251953125 377.8515625 187.251953125 c 0
 440.338867188 187.251953125 489.068359375 236.813476562 489.068359375 288.329101562 c 0
 489.068359375 339.844726562 440.344726562 389.40625 377.8515625 389.40625 c 0
 315.364257812 389.40625 266.634765625 339.844726562 266.634765625 288.329101562 c 0xd3d0
EndSplineSet
EndChar

StartChar: A
Encoding: 65 65 34
GlifName: A_
Width: 720
GlyphClass: 2
Flags: W
HStem: -25 50.001<252.424 469.806 617.138 639.873> 57.4727 50<267.89 452.114> 477.73 50<267.89 452.114> 560.201 49.998<252.424 467.578>
VStem: 29.2402 50.002<189.644 395.557> 107.975 50<211.975 373.228> 566.151 50<24.21 44.3438 221.409 363.794> 640.276 49.9736<24.0073 394.791>
LayerCount: 2
Back
Fore
SplineSet
690.25 10.4482421875 m 2
 690.25 -32.841796875 634.776367188 -26.287109375 626.419921875 -26.291015625 c 0
 619.1015625 -26.2939453125 566.151367188 -32.958984375 566.151367188 9.470703125 c 0
 566.151367188 20.9580078125 566.15234375 33.5556640625 566.153320312 44.34375 c 1
 509.415039062 0.853515625 437.75 -25 360 -25 c 0
 178.575195312 -25 29.240234375 116.3359375 29.240234375 292.599609375 c 0
 29.240234375 468.86328125 178.575195312 610.19921875 360 610.19921875 c 0
 541.424804688 610.19921875 690.759765625 468.881835938 690.759765625 292.577148438 c 2
 690.25 10.4482421875 l 2
640.276367188 24.6171875 m 1
 640.76171875 292.646484375 l 2
 640.76171875 439.30078125 515.696289062 560.201171875 360.001953125 560.201171875 c 0
 204.307617188 560.201171875 79.2421875 439.337890625 79.2421875 292.600585938 c 0
 79.2421875 145.864257812 204.307617188 25.0009765625 360.001953125 25.0009765625 c 0
 445.055664062 25.0009765625 521.177734375 61.1708984375 572.625 118.000976562 c 0
 605.123046875 153.899414062 616.158203125 101.22265625 616.158203125 101.22265625 c 1
 616.151367188 24.2099609375 l 1
 621.991210938 23.603515625 631.69140625 23.494140625 640.276367188 24.6171875 c 1
107.974609375 292.6015625 m 0
 107.974609375 419.517578125 222.241210938 527.73046875 360.001953125 527.73046875 c 0
 497.76171875 527.73046875 612.029296875 419.517578125 612.029296875 292.6015625 c 0
 612.029296875 165.684570312 497.762695312 57.47265625 360.001953125 57.47265625 c 0
 222.2421875 57.47265625 107.974609375 165.684570312 107.974609375 292.6015625 c 0
157.974609375 292.6015625 m 0
 157.974609375 196.477539062 247.451171875 107.47265625 360.001953125 107.47265625 c 0
 472.551757812 107.47265625 562.029296875 196.477539062 562.029296875 292.6015625 c 0
 562.029296875 388.724609375 472.552734375 477.73046875 360.001953125 477.73046875 c 0
 247.452148438 477.73046875 157.974609375 388.724609375 157.974609375 292.6015625 c 0
EndSplineSet
EndChar

StartChar: B
Encoding: 66 66 35
GlifName: B_
Width: 723
GlyphClass: 2
Flags: W
HStem: -25.001 50.001<253.923 469.076> 57.4707 50<269.387 453.611> 477.729 50<269.387 453.611> 560.199 50<251.695 469.076> 704.99 50.5<81.6357 104.363>
VStem: 30.7402 49.999<190.409 705.214> 109.472 50<211.974 373.226 540.854 704.99> 563.526 50<211.974 373.226> 642.259 50.001<189.643 395.556>
LayerCount: 2
Back
Fore
SplineSet
31.25 718.743164062 m 2
 31.25 762.07421875 86.724609375 755.486328125 95.0810546875 755.490234375 c 0
 102.399414062 755.493164062 155.349609375 762.158203125 155.349609375 719.728515625 c 2
 155.34375 540.853515625 l 1
 212.088867188 584.348632812 283.749023438 610.19921875 361.5 610.19921875 c 0
 542.924804688 610.19921875 692.259765625 468.86328125 692.259765625 292.599609375 c 0
 692.259765625 116.3359375 542.924804688 -25.0009765625 361.5 -25.0009765625 c 0
 180.075195312 -25.0009765625 30.740234375 116.310546875 30.740234375 292.62890625 c 2
 31.25 718.743164062 l 2
81.2333984375 704.583984375 m 1
 80.7392578125 292.569335938 l 2
 80.7392578125 145.887695312 205.8046875 25 361.499023438 25 c 0
 517.193359375 25 642.258789062 145.86328125 642.258789062 292.599609375 c 0
 642.258789062 439.3359375 517.193359375 560.19921875 361.499023438 560.19921875 c 0
 276.4453125 560.19921875 200.323242188 524.029296875 148.875976562 467.19921875 c 0
 116.377929688 431.30078125 105.342773438 483.977539062 105.342773438 483.977539062 c 1
 105.349609375 704.990234375 l 1
 99.5146484375 705.595703125 89.798828125 705.704101562 81.2333984375 704.583984375 c 1
613.526367188 292.599609375 m 0
 613.526367188 165.68359375 499.259765625 57.470703125 361.499023438 57.470703125 c 0
 223.739257812 57.470703125 109.471679688 165.68359375 109.471679688 292.599609375 c 0
 109.471679688 419.516601562 223.73828125 527.728515625 361.499023438 527.728515625 c 0
 499.258789062 527.728515625 613.526367188 419.516601562 613.526367188 292.599609375 c 0
563.526367188 292.599609375 m 0
 563.526367188 388.723632812 474.049804688 477.728515625 361.499023438 477.728515625 c 0
 248.94921875 477.728515625 159.471679688 388.723632812 159.471679688 292.599609375 c 0
 159.471679688 196.4765625 248.948242188 107.470703125 361.499023438 107.470703125 c 0
 474.048828125 107.470703125 563.526367188 196.4765625 563.526367188 292.599609375 c 0
EndSplineSet
EndChar

StartChar: C
Encoding: 67 67 36
GlifName: C_
Width: 684
GlyphClass: 2
Flags: W
HStem: -25.1719 49.999<237.528 609.304 609.383 610.977> 49.623 50.001<260.075 610.9> 480.976 49.999<260.075 609.181 609.296 610.897> 555.771 50.001<237.528 610.976>
VStem: 21.7002 50<188.163 392.436> 104.171 50<202.863 377.736> 612.3 50<26.0786 49.1074 531.481 554.511>
LayerCount: 2
Back
Fore
SplineSet
609.3828125 605.049804688 m 0
 643.607421875 605.049804688 662.299804688 572.09765625 662.299804688 543 c 0
 662.299804688 513.873046875 643.692382812 480.950195312 609.295898438 480.950195312 c 2
 609.295898438 480.950195312 450.817382812 480.975585938 339.299804688 480.975585938 c 0
 242.07421875 480.975585938 154.170898438 395.484375 154.170898438 290.299804688 c 0
 154.170898438 185.115234375 242.07421875 99.6240234375 339.299804688 99.6240234375 c 0
 450.819335938 99.6240234375 609.291015625 99.6494140625 609.299804688 99.6494140625 c 0
 643.67578125 99.6494140625 662.299804688 66.6982421875 662.299804688 37.599609375 c 0
 662.299804688 8.4736328125 643.626953125 -24.4501953125 609.3828125 -24.4501953125 c 2
 609.3828125 -24.4501953125 500.93359375 -25.171875 339.299804688 -25.171875 c 0
 164.131835938 -25.171875 21.7001953125 116.205078125 21.7001953125 290.299804688 c 0
 21.7001953125 464.39453125 164.131835938 605.771484375 339.299804688 605.771484375 c 0
 500.874023438 605.771484375 609.342773438 605.049804688 609.3828125 605.049804688 c 0
608.25 555.055664062 m 0
 597.813476562 555.122070312 492.340820312 555.770507812 339.299804688 555.770507812 c 0
 191.467773438 555.770507812 71.7001953125 436.467773438 71.7001953125 290.298828125 c 0
 71.7001953125 144.129882812 191.467773438 24.8271484375 339.299804688 24.8271484375 c 0
 491.828125 24.8271484375 596.821289062 25.4697265625 608.250976562 25.54296875 c 0
 609.223632812 26.41015625 612.299804688 30.6953125 612.299804688 37.5986328125 c 0
 612.299804688 44.2939453125 609.49609375 48.544921875 608.2578125 49.6484375 c 0
 595.470703125 49.646484375 445.786132812 49.623046875 339.299804688 49.623046875 c 0
 213.486328125 49.623046875 104.170898438 157.688476562 104.170898438 290.298828125 c 0
 104.170898438 422.909179688 213.486328125 530.974609375 339.299804688 530.974609375 c 0
 445.4765625 530.974609375 594.10546875 530.951171875 608.2578125 530.94921875 c 0
 609.215820312 531.803710938 612.298828125 536.096679688 612.298828125 542.999023438 c 0
 612.298828125 549.696289062 609.501953125 553.938476562 608.25 555.055664062 c 0
EndSplineSet
EndChar

StartChar: D
Encoding: 68 68 37
GlifName: D_
Width: 721
GlyphClass: 2
Flags: W
HStem: -25 50<252.923 468.077> 57.4697 50<268.387 452.611> 477.728 50<268.387 452.611> 560.199 50<252.923 470.579> 704.99 50.4941<617.434 640.437>
VStem: 29.7402 50<189.643 395.556> 108.472 50<211.973 373.225> 562.526 50<211.973 373.225 540.853 704.99> 641.26 50<190.404 705.231>
LayerCount: 2
Back
Fore
SplineSet
690.75 718.743164062 m 2
 691.259765625 292.599609375 l 2
 691.259765625 116.3359375 541.924804688 -25 360.5 -25 c 0
 179.075195312 -25 29.740234375 116.3359375 29.740234375 292.599609375 c 0
 29.740234375 468.86328125 179.075195312 610.19921875 360.5 610.19921875 c 0
 438.415039062 610.19921875 511.213867188 583.349609375 566.65625 540.852539062 c 1
 566.650390625 719.727539062 l 2
 566.650390625 761.619140625 618.39453125 755.424804688 625.506835938 755.484375 c 0
 634.046875 755.555664062 690.75 762.607421875 690.75 718.743164062 c 2
640.766601562 704.584960938 m 1
 633.784179688 705.498046875 624.061523438 705.759765625 616.649414062 704.990234375 c 1
 616.65625 483.977539062 l 2
 616.65625 435.553710938 573.123046875 467.19921875 573.123046875 467.19921875 c 1
 521.67578125 524.029296875 445.553710938 560.19921875 360.5 560.19921875 c 0
 204.805664062 560.19921875 79.740234375 439.3359375 79.740234375 292.599609375 c 0
 79.740234375 145.86328125 204.805664062 25 360.5 25 c 0
 516.194335938 25 641.259765625 145.86328125 641.259765625 292.599609375 c 2
 640.766601562 704.584960938 l 1
108.471679688 292.598632812 m 0
 108.471679688 419.515625 222.73828125 527.727539062 360.499023438 527.727539062 c 0
 498.258789062 527.727539062 612.526367188 419.515625 612.526367188 292.598632812 c 0
 612.526367188 165.682617188 498.259765625 57.4697265625 360.499023438 57.4697265625 c 0
 222.739257812 57.4697265625 108.471679688 165.682617188 108.471679688 292.598632812 c 0
158.471679688 292.598632812 m 0
 158.471679688 196.475585938 247.948242188 107.469726562 360.499023438 107.469726562 c 0
 473.048828125 107.469726562 562.526367188 196.475585938 562.526367188 292.598632812 c 0
 562.526367188 388.72265625 473.049804688 477.727539062 360.499023438 477.727539062 c 0
 247.94921875 477.727539062 158.471679688 388.72265625 158.471679688 292.598632812 c 0
EndSplineSet
EndChar

StartChar: E
Encoding: 69 69 38
GlifName: E_
Width: 677
GlyphClass: 2
Flags: W
LayerCount: 2
Back
Fore
SplineSet
644.947265625 138.95703125 m 0
 585.646484375 80.603515625 594.926757812 75.048828125 505.356445312 19.369140625 c 0
 363.856445312 -68.591796875 148.139648438 -30.0615234375 59.4111328125 123.620117188 c 0
 -28.720703125 276.268554688 29.939453125 473.336914062 187.056640625 564.048828125 c 0
 315.564453125 638.244140625 472.350585938 619.888671875 573.715820312 527.307617188 c 0
 581.755859375 519.96484375 598.493164062 507.268554688 612.6484375 492.84765625 c 0
 623.501953125 481.791015625 639.3203125 466.052734375 637.47265625 442.015625 c 0
 636.674804688 431.633789062 631.05859375 421.244140625 623.958007812 414.760742188 c 0
 561.294921875 354.413085938 494.735351562 297.034179688 426.356445312 242.383789062 c 0
 407.380859375 227.55859375 368.365234375 218.860351562 343.900390625 250.174804688 c 0
 325.25390625 274.041992188 322.393554688 309.483398438 346.24609375 330.684570312 c 0
 366.673828125 348.842773438 440.227539062 405.728515625 470.431640625 437.727539062 c 1
 396.18359375 470.469726562 322.086914062 489.045898438 253.290039062 449.325195312 c 0
 155.819335938 393.05078125 122.83203125 271.23046875 170.893554688 187.985351562 c 0
 175.034179688 180.813476562 179.803710938 173.876953125 185.133789062 167.240234375 c 0
 243.091796875 95.0712890625 359.926757812 65.5517578125 435.193359375 126.45703125 c 2
 557.740234375 225.62109375 l 2
 577.328125 241.47265625 609.177734375 245.588867188 634.850585938 224.212890625 c 0
 658.552734375 204.479492188 670.604492188 164.204101562 644.947265625 138.95703125 c 0
608.630859375 173.364257812 m 0
 608.7890625 176.168945312 606.909179688 182.416992188 602.86328125 185.78515625 c 0
 596.413085938 191.155273438 592.930664062 189.7734375 589.196289062 186.751953125 c 2
 466.649414062 87.587890625 l 2
 364.106445312 4.6103515625 217.405273438 47.208984375 146.154296875 135.931640625 c 0
 139.294921875 144.47265625 133.0703125 153.504882812 127.59765625 162.984375 c 0
 64.1396484375 272.897460938 108.990234375 423.745117188 228.294921875 492.625 c 0
 328.397460938 550.419921875 432.875 511.124023438 513.549804688 472.962890625 c 0
 536.288085938 462.206054688 529.766601562 436.317382812 526.48828125 429.57421875 c 0
 505.940429688 387.301757812 402.791992188 313.901367188 379.596679688 293.42578125 c 0
 379.439453125 293.107421875 377.893554688 287.883789062 383.306640625 280.955078125 c 0
 384.576171875 279.330078125 390.693359375 277.967773438 395.358398438 281.61328125 c 0
 461.2890625 334.307617188 524.01171875 388.23046875 585.78515625 447.418945312 c 1
 578.770507812 457.884765625 554.939453125 476.743164062 540 490.387695312 c 0
 455.2265625 567.814453125 322.141601562 584.302734375 212.059570312 520.74609375 c 0
 77.2236328125 442.899414062 29.3447265625 275.696289062 102.712890625 148.618164062 c 0
 175.484375 22.5732421875 359.974609375 -12.1328125 478.958984375 61.83203125 c 0
 566.19140625 116.05859375 542.90625 108.334960938 608.630859375 173.364257812 c 0
EndSplineSet
AlternateSubs2: "'salt' Stylistic Alternatives in Latin lookup 0 subtable" uniE00A
EndChar

StartChar: F
Encoding: 70 70 39
GlifName: F_
Width: 685
GlyphClass: 2
Flags: W
HStem: -25.002 50<80.6685 104.51> 254 50<184.4 562.909> 328.1 50.001<184.397 563.999> 480.974 50<260.577 609.683 609.798 611.399> 555.77 50<238.727 609.805>
VStem: 22.2158 50.0137<77.3544 291.906> 31.0068 49.9248<25.0002 240.438> 104.673 78.3271<160.023 356.022> 105.041 50.0107<26.3212 284.845> 133 21.6729<157.678 370.401> 564.001 49.999<304.47 327.485> 612.801 50.001<531.48 554.509>
LayerCount: 2
Back
Fore
SplineSet
561.354492188 254 m 2xf860
 186 254 l 2
 151.623046875 254 133 286.952148438 133 316.049804688 c 0
 133 345.3203125 151.84375 378.102539062 185.986328125 378.100585938 c 0
 188.471679688 378.1015625 551.845703125 378.41796875 564.794921875 377.991210938 c 0
 594.342773438 376.895507812 614 344.762695312 614 316.049804688 c 0
 614 286.3984375 594.727539062 254.947265625 561.354492188 254 c 2xf860
559.727539062 304 m 2
 560.528320312 304.599609375 564.000976562 308.568359375 564.000976562 316.048828125 c 0
 564.000976562 322.750976562 561.215820312 326.978515625 559.939453125 328.116210938 c 0
 542.036132812 328.26953125 208.873046875 328.111328125 187.1328125 328.099609375 c 0
 186.073242188 327.15625 183 322.83203125 183 316.049804688 c 0xf920
 183 309.35546875 185.803710938 305.104492188 187.041992188 304 c 2
 559.727539062 304 l 2
105.041015625 29.052734375 m 0xfa80
 104.97265625 41.9892578125 104.672851562 177.327148438 104.672851562 290.297851562 c 0
 104.672851562 422.908203125 213.98828125 530.973632812 339.801757812 530.973632812 c 0
 445.978515625 530.973632812 594.607421875 530.950195312 608.759765625 530.948242188 c 0
 609.717773438 531.802734375 612.80078125 536.095703125 612.80078125 542.998046875 c 0
 612.80078125 549.6953125 610.00390625 553.9375 608.751953125 555.0546875 c 0
 598.315429688 555.12109375 492.841796875 555.76953125 339.80078125 555.76953125 c 0
 193.591796875 555.76953125 82.78125 438.497070312 72.2294921875 289.877929688 c 0xfd10
 72.828125 272.032226562 80.599609375 40.3515625 80.931640625 29.0859375 c 0
 81.8818359375 28.0205078125 86.0888671875 24.998046875 93.0009765625 24.998046875 c 0
 99.697265625 24.998046875 103.899414062 27.7724609375 105.041015625 29.052734375 c 0xfa80
155.051757812 27.9150390625 m 0xf880
 154.938476562 -6.3310546875 122.163085938 -25.001953125 93.0009765625 -25.001953125 c 0
 62.9208984375 -25.001953125 32.232421875 -4.7275390625 31.0068359375 25.775390625 c 0xfa80
 30.6181640625 39.3271484375 22.25390625 288.33203125 22.2158203125 289.458984375 c 0
 22.189453125 290.247070312 22.216796875 291.344726562 22.255859375 291.93359375 c 0
 33.4755859375 463.008789062 163.560546875 605.76953125 339.801757812 605.76953125 c 0
 501.434570312 605.76953125 609.883789062 605.047851562 609.883789062 605.047851562 c 2
 644.108398438 605.047851562 662.801757812 572.095703125 662.801757812 542.998046875 c 0
 662.801757812 513.87109375 644.194335938 480.948242188 609.797851562 480.948242188 c 2
 609.797851562 480.948242188 451.319335938 480.973632812 339.801757812 480.973632812 c 0
 242.576171875 480.973632812 154.672851562 395.482421875 154.672851562 290.297851562 c 0xfc50
 154.672851562 174.301757812 154.987304688 36.3203125 155.051757812 27.9150390625 c 0xf880
EndSplineSet
EndChar

StartChar: G
Encoding: 71 71 40
GlifName: G_
Width: 701
GlyphClass: 2
Flags: W
HStem: -25.1719 49.999<246.028 617.804 617.883 619.476> 49.623 50.001<268.574 546.693> 311.599 50<597.216 620.242> 480.976 49.999<268.574 617.68 617.795 619.396> 555.771 50.001<246.028 619.476>
VStem: 30.2002 50<188.163 392.436> 112.67 50<202.863 377.736> 546.693 50.002<99.6387 310.198> 620.798 50.001<26.5576 310.202 531.481 554.511>
LayerCount: 2
Back
Fore
SplineSet
617.8828125 605.049804688 m 0
 652.107421875 605.049804688 670.798828125 572.09765625 670.798828125 543 c 0
 670.798828125 513.873046875 652.19140625 480.950195312 617.794921875 480.950195312 c 2
 617.794921875 480.950195312 459.31640625 480.975585938 347.798828125 480.975585938 c 0
 250.573242188 480.975585938 162.669921875 395.484375 162.669921875 290.299804688 c 0
 162.669921875 185.115234375 250.573242188 99.6240234375 347.798828125 99.6240234375 c 0
 411.416015625 99.6240234375 492.078125 99.6318359375 546.693359375 99.638671875 c 1
 546.673828125 308.59765625 l 2
 546.671875 342.975585938 579.626953125 361.598632812 608.724609375 361.598632812 c 0
 637.850585938 361.598632812 670.774414062 342.987304688 670.774414062 308.6015625 c 2
 670.799804688 37.5849609375 l 2
 670.783203125 8.4609375 652.119140625 -24.4501953125 617.8828125 -24.4501953125 c 2
 617.8828125 -24.4501953125 509.43359375 -25.171875 347.799804688 -25.171875 c 0
 172.631835938 -25.171875 30.2001953125 116.205078125 30.2001953125 290.299804688 c 0
 30.2001953125 464.39453125 172.631835938 605.771484375 347.799804688 605.771484375 c 0
 509.374023438 605.771484375 617.842773438 605.049804688 617.8828125 605.049804688 c 0
616.749023438 555.055664062 m 0
 606.3125 555.122070312 500.840820312 555.770507812 347.799804688 555.770507812 c 0
 199.967773438 555.770507812 80.2001953125 436.467773438 80.2001953125 290.298828125 c 0
 80.2001953125 144.129882812 199.967773438 24.8271484375 347.799804688 24.8271484375 c 0
 500.327148438 24.8271484375 605.323242188 25.4697265625 616.749023438 25.54296875 c 0
 617.711914062 26.4013671875 620.794921875 30.6884765625 620.798828125 37.6123046875 c 2
 620.7734375 307.556640625 l 2
 619.91796875 308.515625 615.625 311.598632812 608.723632812 311.598632812 c 0
 602.028320312 311.598632812 597.776367188 308.793945312 596.673828125 307.557617188 c 2
 596.6953125 74.6435546875 l 2
 596.696289062 62.12109375 585.900390625 49.6435546875 571.698242188 49.6416015625 c 0
 516.352539062 49.6337890625 421.751953125 49.623046875 347.798828125 49.623046875 c 0
 221.985351562 49.623046875 112.669921875 157.688476562 112.669921875 290.298828125 c 0
 112.669921875 422.909179688 221.985351562 530.974609375 347.798828125 530.974609375 c 0
 453.975585938 530.974609375 602.604492188 530.951171875 616.756835938 530.94921875 c 0
 617.71484375 531.803710938 620.797851562 536.096679688 620.797851562 542.999023438 c 0
 620.797851562 549.696289062 618.000976562 553.938476562 616.749023438 555.055664062 c 0
EndSplineSet
AlternateSubs2: "'salt' Stylistic Alternatives in Latin lookup 0 subtable" uniE003
EndChar

StartChar: H
Encoding: 72 72 41
GlifName: H_
Width: 663
GlyphClass: 2
Flags: W
HStem: -24.999 49.999<82.9883 106.992 547.254 580.336> 375.131 49.998<245.888 411.818> 457.6 50.002<232.669 429.777> 593 50.001<83.6104 106.629>
VStem: 32.0332 49.9941<25.4252 592.871> 107.099 50<26.4021 278.842 445.18 591.933> 506.18 49.999<26.4122 28.0137 28.0507 277.043> 580.975 50.001<25.3335 298.439>
LayerCount: 2
Back
Fore
SplineSet
94.8095703125 25 m 0
 101.622070312 25 105.994140625 27.8046875 107.098632812 29.04296875 c 2
 107.098632812 200.233398438 l 2
 107.098632812 200.544921875 107.111328125 201.137695312 107.133789062 201.557617188 c 0
 113.38671875 319.383789062 198.895507812 425.12890625 329.502929688 425.12890625 c 0
 463.70703125 425.12890625 556.178710938 313.509765625 556.178710938 190 c 0
 556.178710938 88.0556640625 556.157226562 37.2880859375 556.153320312 29.041015625 c 0
 557.006835938 28.083984375 561.30078125 25 568.203125 25 c 0
 574.916015625 25 579.100585938 27.75 580.301757812 29.0966796875 c 0
 580.509765625 34.75 580.974609375 58.0009765625 580.974609375 190 c 0
 580.974609375 339.50390625 474.509765625 457.599609375 329.502929688 457.599609375 c 0
 252.505859375 457.599609375 201.180664062 425.643554688 150.696289062 369.443359375 c 0
 118.350585938 333.436523438 107.09765625 386.150390625 107.09765625 386.150390625 c 1
 107.09765625 588.727539062 l 2
 106.498046875 589.528320312 102.52734375 593 95.046875 593 c 0
 88.345703125 593 84.1142578125 590.211914062 82.982421875 588.942382812 c 0
 82.8828125 575.571289062 82.8994140625 371.188476562 82.939453125 213.313476562 c 0
 82.939453125 212.848632812 82.9111328125 211.973632812 82.8623046875 211.350585938 c 0
 82.3095703125 204.310546875 82.02734375 197.19140625 82.02734375 190 c 0
 82.02734375 58.92578125 82.47265625 35.2685546875 82.7001953125 29.09765625 c 0
 83.6513671875 28.0302734375 87.8837890625 25 94.8095703125 25 c 0
94.455078125 -24.9990234375 m 0
 64.4169921875 -24.9990234375 33.96875 -5.5908203125 32.7626953125 26.9404296875 c 0
 32.5146484375 31.0185546875 32.033203125 48.1220703125 32.033203125 190.000976562 c 0
 32.033203125 197.850585938 32.4912109375 208.235351562 32.943359375 214.264648438 c 0
 32.9013671875 378.524414062 32.82421875 585.783203125 33.0224609375 591.28125 c 0
 34.2890625 625.44921875 66.302734375 643.000976562 95.0498046875 643.000976562 c 0
 124.704101562 643.000976562 156.137695312 624.254882812 157.099609375 590.35546875 c 2
 157.099609375 445.1796875 l 1
 205.233398438 484.744140625 259.559570312 507.6015625 329.50390625 507.6015625 c 0
 504.760742188 507.6015625 630.975585938 363.498046875 630.975585938 190.001953125 c 0
 630.975585938 47.173828125 630.473632812 30.681640625 630.24609375 26.94140625 c 0
 628.963867188 -7.6298828125 596.9453125 -24.998046875 568.204101562 -24.998046875 c 0
 539.077148438 -24.998046875 506.154296875 -6.3974609375 506.154296875 28.013671875 c 2
 506.154296875 28.013671875 506.1796875 78.4814453125 506.1796875 190.001953125 c 0
 506.1796875 289.53125 433.094726562 375.130859375 329.50390625 375.130859375 c 0
 229.357421875 375.130859375 162.525390625 295.060546875 157.098632812 199.5546875 c 1
 157.098632812 28.001953125 l 2
 157.098632812 -6.375 123.713867188 -24.9990234375 94.455078125 -24.9990234375 c 0
EndSplineSet
AlternateSubs2: "'salt' Stylistic Alternatives in Latin lookup 0 subtable" uniE004
EndChar

StartChar: I
Encoding: 73 73 42
GlifName: I_
Width: 197
GlyphClass: 2
Flags: W
HStem: -25.001 50.001<87.0107 110.056> 565.001 49.999<87.1127 110.127>
VStem: 36.4971 50<26.3997 564.999> 110.598 50<26.4001 563.909>
LayerCount: 2
Back
Fore
SplineSet
160.595703125 562.354492188 m 2
 160.59765625 28 l 2
 160.59765625 -6.376953125 127.645507812 -25.0009765625 98.5478515625 -25.0009765625 c 0
 69.27734375 -25.0009765625 36.4951171875 -6.16015625 36.4970703125 27.9892578125 c 0
 36.49609375 30.7333984375 36.16015625 552.334960938 36.619140625 566.163085938 c 0
 37.689453125 595.033203125 69.837890625 615 98.5458984375 615 c 0
 128.197265625 615 159.6484375 595.727539062 160.595703125 562.354492188 c 2
110.59765625 560.727539062 m 2
 109.998046875 561.528320312 106.028320312 565.000976562 98.5478515625 565.000976562 c 0
 91.8466796875 565.000976562 87.6162109375 562.212890625 86.4833984375 560.942382812 c 0
 86.3212890625 539.002929688 86.486328125 56.9384765625 86.4970703125 29.1328125 c 0
 87.4404296875 28.0732421875 91.765625 25 98.5478515625 25 c 0
 105.2421875 25 109.493164062 27.8037109375 110.59765625 29.0419921875 c 2
 110.59765625 560.727539062 l 2
EndSplineSet
EndChar

StartChar: J
Encoding: 74 74 43
GlifName: J_
Width: 691
GlyphClass: 2
Flags: W
HStem: -25 50<76.5243 78.1172 78.1964 449.274> 49.7959 50<76.6024 78.2031 78.3184 427.424> 555.771 50<583.491 607.332>
VStem: 25.1992 50.001<26.2603 49.2895> 533.328 50<203.72 554.448> 607.069 49.9248<340.331 555.769> 615.771 50.0137<288.864 503.415>
LayerCount: 2
Back
Fore
SplineSet
582.959960938 551.716796875 m 0xfc
 583.028320312 538.780273438 583.328125 403.442382812 583.328125 290.471679688 c 0
 583.328125 157.861328125 474.012695312 49.7958984375 348.19921875 49.7958984375 c 0
 242.022460938 49.7958984375 93.3935546875 49.8193359375 79.2412109375 49.8212890625 c 0
 78.283203125 48.966796875 75.2001953125 44.673828125 75.2001953125 37.771484375 c 0
 75.2001953125 31.07421875 77.9970703125 26.83203125 79.2490234375 25.71484375 c 0
 89.685546875 25.6484375 195.159179688 25 348.200195312 25 c 0
 494.409179688 25 605.219726562 142.272460938 615.771484375 290.891601562 c 0xfa
 615.172851562 308.737304688 607.401367188 540.41796875 607.069335938 551.68359375 c 0
 606.119140625 552.749023438 601.912109375 555.771484375 595 555.771484375 c 0
 588.303710938 555.771484375 584.1015625 552.997070312 582.959960938 551.716796875 c 0xfc
532.94921875 552.854492188 m 0
 533.0625 587.100585938 565.837890625 605.771484375 595 605.771484375 c 0
 625.080078125 605.771484375 655.768554688 585.497070312 656.994140625 554.994140625 c 0xfc
 657.3828125 541.442382812 665.747070312 292.4375 665.78515625 291.310546875 c 0
 665.811523438 290.522460938 665.784179688 289.424804688 665.745117188 288.8359375 c 0
 654.525390625 117.760742188 524.440429688 -25 348.19921875 -25 c 0
 186.56640625 -25 78.1171875 -24.2783203125 78.1171875 -24.2783203125 c 2
 43.892578125 -24.2783203125 25.19921875 8.673828125 25.19921875 37.771484375 c 0
 25.19921875 66.8984375 43.806640625 99.8212890625 78.203125 99.8212890625 c 2
 78.203125 99.8212890625 236.681640625 99.7958984375 348.19921875 99.7958984375 c 0
 445.424804688 99.7958984375 533.328125 185.287109375 533.328125 290.471679688 c 0
 533.328125 406.467773438 533.013671875 544.44921875 532.94921875 552.854492188 c 0
EndSplineSet
EndChar

StartChar: K
Encoding: 75 75 44
GlifName: K_
Width: 571
GlyphClass: 2
Flags: W
HStem: -25 50<74.0063 127.566 449.557 493.338> 592.999 50<73.2439 96.2587 415.612 459.032>
VStem: 22.6289 49.9971<26.3997 592.998> 96.7275 50.002<228.264 591.931>
LayerCount: 2
Back
Fore
SplineSet
542.078125 40.73828125 m 0
 545.5625 34.9599609375 548.288085938 27.3525390625 548.44921875 19.4169921875 c 0
 549.139648438 -14.69140625 514.321289062 -25 491.131835938 -25 c 0
 458.6171875 -25 422.494140625 -11.388671875 406.42578125 15.2626953125 c 2
 290.05859375 215.409179688 l 1
 169.282226562 15.091796875 l 2
 153.235351562 -11.5234375 116.98828125 -25 84.6787109375 -25 c 0
 64.486328125 -25 42.919921875 -18.08984375 32.80078125 -1.1240234375 c 0
 26.017578125 8.0185546875 22.62890625 16.8681640625 22.62890625 27.990234375 c 0
 22.6279296875 30.5947265625 22.2978515625 580.505859375 22.75390625 594.209960938 c 0
 23.8212890625 622.994140625 55.9716796875 642.999023438 84.6796875 642.999023438 c 0
 114.333984375 642.999023438 145.767578125 624.252929688 146.729492188 590.353515625 c 2
 146.729492188 228.263671875 l 1
 219.975585938 349.799804688 l 1
 221.50390625 365.896484375 230.716796875 375.45703125 238.797851562 381.02734375 c 1
 310.80078125 500.479492188 370.013671875 598.736328125 373.177734375 603.704101562 c 0
 390.029296875 630.083984375 425.126953125 642.999023438 457.290039062 642.999023438 c 0
 469.71875 642.999023438 481.298828125 640.946289062 491.635742188 635.405273438 c 0
 511.830078125 624.580078125 520.502929688 598.87890625 508.30078125 577.375 c 2
 366.428710938 342.069335938 l 1
 401.70703125 282.010742188 540.259765625 43.8662109375 542.078125 40.73828125 c 0
493.357421875 25.044921875 m 1
 464.193359375 75.1650390625 325.869140625 312.822265625 316.208984375 328.736328125 c 0
 311.841796875 335.870117188 310.788085938 346.622070312 315.883789062 355.073242188 c 2
 459.3125 592.9609375 l 2
 459.229492188 592.963867188 457.921875 592.999023438 457.288085938 592.999023438 c 0
 437.34765625 592.999023438 417.543945312 580.475585938 415.502929688 577.08984375 c 0
 414.986328125 576.233398438 415.760742188 577.513671875 415.236328125 576.662109375 c 0
 410.962890625 569.727539062 348.383789062 465.98046875 278.171875 349.49609375 c 0
 276.629882812 346.938476562 273.890625 343.758789062 270.313476562 341.392578125 c 0
 269.877929688 337.72265625 268.796875 333.944335938 266.8046875 330.638671875 c 0
 223.583984375 258.930664062 178.53515625 184.174804688 143.140625 125.434570312 c 0
 122.362304688 90.951171875 96.7275390625 138.337890625 96.7275390625 138.337890625 c 1
 96.7275390625 588.727539062 l 2
 96.1279296875 589.528320312 92.1572265625 593 84.6767578125 593 c 0
 77.9755859375 593 73.744140625 590.211914062 72.6123046875 588.942382812 c 0
 72.4501953125 567.05078125 72.6162109375 56.8828125 72.6259765625 29.130859375 c 0
 73.0234375 28.666015625 73.990234375 27.435546875 74.693359375 26.3486328125 c 0
 75.9189453125 25.916015625 79.5751953125 25 84.6767578125 25 c 0
 104.615234375 25 124.420898438 37.5234375 126.461914062 40.908203125 c 2
 269.0390625 277.3828125 l 2
 292.907226562 316.969726562 312.061523438 277.040039062 312.061523438 277.040039062 c 1
 449.44921875 40.7373046875 l 2
 451.46875 37.388671875 471.397460938 25 491.130859375 25 c 0
 492.086914062 25 491.328125 24.9814453125 493.357421875 25.044921875 c 1
EndSplineSet
EndChar

StartChar: L
Encoding: 76 76 45
GlifName: L_
Width: 681
GlyphClass: 2
Flags: W
HStem: -25 50<236.727 607.805 607.884 609.478> 49.7959 50<258.575 609.401> 555.771 50.001<78.7857 102.519>
VStem: 20.2549 49.9736<199.231 500.74> 28.9521 49.9756<343.385 554.792> 102.671 50.001<203.72 554.517> 610.8 50.001<26.251 49.2797>
LayerCount: 2
Back
Fore
SplineSet
153.049804688 552.922851562 m 0xee
 152.974609375 543.141601562 152.671875 406.124023438 152.671875 290.471679688 c 0
 152.671875 185.287109375 240.575195312 99.7958984375 337.80078125 99.7958984375 c 0
 449.3203125 99.7958984375 607.791992188 99.8212890625 607.80078125 99.8212890625 c 0
 642.176757812 99.8212890625 660.80078125 66.8701171875 660.80078125 37.771484375 c 0
 660.80078125 8.6455078125 642.127929688 -24.2783203125 607.883789062 -24.2783203125 c 2
 607.883789062 -24.2783203125 499.434570312 -25 337.80078125 -25 c 0
 161.5625 -25 31.474609375 117.76171875 20.2548828125 288.8359375 c 0xf6
 20.203125 289.62109375 20.1953125 290.716796875 20.21484375 291.3046875 c 2
 28.9521484375 553.229492188 l 2
 29.0634765625 586.787109375 61.83984375 605.771484375 91.0009765625 605.771484375 c 0
 120.190429688 605.771484375 152.936523438 587.182617188 153.049804688 552.922851562 c 0xee
103.040039062 551.716796875 m 0
 102.147460938 552.717773438 97.90234375 555.770507812 91 555.770507812 c 0
 84.2919921875 555.770507812 80.1328125 553.03125 78.927734375 551.6796875 c 2xee
 70.228515625 290.893554688 l 1
 80.697265625 143.446289062 191.026367188 25 337.799804688 25 c 0
 490.328125 25 595.321289062 25.642578125 606.750976562 25.7158203125 c 0
 607.723632812 26.5830078125 610.799804688 30.8681640625 610.799804688 37.771484375 c 0
 610.799804688 44.466796875 607.99609375 48.7177734375 606.7578125 49.8212890625 c 0
 593.970703125 49.8193359375 444.286132812 49.7958984375 337.799804688 49.7958984375 c 0
 211.986328125 49.7958984375 102.670898438 157.861328125 102.670898438 290.471679688 c 0
 102.670898438 403.098632812 102.96484375 537.4765625 103.040039062 551.716796875 c 0
EndSplineSet
EndChar

StartChar: M
Encoding: 77 77 46
GlifName: M_
Width: 1066
GlyphClass: 2
Flags: W
HStem: -24.999 50.001<85.2055 108.234 521.609 545.21 957.756 980.785> 483.13 50.001<236.505 394.177 672.823 830.325> 565.602 49.998<217.816 408.587 658.587 849.051>
VStem: 33.9551 50.001<26.3241 27.918 27.9972 415.89> 108.75 50<26.4012 395.576> 471.102 50<26.4041 28.0049 28.1202 398.291> 545.898 50<26.4011 398.29> 907.25 50<26.4042 28.0049 28.1202 398.29> 982.045 50<26.3241 415.949>
LayerCount: 2
Back
Fore
SplineSet
1031.32421875 27.9169921875 m 0
 1031.32421875 -6.3076171875 998.37109375 -24.9990234375 969.2734375 -24.9990234375 c 0
 940.145507812 -24.9990234375 907.224609375 -6.390625 907.224609375 28.0048828125 c 2
 907.224609375 28.0048828125 907.25 186.483398438 907.25 298.000976562 c 0
 907.25 401.389648438 852.661132812 483.129882812 751.57421875 483.129882812 c 0
 650.485351562 483.129882812 595.8984375 401.389648438 595.8984375 298.000976562 c 0
 595.8984375 186.481445312 595.923828125 28.009765625 595.923828125 28.0009765625 c 0
 595.923828125 -6.3759765625 563.536132812 -24.9990234375 533.126953125 -24.9990234375 c 0
 504.000976562 -24.9990234375 471.076171875 -6.392578125 471.076171875 28.0048828125 c 2
 471.076171875 28.0048828125 471.1015625 186.483398438 471.1015625 298.000976562 c 0
 471.1015625 401.390625 416.513671875 483.129882812 315.42578125 483.129882812 c 0
 214.216796875 483.129882812 158.75 401.194335938 158.75 298.000976562 c 0
 158.75 186.481445312 158.775390625 28.009765625 158.775390625 28.0009765625 c 0
 158.775390625 -6.3740234375 125.826171875 -24.9990234375 96.7265625 -24.9990234375 c 0
 67.6005859375 -24.9990234375 34.67578125 -6.3271484375 34.67578125 27.91796875 c 2
 34.67578125 27.91796875 33.955078125 136.3671875 33.955078125 298 c 0
 33.955078125 468.912109375 138.447265625 615.599609375 315.42578125 615.599609375 c 0
 419.122070312 615.599609375 485.333007812 562.5234375 533.5 489.739257812 c 1
 582.48046875 563.75390625 648.232421875 615.599609375 751.57421875 615.599609375 c 0
 928.639648438 615.599609375 1032.04492188 468.77734375 1032.04492188 298 c 0
 1032.04492188 136.42578125 1031.32421875 27.95703125 1031.32421875 27.9169921875 c 0
981.330078125 29.0498046875 m 0
 981.396484375 39.4853515625 982.044921875 144.9609375 982.044921875 298.001953125 c 0
 982.044921875 450.224609375 894.770507812 565.6015625 751.57421875 565.6015625 c 0
 654.890625 565.6015625 603.491210938 515.225585938 555.302734375 429.33984375 c 0
 532.16015625 388.092773438 511.697265625 429.33984375 511.697265625 429.33984375 c 1
 463.508789062 515.225585938 412.109375 565.6015625 315.42578125 565.6015625 c 0
 172.142578125 565.6015625 83.9560546875 450.08984375 83.9560546875 298.001953125 c 0
 83.9560546875 145.473632812 84.59765625 40.48046875 84.669921875 29.05078125 c 0
 85.537109375 28.078125 89.822265625 25.001953125 96.7265625 25.001953125 c 0
 103.421875 25.001953125 107.671875 27.8056640625 108.775390625 29.04296875 c 0
 108.7734375 41.8310546875 108.75 191.514648438 108.75 298.001953125 c 0
 108.75 417.84765625 178.841796875 533.130859375 315.42578125 533.130859375 c 0
 452.134765625 533.130859375 521.1015625 417.651367188 521.1015625 298.001953125 c 0
 521.1015625 191.825195312 521.078125 43.1953125 521.076171875 29.04296875 c 0
 521.930664062 28.0849609375 526.224609375 25.0009765625 533.126953125 25.0009765625 c 0
 541.284179688 25.0009765625 544.692382812 27.6611328125 545.923828125 29.0419921875 c 0
 545.921875 41.828125 545.8984375 191.513671875 545.8984375 298 c 0
 545.8984375 417.650390625 614.866210938 533.12890625 751.57421875 533.12890625 c 0
 888.280273438 533.12890625 957.25 417.650390625 957.25 298 c 0
 957.25 191.823242188 957.2265625 43.1953125 957.224609375 29.0419921875 c 0
 958.079101562 28.083984375 962.37109375 25.0009765625 969.2734375 25.0009765625 c 0
 975.970703125 25.0009765625 980.213867188 27.7978515625 981.330078125 29.0498046875 c 0
EndSplineSet
EndChar

StartChar: N
Encoding: 78 78 47
GlifName: N_
Width: 699
GlyphClass: 2
Flags: W
HStem: -25 50<85.2788 108.308 590.682 613.711> 483.129 50<262.063 436.936> 565.6 50<247.363 451.636>
VStem: 34.0283 49.999<26.3232 27.917 27.9962 399.772> 108.823 50.001<26.4002 377.225> 540.176 49.999<26.4031 28.0039 28.1192 377.225> 614.971 50.001<26.3241 399.772>
LayerCount: 2
Back
Fore
SplineSet
664.25 27.9169921875 m 0
 664.25 -6.3076171875 631.297851562 -25 602.200195312 -25 c 0
 573.073242188 -25 540.150390625 -6.392578125 540.150390625 28.00390625 c 2
 540.150390625 28.00390625 540.17578125 186.482421875 540.17578125 298 c 0
 540.17578125 395.225585938 454.684570312 483.12890625 349.5 483.12890625 c 0
 244.315429688 483.12890625 158.82421875 395.225585938 158.82421875 298 c 0
 158.82421875 186.48046875 158.849609375 28.0087890625 158.849609375 28 c 0
 158.849609375 -6.3759765625 125.8984375 -25 96.7998046875 -25 c 0
 67.673828125 -25 34.75 -6.3271484375 34.75 27.9169921875 c 2
 34.75 27.9169921875 34.0283203125 136.366210938 34.0283203125 298 c 0
 34.0283203125 473.16796875 175.405273438 615.599609375 349.5 615.599609375 c 0
 523.594726562 615.599609375 664.971679688 473.16796875 664.971679688 298 c 0
 664.971679688 136.42578125 664.25 27.95703125 664.25 27.9169921875 c 0
614.255859375 29.0498046875 m 0
 614.322265625 39.486328125 614.970703125 144.958984375 614.970703125 298 c 0
 614.970703125 445.83203125 495.66796875 565.599609375 349.499023438 565.599609375 c 0
 203.330078125 565.599609375 84.02734375 445.83203125 84.02734375 298 c 0
 84.02734375 145.471679688 84.669921875 40.478515625 84.7431640625 29.048828125 c 0
 85.6103515625 28.076171875 89.8955078125 25 96.798828125 25 c 0
 103.494140625 25 107.745117188 27.8037109375 108.848632812 29.0419921875 c 0
 108.846679688 41.8291015625 108.823242188 191.513671875 108.823242188 298 c 0
 108.823242188 423.813476562 216.888671875 533.12890625 349.499023438 533.12890625 c 0
 482.109375 533.12890625 590.174804688 423.813476562 590.174804688 298 c 0
 590.174804688 191.823242188 590.151367188 43.1943359375 590.149414062 29.0419921875 c 0
 591.00390625 28.083984375 595.296875 25.0009765625 602.19921875 25.0009765625 c 0
 608.896484375 25.0009765625 613.138671875 27.7978515625 614.255859375 29.0498046875 c 0
EndSplineSet
EndChar

StartChar: O
Encoding: 79 79 48
GlifName: O_
Width: 716
GlyphClass: 2
Flags: W
HStem: -25 50<250.423 465.577> 57.4707 50<265.888 450.112> 477.729 50<265.888 450.112> 560.199 50<250.423 465.577>
VStem: 27.2402 50<189.643 395.556> 105.973 50<211.973 373.226> 560.027 50<211.973 373.226> 638.76 50<189.643 395.556>
LayerCount: 2
Back
Fore
SplineSet
105.97265625 292.599609375 m 0
 105.97265625 419.515625 220.239257812 527.728515625 358 527.728515625 c 0
 495.759765625 527.728515625 610.02734375 419.515625 610.02734375 292.599609375 c 0
 610.02734375 165.682617188 495.760742188 57.470703125 358 57.470703125 c 0
 220.240234375 57.470703125 105.97265625 165.682617188 105.97265625 292.599609375 c 0
155.97265625 292.599609375 m 0
 155.97265625 196.475585938 245.44921875 107.470703125 358 107.470703125 c 0
 470.549804688 107.470703125 560.02734375 196.475585938 560.02734375 292.599609375 c 0
 560.02734375 388.72265625 470.55078125 477.728515625 358 477.728515625 c 0
 245.450195312 477.728515625 155.97265625 388.72265625 155.97265625 292.599609375 c 0
77.240234375 292.599609375 m 0
 77.240234375 145.86328125 202.305664062 25 358 25 c 0
 513.694335938 25 638.759765625 145.86328125 638.759765625 292.599609375 c 0
 638.759765625 439.3359375 513.694335938 560.19921875 358 560.19921875 c 0
 202.305664062 560.19921875 77.240234375 439.3359375 77.240234375 292.599609375 c 0
27.240234375 292.599609375 m 0
 27.240234375 468.86328125 176.575195312 610.19921875 358 610.19921875 c 0
 539.424804688 610.19921875 688.759765625 468.86328125 688.759765625 292.599609375 c 0
 688.759765625 116.3359375 539.424804688 -25 358 -25 c 0
 176.575195312 -25 27.240234375 116.3359375 27.240234375 292.599609375 c 0
EndSplineSet
EndChar

StartChar: P
Encoding: 80 80 49
GlifName: P_
Width: 726
GlyphClass: 2
Flags: W
HStem: -132.286 50.4951<83.0609 106.066> -25 50<252.921 470.577> 57.4707 50<270.89 455.114> 477.729 50<270.89 455.114> 560.199 50<255.423 470.577>
VStem: 32.75 49.9814<-81.9806 394.793> 106.851 49.999<-81.791 44.3457 221.407 363.792> 565.029 50<211.973 373.226> 643.76 50<189.643 395.556>
LayerCount: 2
Back
Fore
SplineSet
32.75 -95.5458984375 m 2
 32.240234375 292.583984375 l 2
 32.240234375 468.876953125 181.575195312 610.19921875 363 610.19921875 c 0
 544.424804688 610.19921875 693.759765625 468.86328125 693.759765625 292.599609375 c 0
 693.759765625 116.3359375 544.424804688 -25 363 -25 c 0
 285.084960938 -25 212.286132812 1.849609375 156.844726562 44.345703125 c 1
 156.849609375 -96.529296875 l 2
 156.849609375 -138.420898438 105.10546875 -132.2265625 97.9931640625 -132.286132812 c 0
 89.453125 -132.357421875 32.75 -139.41015625 32.75 -95.5458984375 c 2
82.7314453125 -81.384765625 m 1
 89.716796875 -82.298828125 99.4375 -82.560546875 106.850585938 -81.791015625 c 1
 106.84375 101.221679688 l 2
 106.84375 149.645507812 150.376953125 118 150.376953125 118 c 1
 201.82421875 61.169921875 277.946289062 25 363 25 c 0
 518.694335938 25 643.759765625 145.86328125 643.759765625 292.599609375 c 0
 643.759765625 439.3359375 518.694335938 560.19921875 363 560.19921875 c 0
 207.305664062 560.19921875 82.240234375 439.3359375 82.240234375 292.599609375 c 2
 82.7314453125 -81.384765625 l 1
615.029296875 292.599609375 m 0
 615.029296875 165.682617188 500.762695312 57.470703125 363.001953125 57.470703125 c 0
 225.2421875 57.470703125 110.974609375 165.682617188 110.974609375 292.599609375 c 0
 110.974609375 419.515625 225.241210938 527.728515625 363.001953125 527.728515625 c 0
 500.76171875 527.728515625 615.029296875 419.515625 615.029296875 292.599609375 c 0
565.029296875 292.599609375 m 0
 565.029296875 388.72265625 475.552734375 477.728515625 363.001953125 477.728515625 c 0
 250.452148438 477.728515625 160.974609375 388.72265625 160.974609375 292.599609375 c 0
 160.974609375 196.475585938 250.451171875 107.470703125 363.001953125 107.470703125 c 0
 475.551757812 107.470703125 565.029296875 196.475585938 565.029296875 292.599609375 c 0
EndSplineSet
EndChar

StartChar: Q
Encoding: 81 81 50
GlifName: Q_
Width: 720
GlyphClass: 2
Flags: W
HStem: -132.293 50.499<617.137 639.866> -25.002 49.999<252.424 469.805> 57.4688 50<267.889 452.113> 477.727 50<267.889 452.113> 560.197 50.001<252.424 467.577>
VStem: 29.2402 50.001<189.641 395.554> 107.974 50<211.971 373.224> 566.15 50<-81.7939 44.3438 221.405 363.79> 640.269 49.9814<-81.9963 394.792>
LayerCount: 2
Back
Fore
SplineSet
690.25 -95.5458984375 m 2
 690.25 -138.846679688 634.775390625 -132.2890625 626.418945312 -132.29296875 c 0
 619.100585938 -132.295898438 566.150390625 -138.9609375 566.150390625 -96.53125 c 2
 566.155273438 44.34375 l 1
 509.411132812 0.8486328125 437.750976562 -25.001953125 360 -25.001953125 c 0
 178.575195312 -25.001953125 29.240234375 116.333984375 29.240234375 292.59765625 c 0
 29.240234375 468.861328125 178.575195312 610.198242188 360 610.198242188 c 0
 541.424804688 610.198242188 690.759765625 468.875976562 690.759765625 292.583007812 c 2
 690.25 -95.5458984375 l 2
640.268554688 -81.38671875 m 1
 640.760742188 292.630859375 l 2
 640.760742188 439.307617188 515.6953125 560.197265625 360.000976562 560.197265625 c 0
 204.306640625 560.197265625 79.2412109375 439.333984375 79.2412109375 292.596679688 c 0
 79.2412109375 145.860351562 204.306640625 24.9970703125 360.000976562 24.9970703125 c 0
 445.0546875 24.9970703125 521.176757812 61.1669921875 572.624023438 117.997070312 c 0
 605.122070312 153.895507812 616.157226562 101.21875 616.157226562 101.21875 c 1
 616.150390625 -81.7939453125 l 1
 621.986328125 -82.3994140625 631.69921875 -82.5078125 640.268554688 -81.38671875 c 1
107.973632812 292.59765625 m 0
 107.973632812 419.513671875 222.240234375 527.7265625 360.000976562 527.7265625 c 0
 497.760742188 527.7265625 612.028320312 419.513671875 612.028320312 292.59765625 c 0
 612.028320312 165.680664062 497.76171875 57.46875 360.000976562 57.46875 c 0
 222.241210938 57.46875 107.973632812 165.680664062 107.973632812 292.59765625 c 0
157.973632812 292.59765625 m 0
 157.973632812 196.473632812 247.450195312 107.46875 360.000976562 107.46875 c 0
 472.55078125 107.46875 562.028320312 196.473632812 562.028320312 292.59765625 c 0
 562.028320312 388.720703125 472.551757812 477.7265625 360.000976562 477.7265625 c 0
 247.451171875 477.7265625 157.973632812 388.720703125 157.973632812 292.59765625 c 0
EndSplineSet
EndChar

StartChar: R
Encoding: 82 82 51
GlifName: R_
Width: 686
GlyphClass: 2
Flags: W
HStem: -25 50<81.1675 105.009> 480.976 50<261.076 610.182 610.297 611.898> 555.771 50<239.226 610.304>
VStem: 22.7148 50.0137<77.3563 291.908> 31.5059 49.9248<25.0022 240.44> 105.172 50<26.3231 377.051> 613.3 50.001<531.482 554.511>
LayerCount: 2
Back
Fore
SplineSet
105.540039062 29.0546875 m 0xee
 105.471679688 41.9912109375 105.171875 177.329101562 105.171875 290.299804688 c 0
 105.171875 422.91015625 214.487304688 530.975585938 340.30078125 530.975585938 c 0
 446.477539062 530.975585938 595.106445312 530.952148438 609.258789062 530.950195312 c 0
 610.216796875 531.8046875 613.299804688 536.09765625 613.299804688 543 c 0
 613.299804688 549.697265625 610.502929688 553.939453125 609.250976562 555.056640625 c 0
 598.814453125 555.123046875 493.340820312 555.771484375 340.299804688 555.771484375 c 0
 194.090820312 555.771484375 83.2802734375 438.499023438 72.728515625 289.879882812 c 0xf6
 73.3271484375 272.034179688 81.0986328125 40.353515625 81.4306640625 29.087890625 c 0
 82.380859375 28.0224609375 86.587890625 25 93.5 25 c 0
 100.196289062 25 104.3984375 27.7744140625 105.540039062 29.0546875 c 0xee
155.55078125 27.9169921875 m 0
 155.4375 -6.3291015625 122.662109375 -25 93.5 -25 c 0
 63.419921875 -25 32.7314453125 -4.7255859375 31.505859375 25.77734375 c 0xee
 31.1171875 39.3291015625 22.7529296875 288.333984375 22.71484375 289.4609375 c 0
 22.6884765625 290.249023438 22.7158203125 291.346679688 22.7548828125 291.935546875 c 0
 33.974609375 463.010742188 164.059570312 605.771484375 340.30078125 605.771484375 c 0
 501.93359375 605.771484375 610.3828125 605.049804688 610.3828125 605.049804688 c 2
 644.607421875 605.049804688 663.30078125 572.09765625 663.30078125 543 c 0
 663.30078125 513.873046875 644.693359375 480.950195312 610.296875 480.950195312 c 2
 610.296875 480.950195312 451.818359375 480.975585938 340.30078125 480.975585938 c 0
 243.075195312 480.975585938 155.171875 395.484375 155.171875 290.299804688 c 0
 155.171875 174.303710938 155.486328125 36.322265625 155.55078125 27.9169921875 c 0
EndSplineSet
EndChar

StartChar: S
Encoding: 83 83 52
GlifName: S_
Width: 697
GlyphClass: 2
Flags: W
HStem: -24.999 49.999<80.8251 82.418 82.4972 523.271> 49.7959 50.001<80.9031 82.5039 82.6192 491.221> 227.162 49.9912<97.4697 537.113> 301.223 49.999<157.893 213.383 213.462 213.665 213.744 599.529> 478.573 50<205.778 614.38 614.495 616.096> 553.369 50<173.728 614.502>
VStem: 29.5 50<26.2608 56.1055 294.759 481.197> 107.468 50.001<355.695 438.01> 537.629 49.9717<140.358 223.669> 617.498 50.001<97.1721 283.611 522.264 552.109>
LayerCount: 2
Back
Fore
SplineSet
483.5 301.943359375 m 0
 322.04296875 301.943359375 213.665039062 301.22265625 213.665039062 301.22265625 c 2
 132.681640625 301.005859375 107.483398438 345.293945312 107.467773438 378.491210938 c 0
 107.463867188 386.545898438 108.5703125 392.68359375 109.397460938 396.630859375 c 0
 111.907226562 506.671875 236.717773438 528.573242188 344.499023438 528.573242188 c 0
 450.67578125 528.573242188 599.3046875 528.549804688 613.45703125 528.547851562 c 0
 614.415039062 529.40234375 617.498046875 533.6953125 617.498046875 540.59765625 c 0
 617.498046875 547.294921875 614.701171875 551.537109375 613.44921875 552.654296875 c 0
 603.012695312 552.720703125 497.5390625 553.369140625 344.498046875 553.369140625 c 0
 181.42578125 553.369140625 76.8984375 526.609375 76.8984375 393.897460938 c 0
 76.8984375 276.021484375 118.9296875 275.918945312 174.60546875 275.92578125 c 0
 187.0234375 275.927734375 200.147460938 276.42578125 213.498046875 276.42578125 c 0
 373.46484375 276.42578125 479.708984375 277.333007812 483.9375 277.153320312 c 0
 564.76171875 276.575195312 589.833984375 232.599609375 589.526367188 199.060546875 c 0
 589.456054688 191.390625 588.3984375 185.538085938 587.600585938 181.734375 c 0
 585.090820312 71.701171875 460.280273438 49.7958984375 352.499023438 49.7958984375 c 0
 246.322265625 49.7958984375 97.693359375 49.8193359375 83.541015625 49.8212890625 c 0
 82.5830078125 48.966796875 79.5 44.673828125 79.5 37.771484375 c 0
 79.5 31.07421875 82.296875 26.83203125 83.548828125 25.71484375 c 0
 93.9853515625 25.6484375 199.458984375 25 352.5 25 c 0
 515.572265625 25 620.099609375 51.759765625 620.099609375 184.471679688 c 0
 620.099609375 302.34765625 578.068359375 302.450195312 522.392578125 302.443359375 c 0
 509.974609375 302.44140625 496.850585938 301.943359375 483.5 301.943359375 c 0
483.5 351.943359375 m 0
 495.556640625 351.943359375 508.711914062 352.442382812 522.385742188 352.444335938 c 0
 591.576171875 352.453125 670.099609375 329.852539062 670.099609375 184.47265625 c 0
 670.099609375 4.9208984375 512.427734375 -24.9990234375 352.5 -24.9990234375 c 0
 190.8671875 -24.9990234375 82.41796875 -24.27734375 82.41796875 -24.27734375 c 2
 48.193359375 -24.27734375 29.5 8.6748046875 29.5 37.7724609375 c 0
 29.5 66.8994140625 48.107421875 99.822265625 82.50390625 99.822265625 c 2
 82.50390625 99.822265625 240.982421875 99.796875 352.5 99.796875 c 0
 467.728515625 99.796875 537.62890625 125.548828125 537.62890625 184.47265625 c 0
 537.62890625 198.00390625 539.53515625 191.620117188 539.53125 199.83203125 c 0
 539.528320312 206.673828125 543.72265625 227.234375 483.536132812 227.147460938 c 0
 483.283203125 227.147460938 482.643554688 227.162109375 482.642578125 227.162109375 c 0
 473.770507812 227.213867188 367.749023438 226.42578125 213.499023438 226.42578125 c 0
 201.442382812 226.42578125 188.287109375 225.927734375 174.61328125 225.92578125 c 0
 105.422851562 225.916992188 26.8994140625 248.517578125 26.8994140625 393.897460938 c 0
 26.8994140625 573.44921875 184.571289062 603.369140625 344.499023438 603.369140625 c 0
 506.131835938 603.369140625 614.581054688 602.647460938 614.581054688 602.647460938 c 2
 648.805664062 602.647460938 667.499023438 569.6953125 667.499023438 540.59765625 c 0
 667.499023438 511.470703125 648.891601562 478.547851562 614.495117188 478.547851562 c 2
 614.495117188 478.547851562 456.016601562 478.573242188 344.499023438 478.573242188 c 0
 229.270507812 478.573242188 159.370117188 452.821289062 159.370117188 393.897460938 c 0
 159.370117188 380.412109375 157.54296875 386.90234375 157.46875 378.828125 c 0
 157.405273438 371.874023438 152.916015625 351.060546875 213.3828125 351.221679688 c 2
 213.3828125 351.221679688 321.90234375 351.943359375 483.5 351.943359375 c 0
EndSplineSet
AlternateSubs2: "'salt' Stylistic Alternatives in Latin lookup 0 subtable" uniE016
EndChar

StartChar: T
Encoding: 84 84 53
GlifName: T_
Width: 584
GlyphClass: 2
Flags: W
HStem: -25 50.0039<280.466 303.511> 490.889 49.9971<64.0069 229.866 354.052 516.958 517.014 518.603> 565.051 49.999<65.0915 518.602>
VStem: 14 50.0049<541.566 564.58> 229.951 50.0029<26.4007 27.9902 28.2186 490.86> 304.055 49.9971<26.4001 490.889> 520.005 49.9971<541.465 564.51>
LayerCount: 2
Back
Fore
SplineSet
66.6455078125 615.049804688 m 2
 275.134765625 615.05078125 l 2
 281.8671875 616.579101562 286.03515625 617.000976562 292.002929688 617.000976562 c 0
 297.633789062 617.000976562 305.115234375 615.899414062 308.833007812 615.05078125 c 2
 517.001953125 615.05078125 l 2
 551.37890625 615.05078125 570.001953125 582.098632812 570.001953125 553.000976562 c 0
 570.001953125 523.73046875 551.16015625 490.948242188 517.013671875 490.950195312 c 2
 517.013671875 490.950195312 440.477539062 490.915039062 354.051757812 490.888671875 c 1
 354.051757812 28 l 2
 354.051757812 -6.376953125 321.099609375 -25 292.001953125 -25 c 0
 262.731445312 -25 229.94921875 -6.1591796875 229.951171875 27.990234375 c 2
 229.951171875 27.990234375 229.827148438 342.235351562 229.866210938 490.860351562 c 1
 140.564453125 490.849609375 72.5576171875 490.763671875 64.1298828125 491.025390625 c 0
 32.8837890625 492.18359375 14 524.27734375 14 553 c 0
 14 582.651367188 33.2724609375 614.102539062 66.6455078125 615.049804688 c 2
68.275390625 565.05078125 m 2
 67.474609375 564.451171875 64.0048828125 560.485351562 64.0048828125 553.004882812 c 0
 64.0048828125 546.303710938 66.791015625 542.07421875 68.064453125 540.939453125 c 0
 76.3369140625 540.872070312 161.486328125 540.853515625 254.875976562 540.869140625 c 0
 268.522460938 540.87109375 279.88671875 529.467773438 279.879882812 515.857421875 c 0
 279.817382812 384.446289062 279.9453125 52.4912109375 279.954101562 29.13671875 c 0
 280.897460938 28.0771484375 285.22265625 25.00390625 292.004882812 25.00390625 c 0
 298.69921875 25.00390625 302.950195312 27.8076171875 304.0546875 29.0458984375 c 2
 304.0546875 515.885742188 l 2
 304.0546875 528.397460938 314.84375 540.881835938 329.047851562 540.885742188 c 0
 421.150390625 540.911132812 504.37109375 540.948242188 515.872070312 540.953125 c 0
 516.931640625 541.896484375 520.004882812 546.220703125 520.004882812 553.002929688 c 0
 520.004882812 559.697265625 517.201171875 563.948242188 515.962890625 565.052734375 c 2
 305.55078125 565.052734375 l 2
 303.586914062 565.052734375 300.616210938 565.427734375 298.323242188 566.120117188 c 0
 296.5625 566.651367188 294.440429688 567.001953125 292.00390625 567.001953125 c 0
 289.567382812 567.001953125 287.3984375 566.6484375 285.5859375 566.104492188 c 0
 283.719726562 565.544921875 280.783203125 565.05078125 278.404296875 565.05078125 c 2
 68.275390625 565.05078125 l 2
EndSplineSet
EndChar

StartChar: U
Encoding: 85 85 54
GlifName: U_
Width: 696
GlyphClass: 2
Flags: W
HStem: -25 50<245.863 450.137> 57.4717 49.999<260.564 435.436> 565.6 50<83.7886 106.818 589.192 612.221>
VStem: 32.5283 50<190.828 562.602> 107.324 50<213.375 562.48 562.596 564.196> 538.676 50<213.375 564.199> 613.472 50<190.828 562.603 562.683 564.283>
LayerCount: 2
Back
Fore
SplineSet
662.75 562.682617188 m 2
 662.75 562.682617188 663.471679688 454.233398438 663.471679688 292.599609375 c 0
 663.471679688 117.431640625 522.094726562 -25 348 -25 c 0
 173.905273438 -25 32.5283203125 117.431640625 32.5283203125 292.599609375 c 0
 32.5283203125 454.232421875 33.25 562.681640625 33.25 562.681640625 c 2
 33.25 596.90625 66.2021484375 615.599609375 95.2998046875 615.599609375 c 0
 124.426757812 615.599609375 157.349609375 596.9921875 157.349609375 562.595703125 c 2
 157.349609375 562.595703125 157.32421875 404.1171875 157.32421875 292.599609375 c 0
 157.32421875 195.374023438 242.815429688 107.470703125 348 107.470703125 c 0
 453.184570312 107.470703125 538.67578125 195.374023438 538.67578125 292.599609375 c 0
 538.67578125 404.119140625 538.650390625 562.590820312 538.650390625 562.599609375 c 0
 538.650390625 596.975585938 571.6015625 615.599609375 600.700195312 615.599609375 c 0
 629.826171875 615.599609375 662.75 597.072265625 662.75 562.682617188 c 2
612.755859375 561.55078125 m 0
 611.888671875 562.5234375 607.603515625 565.600585938 600.700195312 565.600585938 c 0
 594.004882812 565.600585938 589.75390625 562.796875 588.650390625 561.55859375 c 0
 588.65234375 548.771484375 588.67578125 399.086914062 588.67578125 292.600585938 c 0
 588.67578125 166.787109375 480.610351562 57.4716796875 348 57.4716796875 c 0
 215.389648438 57.4716796875 107.32421875 166.787109375 107.32421875 292.600585938 c 0
 107.32421875 398.77734375 107.34765625 547.40625 107.349609375 561.55859375 c 0
 106.495117188 562.516601562 102.202148438 565.599609375 95.2998046875 565.599609375 c 0
 88.6025390625 565.599609375 84.3603515625 562.802734375 83.2431640625 561.55078125 c 0
 83.1767578125 551.114257812 82.5283203125 445.640625 82.5283203125 292.599609375 c 0
 82.5283203125 144.767578125 201.831054688 25 348 25 c 0
 494.168945312 25 613.471679688 144.767578125 613.471679688 292.599609375 c 0
 613.471679688 445.127929688 612.829101562 550.12109375 612.755859375 561.55078125 c 0
EndSplineSet
EndChar

StartChar: V
Encoding: 86 86 55
GlifName: V_
Width: 592
GlyphClass: 2
Flags: W
HStem: 554.999 49.999<74.5432 99.7039 486.711 510.553>
VStem: 436.55 49.999<205.705 553.786> 510.289 49.9258<339.607 555.046> 518.991 50.0146<288.139 502.691>
LayerCount: 2
Back
Fore
SplineSet
258.10546875 24.7177734375 m 0xe0
 400.192382812 29.6142578125 508.663085938 144.696289062 518.991210938 290.166992188 c 0xd0
 518.392578125 308.012695312 510.62109375 539.693359375 510.2890625 550.958984375 c 0
 509.338867188 552.025390625 505.131835938 555.047851562 498.219726562 555.047851562 c 0
 491.5234375 555.047851562 487.321289062 552.2734375 486.1796875 550.993164062 c 0
 486.248046875 538.056640625 486.548828125 402.71875 486.548828125 289.748046875 c 0
 486.548828125 163.661132812 387.828125 60.0048828125 270.14453125 49.876953125 c 0
 258.786132812 48.8994140625 247.4921875 56.248046875 244.073242188 67.541015625 c 0
 206.44921875 191.80859375 106.291015625 522.563476562 99.7744140625 543.552734375 c 0
 98.421875 546.22265625 87.3603515625 554.999023438 75.9658203125 554.999023438 c 0
 75.3046875 554.999023438 75.8427734375 555.017578125 74.4482421875 554.955078125 c 2
 231.65234375 36.3642578125 l 2
 231.84375 36.0107421875 232.700195312 34.681640625 234.186523438 33.2802734375 c 0
 238.759765625 28.96875 249.717773438 24.7177734375 258.10546875 24.7177734375 c 0xe0
183.767578125 14 m 1
 25.3173828125 544.653320312 l 2
 14.40625 581.193359375 45.6064453125 604.998046875 75.966796875 604.998046875 c 0
 106.064453125 604.998046875 135.68359375 588.256835938 146.564453125 561.23828125 c 0
 149.118164062 554.215820312 243.09375 243.319335938 285.705078125 102.5859375 c 1
 369.279296875 120.079101562 436.549804688 197.500976562 436.549804688 289.748046875 c 0
 436.549804688 405.7890625 436.237304688 543.634765625 436.170898438 552.198242188 c 0
 436.284179688 586.319335938 469.05859375 605.046875 498.220703125 605.046875 c 0
 528.30078125 605.046875 558.989257812 584.772460938 560.21484375 554.26953125 c 0xe0
 560.603515625 540.717773438 568.967773438 291.712890625 569.005859375 290.5859375 c 0
 569.032226562 289.797851562 569.004882812 288.700195312 568.965820312 288.111328125 c 0
 557.74609375 117.036132812 422.833007812 -8.478515625 251.419921875 -25.724609375 c 0
 208.92578125 -30 183.999023438 13 183.999023438 13 c 0
 183.999023438 13 183.767578125 14 183.767578125 14 c 1
EndSplineSet
AlternateSubs2: "'salt' Stylistic Alternatives in Latin lookup 0 subtable" uniE015
EndChar

StartChar: W
Encoding: 87 87 56
GlifName: W_
Width: 1064
GlyphClass: 2
Flags: W
HStem: -25 49.998<215.949 406.413 656.413 847.184> 57.4707 49.999<234.675 392.177 670.823 828.495> 565.599 50<84.2153 107.244 519.79 543.391 956.766 979.794>
VStem: 32.9551 50<174.651 564.276> 107.75 50<192.309 562.479 562.595 564.195> 469.102 50<192.309 564.199> 543.898 50<192.309 562.479 562.595 564.196> 906.25 50<195.024 564.198> 981.044 50.001<174.709 562.602 562.682 564.275>
LayerCount: 2
Back
Fore
SplineSet
33.67578125 562.682617188 m 0
 33.67578125 596.907226562 66.62890625 615.598632812 95.7265625 615.598632812 c 0
 124.854492188 615.598632812 157.775390625 596.990234375 157.775390625 562.594726562 c 2
 157.775390625 562.594726562 157.75 404.116210938 157.75 292.598632812 c 0
 157.75 189.209960938 212.338867188 107.469726562 313.42578125 107.469726562 c 0
 414.514648438 107.469726562 469.1015625 189.209960938 469.1015625 292.598632812 c 0
 469.1015625 404.118164062 469.076171875 562.58984375 469.076171875 562.598632812 c 0
 469.076171875 596.975585938 501.463867188 615.598632812 531.873046875 615.598632812 c 0
 560.999023438 615.598632812 593.923828125 596.9921875 593.923828125 562.594726562 c 2
 593.923828125 562.594726562 593.8984375 404.116210938 593.8984375 292.598632812 c 0
 593.8984375 189.208984375 648.486328125 107.469726562 749.57421875 107.469726562 c 0
 850.783203125 107.469726562 906.25 189.405273438 906.25 292.598632812 c 0
 906.25 404.118164062 906.224609375 562.58984375 906.224609375 562.598632812 c 0
 906.224609375 596.973632812 939.173828125 615.598632812 968.2734375 615.598632812 c 0
 997.399414062 615.598632812 1030.32421875 596.926757812 1030.32421875 562.681640625 c 2
 1030.32421875 562.681640625 1031.04492188 454.232421875 1031.04492188 292.599609375 c 0
 1031.04492188 121.6875 926.552734375 -25 749.57421875 -25 c 0
 645.877929688 -25 579.666992188 28.076171875 531.5 100.860351562 c 1
 482.51953125 26.845703125 416.767578125 -25 313.42578125 -25 c 0
 136.360351562 -25 32.955078125 121.822265625 32.955078125 292.599609375 c 0
 32.955078125 454.173828125 33.67578125 562.642578125 33.67578125 562.682617188 c 0
83.669921875 561.549804688 m 0
 83.603515625 551.114257812 82.955078125 445.638671875 82.955078125 292.59765625 c 0
 82.955078125 140.375 170.229492188 24.998046875 313.42578125 24.998046875 c 0
 410.109375 24.998046875 461.508789062 75.3740234375 509.697265625 161.259765625 c 0
 532.83984375 202.506835938 553.302734375 161.259765625 553.302734375 161.259765625 c 1
 601.491210938 75.3740234375 652.890625 24.998046875 749.57421875 24.998046875 c 0
 892.857421875 24.998046875 981.043945312 140.509765625 981.043945312 292.59765625 c 0
 981.043945312 445.125976562 980.40234375 550.119140625 980.330078125 561.548828125 c 0
 979.462890625 562.521484375 975.177734375 565.59765625 968.2734375 565.59765625 c 0
 961.578125 565.59765625 957.328125 562.793945312 956.224609375 561.556640625 c 0
 956.2265625 548.768554688 956.25 399.084960938 956.25 292.59765625 c 0
 956.25 172.751953125 886.158203125 57.46875 749.57421875 57.46875 c 0
 612.865234375 57.46875 543.8984375 172.948242188 543.8984375 292.59765625 c 0
 543.8984375 398.774414062 543.921875 547.404296875 543.923828125 561.556640625 c 0
 543.069335938 562.514648438 538.775390625 565.598632812 531.873046875 565.598632812 c 0
 523.715820312 565.598632812 520.307617188 562.938476562 519.076171875 561.557617188 c 0
 519.078125 548.771484375 519.1015625 399.0859375 519.1015625 292.599609375 c 0
 519.1015625 172.94921875 450.133789062 57.470703125 313.42578125 57.470703125 c 0
 176.719726562 57.470703125 107.75 172.94921875 107.75 292.599609375 c 0
 107.75 398.776367188 107.7734375 547.404296875 107.775390625 561.557617188 c 0
 106.920898438 562.515625 102.62890625 565.598632812 95.7265625 565.598632812 c 0
 89.029296875 565.598632812 84.7861328125 562.801757812 83.669921875 561.549804688 c 0
EndSplineSet
EndChar

StartChar: X
Encoding: 88 88 57
GlifName: X_
Width: 630
GlyphClass: 2
Flags: W
HStem: -24.9971 50.0166<73.3027 114.4 515.597 556.696> 564.985 50.0186<73.3076 114.402 515.597 556.691>
LayerCount: 2
Back
Fore
SplineSet
556.69140625 564.982421875 m 1
 538.009765625 564.494140625 517.813476562 552.499023438 515.474609375 548.755859375 c 0
 514.204101562 546.72265625 514.182617188 546.819335938 514.05078125 546.665039062 c 0
 507.178710938 538.666992188 427.248046875 444.067382812 334.096679688 333.796875 c 0
 316.866210938 313.399414062 300.689453125 328.12890625 295.901367188 333.796875 c 0
 203.354492188 443.350585938 122.876953125 538.598632812 116.458984375 546.069335938 c 2
 116.458984375 546.069335938 115.233398438 547.619140625 114.5234375 548.755859375 c 0
 112.204101562 552.466796875 92.826171875 564.475585938 73.3076171875 564.985351562 c 1
 287.741210938 311.1875 l 2
 294.883789062 302.733398438 295.8125 288.47265625 287.744140625 278.919921875 c 0
 196.13671875 170.469726562 105.162109375 62.7451171875 73.302734375 25.01953125 c 1
 91.9912109375 25.5078125 112.18359375 37.5068359375 114.522460938 41.25 c 0
 114.982421875 41.9853515625 115.889648438 43.2626953125 116.627929688 44.13671875 c 2
 295.903320312 256.322265625 l 2
 313.130859375 276.711914062 329.305664062 261.991210938 334.095703125 256.321289062 c 2
 513.37109375 44.1357421875 l 2
 513.930664062 43.4736328125 514.869140625 42.2197265625 515.475585938 41.25 c 0
 517.794921875 37.5380859375 537.168945312 25.529296875 556.696289062 25.0185546875 c 1
 525.923828125 61.45703125 433.96484375 170.345703125 342.255859375 278.91796875 c 0
 335.114257812 287.372070312 334.1875 301.6328125 342.2578125 311.184570312 c 2
 556.69140625 564.982421875 l 1
605.995117188 545.869140625 m 2
 394.083007812 295.049804688 l 1
 503.92578125 165.006835938 605.399414062 44.845703125 606.001953125 44.1318359375 c 0
 606.73828125 43.259765625 607.643554688 41.984375 608.102539062 41.25 c 0
 612.086914062 34.875 614.93359375 27.150390625 615.00390625 18.6416015625 c 0
 615.282226562 -15.0625 580.91015625 -24.998046875 558.084960938 -24.998046875 c 0
 525.338867188 -24.998046875 490.947265625 -11.0205078125 474.18359375 13.046875 c 2
 315.000976562 201.451171875 l 1
 155.818359375 13.046875 l 2
 138.041015625 -12.4755859375 103.91796875 -24.9970703125 71.9169921875 -24.9970703125 c 0
 58.63671875 -24.9970703125 46.2216796875 -22.654296875 35.3857421875 -16.103515625 c 0
 16.029296875 -4.400390625 9.52734375 21.453125 21.8994140625 41.251953125 c 0
 22.5048828125 42.220703125 23.44140625 43.47265625 24 44.1337890625 c 2
 24 44.1337890625 127.953125 167.231445312 235.918945312 295.051757812 c 1
 24.0029296875 545.869140625 l 2
 23.1279296875 546.904296875 22.0888671875 548.415039062 21.5615234375 549.309570312 c 0
 18.0009765625 555.349609375 15.4443359375 562.48046875 15.1806640625 570.336914062 c 0
 14.037109375 604.44140625 48.70703125 615.00390625 71.9150390625 615.00390625 c 0
 104.649414062 615.00390625 139.102539062 600.955078125 155.737304688 577.072265625 c 0
 164.927734375 566.28125 235.130859375 483.209960938 314.999023438 388.668945312 c 1
 397.046875 485.791015625 465.15625 566.383789062 474.26171875 577.073242188 c 0
 491.884765625 602.375 526.111328125 615.002929688 558.083007812 615.002929688 c 0
 571.001953125 615.002929688 583.072265625 612.8125 593.729492188 606.624023438 c 0
 613.596679688 595.086914062 620.189453125 569.249023438 608.435546875 549.30859375 c 0
 607.747070312 548.141601562 606.665039062 546.662109375 605.995117188 545.869140625 c 2
EndSplineSet
EndChar

StartChar: Y
Encoding: 89 89 58
GlifName: Y_
Width: 661
GlyphClass: 2
Flags: W
HStem: -90.3223 49.998<194.516 450.956> -15.5283 50<195.576 435.392> 82.998 50<232.224 429.103> 165.469 50<250.183 416.113> 565.598 50<81.6648 105.315 555.009 579.011>
VStem: 31.0264 49.999<292.161 565.266> 105.821 50.001<313.557 562.549 562.586 564.187> 144.151 50.001<-39.6311 -16.0356> 504.903 49.998<311.757 564.198> 579.97 50.002<74.3615 565.174>
LayerCount: 2
Back
Fore
SplineSet
189.194335938 -89.7470703125 m 0xfec0
 162.478515625 -79.7548828125 144.151367188 -52.6015625 144.151367188 -27.552734375 c 0xfdc0
 144.151367188 1.57421875 162.7421875 34.4970703125 197.178710938 34.4970703125 c 0
 197.182617188 34.4970703125 208.624023438 34.4716796875 320.15234375 34.4716796875 c 0
 420.98046875 34.4716796875 493.034179688 66.0712890625 503.802734375 144.514648438 c 1
 456.4765625 105.856445312 401.905273438 82.998046875 332.498046875 82.998046875 c 0
 157.241210938 82.998046875 31.0263671875 227.1015625 31.0263671875 400.59765625 c 0
 31.0263671875 543.42578125 31.5283203125 559.91796875 31.755859375 563.658203125 c 0
 33.0380859375 598.229492188 65.056640625 615.59765625 93.7978515625 615.59765625 c 0
 122.924804688 615.59765625 155.84765625 596.997070312 155.84765625 562.5859375 c 2
 155.84765625 562.5859375 155.822265625 512.118164062 155.822265625 400.59765625 c 0
 155.822265625 301.068359375 228.907226562 215.46875 332.498046875 215.46875 c 0
 432.64453125 215.46875 499.4765625 295.5390625 504.903320312 391.044921875 c 1
 504.903320312 562.59765625 l 2
 504.903320312 596.974609375 538.288085938 615.598632812 567.546875 615.598632812 c 0
 597.584960938 615.598632812 628.036132812 596.190429688 629.2421875 563.659179688 c 0
 629.490234375 559.581054688 629.971679688 542.477539062 629.971679688 400.598632812 c 0
 629.971679688 392.100585938 629.638671875 383.674804688 628.984375 375.3359375 c 0
 617.630859375 230.676757812 629.0859375 188.875 629.026367188 185.690429688 c 0
 629.258789062 180.498046875 629.380859375 175.41796875 629.396484375 170.381835938 c 0
 629.9609375 -15.599609375 483.227539062 -90.322265625 320.154296875 -90.322265625 c 0
 210.075195312 -90.322265625 203.85546875 -94.34765625 189.194335938 -89.7470703125 c 0xfec0
567.1875 565.59765625 m 0
 560.375 565.59765625 556.005859375 562.79296875 554.901367188 561.5546875 c 2
 554.901367188 390.364257812 l 2
 554.901367188 390.052734375 554.888671875 389.459960938 554.866210938 389.040039062 c 0
 548.61328125 271.213867188 463.104492188 165.46875 332.497070312 165.46875 c 0
 198.29296875 165.46875 105.821289062 277.087890625 105.821289062 400.59765625 c 0xfec0
 105.821289062 502.541992188 105.842773438 553.309570312 105.846679688 561.556640625 c 0
 104.993164062 562.513671875 100.69921875 565.59765625 93.796875 565.59765625 c 0
 87.083984375 565.59765625 82.8994140625 562.84765625 81.6982421875 561.500976562 c 0
 81.490234375 555.84765625 81.025390625 532.596679688 81.025390625 400.59765625 c 0
 81.025390625 251.09375 187.490234375 132.998046875 332.497070312 132.998046875 c 0
 409.494140625 132.998046875 460.819335938 164.954101562 511.303710938 221.154296875 c 0
 543.649414062 257.161132812 554.90234375 204.447265625 554.90234375 204.447265625 c 1
 554.90234375 186.442382812 l 2
 555.123046875 185.138671875 555.279296875 183.548828125 555.279296875 182.114257812 c 0
 555.279296875 177.52734375 555.28125 172.545898438 555.28125 167.147460938 c 0
 555.28125 27.548828125 434.962890625 -15.5283203125 320.15234375 -15.5283203125 c 0
 225.80078125 -15.5283203125 203.188476562 -15.5107421875 198.192382812 -15.5048828125 c 0
 197.237304688 -16.3564453125 194.15234375 -20.6513671875 194.15234375 -27.552734375 c 0
 194.15234375 -34.390625 196.5546875 -38.140625 198.611328125 -39.974609375 c 0
 216.716796875 -40.1982421875 244.275390625 -40.32421875 320.15234375 -40.32421875 c 0
 470.708007812 -40.32421875 579.846679688 20.970703125 579.393554688 170.228515625 c 0
 579.379882812 174.856445312 579.259765625 179.58203125 579.030273438 184.407226562 c 0
 578.990234375 185.251953125 578.99609375 184.796875 579.021484375 186.4921875 c 0
 579.107421875 192.840820312 579.095703125 229.72265625 579.057617188 377.284179688 c 0
 579.057617188 377.749023438 579.0859375 378.624023438 579.134765625 379.247070312 c 0
 579.6875 386.287109375 579.969726562 393.40625 579.969726562 400.59765625 c 0
 579.969726562 531.671875 579.524414062 555.329101562 579.296875 561.5 c 0
 578.345703125 562.567382812 574.11328125 565.59765625 567.1875 565.59765625 c 0
504.913085938 205.263671875 m 1
 504.913085938 205.263671875 550.53515625 252.736328125 554.350585938 238.030273438 c 0
 557.60546875 225.484375 555.232421875 228.334960938 555.258789062 208.280273438 c 0
 555.260742188 207.143554688 555.186523438 205.73828125 554.880859375 203.904296875 c 0
 554.698242188 202.920898438 504.913085938 205.263671875 504.913085938 205.263671875 c 1
EndSplineSet
AlternateSubs2: "'salt' Stylistic Alternatives in Latin lookup 0 subtable" uniE00D
EndChar

StartChar: Z
Encoding: 90 90 59
GlifName: Z_
Width: 699
GlyphClass: 2
Flags: W
HStem: -25.0029 50<174.727 615.504 615.583 617.177> 49.793 50<206.777 617.1> 226.424 50<157.224 600.079> 301.943 49.9971<98.9212 484.536> 478.571 50<81.8992 492.222> 553.367 50<81.8222 83.416 83.4952 524.272>
VStem: 27.9004 50<102.099 278.691 529.087 552.116> 110.398 49.9727<140.022 223.019> 538.628 49.9736<355.307 438.341> 618.5 50<26.248 49.2768 296.186 481.195>
LayerCount: 2
Back
Fore
SplineSet
214.5 301.943359375 m 0
 137.046875 301.943359375 77.900390625 323.29296875 77.900390625 184.46875 c 0
 77.900390625 51.7626953125 182.430664062 24.9970703125 345.5 24.9970703125 c 0
 498.028320312 24.9970703125 603.021484375 25.6396484375 614.451171875 25.712890625 c 0
 615.423828125 26.580078125 618.5 30.865234375 618.5 37.7685546875 c 0
 618.5 44.4638671875 615.696289062 48.71484375 614.458007812 49.818359375 c 0
 601.670898438 49.81640625 451.986328125 49.79296875 345.5 49.79296875 c 0
 238.673828125 49.79296875 112.932617188 70.626953125 110.3984375 181.731445312 c 0
 107.719726562 194.5 101.66796875 258.13671875 176.106445312 273.619140625 c 0
 187.640625 276.018554688 197.036132812 277.029296875 213.765625 277.149414062 c 0
 216.979492188 277.348632812 323.198242188 276.423828125 484.5 276.423828125 c 0
 561.953125 276.423828125 621.099609375 255.071289062 621.099609375 393.895507812 c 0
 621.099609375 526.6015625 516.569335938 553.3671875 353.5 553.3671875 c 0
 200.971679688 553.3671875 95.978515625 552.724609375 84.548828125 552.651367188 c 0
 83.576171875 551.784179688 80.5 547.499023438 80.5 540.595703125 c 0
 80.5 533.900390625 83.3037109375 529.649414062 84.5419921875 528.545898438 c 0
 97.3291015625 528.547851562 247.013671875 528.571289062 353.5 528.571289062 c 0
 460.326171875 528.571289062 586.067382812 507.740234375 588.6015625 396.62890625 c 0
 591.274414062 383.868164062 597.354492188 320.127929688 522.872070312 304.705078125 c 0
 511.598632812 302.37109375 498.90234375 301.182617188 484.432617188 301.221679688 c 0
 484.248046875 301.22265625 375.987304688 301.943359375 214.5 301.943359375 c 0
214.5 351.940429688 m 0
 376.096679688 351.940429688 484.615234375 351.21875 484.615234375 351.21875 c 2
 562.611328125 351.010742188 538.627929688 382.290039062 538.627929688 393.895507812 c 0
 538.627929688 452.822265625 468.73046875 478.571289062 353.499023438 478.571289062 c 0
 241.979492188 478.571289062 83.5078125 478.545898438 83.4990234375 478.545898438 c 0
 49.123046875 478.545898438 30.4990234375 511.497070312 30.4990234375 540.595703125 c 0
 30.4990234375 569.721679688 49.171875 602.645507812 83.416015625 602.645507812 c 2
 83.416015625 602.645507812 191.865234375 603.3671875 353.499023438 603.3671875 c 0
 513.4296875 603.3671875 671.098632812 573.453125 671.098632812 393.895507812 c 0
 671.098632812 214.456054688 554.045898438 226.423828125 484.499023438 226.423828125 c 0
 329.700195312 226.423828125 223.30859375 227.206054688 215.333984375 227.159179688 c 0
 214.889648438 227.145507812 214.77734375 227.14453125 214.463867188 227.14453125 c 0
 136.327148438 227.256835938 160.37109375 196.05078125 160.37109375 184.46875 c 0
 160.37109375 125.541992188 230.268554688 99.79296875 345.5 99.79296875 c 0
 457.01953125 99.79296875 615.491210938 99.818359375 615.5 99.818359375 c 0
 649.875976562 99.818359375 668.5 66.8671875 668.5 37.7685546875 c 0
 668.5 8.642578125 649.827148438 -24.28125 615.583007812 -24.28125 c 2
 615.583007812 -24.28125 507.133789062 -25.0029296875 345.5 -25.0029296875 c 0
 185.569335938 -25.0029296875 27.900390625 4.9111328125 27.900390625 184.46875 c 0
 27.900390625 363.908203125 144.953125 351.940429688 214.5 351.940429688 c 0
EndSplineSet
AlternateSubs2: "'salt' Stylistic Alternatives in Latin lookup 0 subtable" uniE017
EndChar

StartChar: bracketleft
Encoding: 91 91 60
GlifName: bracketleft
Width: 353
GlyphClass: 2
Flags: W
HStem: -25.1729 50.416<156.563 241.91 290.892 296.657> 49.626 49.998<179.011 240.512> 480.976 49.9971<178.636 240.513> 555.805 49.9658<156.556 241.909>
VStem: 17.3115 50.001<130.261 450.338> 99.7832 50<130.724 449.698> 241.912 50<25.313 49.774 530.815 555.405>
LayerCount: 2
Back
Fore
SplineSet
237.05078125 555.8046875 m 0
 102.57421875 552.556640625 67.3125 448.08984375 67.3125 290.298828125 c 0
 67.3125 132.504882812 102.5703125 28.0419921875 237.051757812 24.7939453125 c 0
 238.3671875 25.966796875 241.912109375 30.8818359375 241.912109375 37.5732421875 c 0
 241.912109375 44.26953125 239.111328125 48.5166015625 237.8671875 49.6259765625 c 0
 102.065429688 50.3349609375 99.783203125 177.571289062 99.783203125 290.298828125 c 0
 99.783203125 402.120117188 101.005859375 530.2578125 237.8671875 530.97265625 c 0
 238.831054688 531.83203125 241.911132812 536.122070312 241.911132812 543.025390625 c 0
 241.911132812 549.716796875 238.366210938 554.631835938 237.05078125 555.8046875 c 0
290.891601562 555.35546875 m 2
 291.8515625 549.041992188 291.912109375 547.489257812 291.912109375 543.025390625 c 0
 291.912109375 513.8984375 273.301757812 480.975585938 238.912109375 480.975585938 c 0
 153.586914062 480.975585938 149.783203125 415.901367188 149.783203125 290.299804688 c 0
 149.783203125 164.698242188 153.586914062 99.6240234375 238.912109375 99.6240234375 c 0
 273.288085938 99.6240234375 291.912109375 66.6728515625 291.912109375 37.57421875 c 0
 291.912109375 33.4248046875 291.4140625 28.6787109375 290.891601562 25.2431640625 c 1
 293.458007812 25.224609375 294.743164062 25.21484375 296.657226562 25.19921875 c 2
 296.657226562 25.19921875 335.689453125 42.4619140625 335.689453125 0.0078125 c 0
 335.689453125 -45.9765625 263.516601562 -25.1728515625 238.911132812 -25.1728515625 c 0
 55.2080078125 -25.1728515625 17.3115234375 130.037109375 17.3115234375 290.298828125 c 0
 17.3115234375 450.567382812 55.1884765625 605.770507812 238.911132812 605.770507812 c 0
 293.901367188 605.770507812 305.134765625 608.874023438 318.715820312 604.267578125 c 0
 341.799804688 596.438476562 290.891601562 555.35546875 290.891601562 555.35546875 c 2
EndSplineSet
EndChar

StartChar: backslash
Encoding: 92 92 61
GlifName: backslash
Width: 362
GlyphClass: 2
Flags: W
HStem: -25 49.999<270.809 295.865> 593 50<66.0107 91.0661>
LayerCount: 2
Back
Fore
SplineSet
16.8974609375 581.661132812 m 2
 4.73046875 617.484375 36.1083984375 643 67.2109375 643 c 0
 97.2587890625 643 127.076171875 625.875976562 137.623046875 599.6875 c 0
 140.947265625 591.450195312 344.6171875 37.326171875 344.87109375 36.6357421875 c 0
 358.081054688 0.75 325.372070312 -25 294.666015625 -25 c 0
 265.166015625 -25 234.252929688 -8.8994140625 223.850585938 19.365234375 c 2
 16.8974609375 581.661132812 l 2
66.0107421875 592.970703125 m 2
 270.771484375 36.6337890625 l 2
 271.41015625 34.8984375 282.366210938 24.9990234375 294.665039062 24.9990234375 c 0
 295.130859375 24.9990234375 295.165039062 24.998046875 295.865234375 25.029296875 c 1
 274.762695312 82.421875 97.345703125 564.927734375 91.103515625 581.365234375 c 0
 90.46484375 583.100585938 79.509765625 593 67.2099609375 593 c 0
 66.748046875 593 66.6787109375 593 66.0107421875 592.970703125 c 2
EndSplineSet
EndChar

StartChar: bracketright
Encoding: 93 93 62
GlifName: bracketright
Width: 356
GlyphClass: 2
Flags: W
HStem: -25.1709 50.415<57.4736 63.6084 112.591 197.945> 49.627 49.998<113.987 175.864> 480.977 49.9971<113.988 175.489> 555.805 49.9678<112.59 197.938>
VStem: 62.5879 50.001<25.1946 49.7852 530.826 555.242> 204.717 50<130.902 449.876> 287.188 50.001<130.262 450.338>
LayerCount: 2
Back
Fore
SplineSet
117.44921875 555.8046875 m 0
 116.133789062 554.631835938 112.587890625 549.717773438 112.587890625 543.026367188 c 0
 112.587890625 536.330078125 115.388671875 532.083007812 116.6328125 530.973632812 c 0
 252.434570312 530.264648438 254.716796875 403.028320312 254.716796875 290.30078125 c 0
 254.716796875 178.479492188 253.494140625 50.341796875 116.6328125 49.626953125 c 0
 115.668945312 48.767578125 112.588867188 44.4775390625 112.588867188 37.57421875 c 0
 112.588867188 30.8828125 116.133789062 25.9677734375 117.44921875 24.794921875 c 0
 251.92578125 28.04296875 287.188476562 132.508789062 287.188476562 290.299804688 c 0
 287.188476562 448.09375 251.930664062 552.556640625 117.44921875 555.8046875 c 0
63.6083984375 555.357421875 m 2
 63.6083984375 555.357421875 18.8115234375 534.556640625 18.8115234375 580.591796875 c 0
 18.8115234375 626.576171875 90.984375 605.772460938 115.58984375 605.772460938 c 0
 299.29296875 605.772460938 337.189453125 450.5625 337.189453125 290.30078125 c 0
 337.189453125 130.032226562 299.3125 -25.1708984375 115.58984375 -25.1708984375 c 0
 60.599609375 -25.1708984375 49.3662109375 -28.2744140625 35.78515625 -23.66796875 c 0
 14.55859375 -16.46875 57.4736328125 25.1982421875 57.4736328125 25.1982421875 c 2
 59.353515625 25.212890625 61.703125 25.23046875 63.6083984375 25.244140625 c 1
 62.6484375 31.5576171875 62.587890625 33.111328125 62.587890625 37.5751953125 c 0
 62.587890625 66.7021484375 81.1982421875 99.625 115.587890625 99.625 c 0
 200.913085938 99.625 204.716796875 164.69921875 204.716796875 290.30078125 c 0
 204.716796875 415.90234375 200.913085938 480.9765625 115.587890625 480.9765625 c 0
 81.2119140625 480.9765625 62.587890625 513.927734375 62.587890625 543.026367188 c 0
 62.587890625 547.17578125 63.0859375 551.921875 63.6083984375 555.357421875 c 2
EndSplineSet
EndChar

StartChar: asciicircum
Encoding: 94 94 63
GlifName: asciicircum
Width: 476
GlyphClass: 2
Flags: W
HStem: 739 50.001<211.106 264.552>
LayerCount: 2
Back
Fore
SplineSet
238 739 m 0
 225.69921875 739 214.748046875 729.100585938 214.109375 727.366210938 c 0
 213.58984375 725.954101562 212.112304688 723.112304688 212.112304688 723.112304688 c 2
 205.775390625 713.822265625 158.708984375 643.484375 117.42578125 581.784179688 c 1
 218.197265625 712.590820312 l 2
 238.504882812 738.951171875 255.8515625 715.126953125 257.805664062 712.58984375 c 2
 358.577148438 581.783203125 l 1
 319.9609375 639.497070312 268.935546875 715.715820312 265.174804688 721.229492188 c 0
 263.991210938 722.9375 262.694335938 725.188476562 261.893554688 727.365234375 c 0
 261.254882812 729.100585938 250.299804688 739 238 739 c 0
238.002929688 789.000976562 m 0
 267.35546875 789.000976562 295.541015625 773.241210938 307.494140625 747.915039062 c 1
 322.709960938 725.370117188 449.38671875 535.971679688 449.434570312 535.900390625 c 0
 450.893554688 533.71875 452.168945312 530.767578125 452.751953125 528.655273438 c 0
 456.993164062 513.293945312 454.28515625 495.875976562 442.690429688 483.369140625 c 0
 434.017578125 474.013671875 421.42578125 469.002929688 408.594726562 469.002929688 c 0
 381.063476562 469.002929688 359.384765625 488.389648438 350.712890625 510.0703125 c 1
 238.00390625 656.37109375 l 1
 125.295898438 510.0703125 l 1
 115.803710938 486.338867188 94.1533203125 469.002929688 67.4140625 469.002929688 c 0
 55.212890625 469.002929688 43.1845703125 473.512695312 34.5625 482.080078125 c 0
 21.9609375 494.602539062 18.8642578125 512.748046875 23.255859375 528.655273438 c 0
 23.9541015625 531.185546875 25.35546875 534.079101562 26.57421875 535.900390625 c 2
 26.57421875 535.900390625 154.541992188 727.212890625 168.513671875 747.915039062 c 0
 181.288085938 774.98046875 209.446289062 789.000976562 238.002929688 789.000976562 c 0
EndSplineSet
EndChar

StartChar: underscore
Encoding: 95 95 64
GlifName: underscore
Width: 865
GlyphClass: 2
Flags: W
HStem: -157.873 49.8584<93.503 770.098> -83.9023 49.998<94.5915 770.1>
VStem: 43.5 50.001<-107.386 -84.3732> 771.5 50<-107.489 -84.4441>
LayerCount: 2
Back
Fore
SplineSet
96.1455078125 -33.904296875 m 2
 768.5 -33.90234375 l 2
 802.876953125 -33.90234375 821.5 -66.8544921875 821.5 -95.9521484375 c 0
 821.5 -125.22265625 802.661132812 -158.004882812 768.5078125 -158.002929688 c 0
 765.681640625 -158.00390625 106.360351562 -158.346679688 92.140625 -157.873046875 c 0
 63.6298828125 -156.81640625 43.5 -124.66015625 43.5 -95.9541015625 c 0
 43.5 -66.302734375 62.7724609375 -34.8515625 96.1455078125 -33.904296875 c 2
97.7724609375 -83.90234375 m 2
 96.9716796875 -84.501953125 93.5009765625 -88.4716796875 93.5009765625 -95.9521484375 c 0
 93.5009765625 -102.65234375 96.2900390625 -106.884765625 97.5576171875 -108.014648438 c 0
 123.541015625 -108.181640625 735.534179688 -108.01171875 767.368164062 -108.001953125 c 0
 768.426757812 -107.059570312 771.5 -102.734375 771.5 -95.9521484375 c 0
 771.5 -89.2578125 768.696289062 -85.0068359375 767.458007812 -83.90234375 c 2
 97.7724609375 -83.90234375 l 2
EndSplineSet
EndChar

StartChar: grave
Encoding: 96 96 65
GlifName: grave
Width: 228
GlyphClass: 2
Flags: W
HStem: 675 49.999<71.4514 110.892>
VStem: 21.3711 185.133
LayerCount: 2
Back
Fore
SplineSet
74.10546875 664.315429688 m 0
 82.1728515625 647.014648438 104.581054688 632.5 116.763671875 632.5 c 0
 120.743164062 632.5 117.120117188 631.379882812 123.258789062 634.463867188 c 1
 122.078125 636.10546875 120.927734375 637.708007812 119.823242188 639.26171875 c 0
 119.170898438 640.178710938 118.157226562 641.859375 117.540039062 643.18359375 c 0
 109.724609375 659.942382812 86.1455078125 675 73.6298828125 675 c 0
 72.65234375 675 72.1015625 674.950195312 71.3818359375 674.836914062 c 0
 71.322265625 673.456054688 71.68359375 669.508789062 74.10546875 664.315429688 c 0
28.7890625 643.184570312 m 0
 24.1201171875 653.197265625 21.38671875 663.631835938 21.37109375 674.26171875 c 0
 21.3544921875 685.729492188 24.7578125 697.79296875 32.8828125 707.4375 c 0
 43.046875 719.502929688 58.3955078125 724.999023438 73.6298828125 724.999023438 c 0
 110.958007812 724.999023438 146.46875 697.048828125 161.7734375 666.55078125 c 0
 176.385742188 646.157226562 204.094726562 615.284179688 206.50390625 585.784179688 c 0
 209.586914062 548.037109375 164.844726562 543.74609375 153.552734375 540.807617188 c 0
 140.186523438 537.329101562 125.674804688 534.608398438 112.282226562 532.740234375 c 1
 112.282226562 532.740234375 66.5556640625 560.767578125 95.6875 578.767578125 c 0
 98.525390625 580.520507812 102.538085938 582.836914062 103.948242188 583.6484375 c 1
 71.515625 589.426757812 42.4921875 613.796875 28.7890625 643.184570312 c 0
EndSplineSet
EndChar

StartChar: a
Encoding: 97 97 66
GlifName: a
Width: 720
GlyphClass: 2
Flags: W
HStem: -25 50.001<252.424 469.806 617.138 639.873> 57.4727 50<267.89 452.114> 477.73 50<267.89 452.114> 560.201 49.998<252.424 467.578>
VStem: 29.2402 50.002<189.644 395.557> 107.975 50<211.975 373.228> 566.151 50<24.21 44.3438 221.409 363.794> 640.276 49.9736<24.0073 394.791>
LayerCount: 2
Back
Fore
SplineSet
690.25 10.4482421875 m 2
 690.25 -32.841796875 634.776367188 -26.287109375 626.419921875 -26.291015625 c 0
 619.1015625 -26.2939453125 566.151367188 -32.958984375 566.151367188 9.470703125 c 0
 566.151367188 20.9580078125 566.15234375 33.5556640625 566.153320312 44.34375 c 1
 509.415039062 0.853515625 437.75 -25 360 -25 c 0
 178.575195312 -25 29.240234375 116.3359375 29.240234375 292.599609375 c 0
 29.240234375 468.86328125 178.575195312 610.19921875 360 610.19921875 c 0
 541.424804688 610.19921875 690.759765625 468.881835938 690.759765625 292.577148438 c 2
 690.25 10.4482421875 l 2
640.276367188 24.6171875 m 1
 640.76171875 292.646484375 l 2
 640.76171875 439.30078125 515.696289062 560.201171875 360.001953125 560.201171875 c 0
 204.307617188 560.201171875 79.2421875 439.337890625 79.2421875 292.600585938 c 0
 79.2421875 145.864257812 204.307617188 25.0009765625 360.001953125 25.0009765625 c 0
 445.055664062 25.0009765625 521.177734375 61.1708984375 572.625 118.000976562 c 0
 605.123046875 153.899414062 616.158203125 101.22265625 616.158203125 101.22265625 c 1
 616.151367188 24.2099609375 l 1
 621.991210938 23.603515625 631.69140625 23.494140625 640.276367188 24.6171875 c 1
107.974609375 292.6015625 m 0
 107.974609375 419.517578125 222.241210938 527.73046875 360.001953125 527.73046875 c 0
 497.76171875 527.73046875 612.029296875 419.517578125 612.029296875 292.6015625 c 0
 612.029296875 165.684570312 497.762695312 57.47265625 360.001953125 57.47265625 c 0
 222.2421875 57.47265625 107.974609375 165.684570312 107.974609375 292.6015625 c 0
157.974609375 292.6015625 m 0
 157.974609375 196.477539062 247.451171875 107.47265625 360.001953125 107.47265625 c 0
 472.551757812 107.47265625 562.029296875 196.477539062 562.029296875 292.6015625 c 0
 562.029296875 388.724609375 472.552734375 477.73046875 360.001953125 477.73046875 c 0
 247.452148438 477.73046875 157.974609375 388.724609375 157.974609375 292.6015625 c 0
EndSplineSet
EndChar

